<svg viewBox="0 0 179 51" fill="none" xmlns="http://www.w3.org/2000/svg">
<rect width="179" height="51" rx="7" fill="black"/>
<path d="M116.647 24.4813V27.4023H114.836V29.3179H116.647V35.8268C116.647 38.0493 117.642 38.9383 120.144 38.9383C120.583 38.9383 121.002 38.8854 121.368 38.8219V36.9275C121.054 36.9592 120.855 36.9804 120.51 36.9804C119.39 36.9804 118.898 36.4512 118.898 35.2447V29.3179H121.368V27.4023H118.898V24.4813H116.647Z" fill="white"/>
<path d="M127.742 39.0971C131.071 39.0971 133.112 36.8428 133.112 33.1068C133.112 29.392 131.06 27.1272 127.742 27.1272C124.413 27.1272 122.361 29.392 122.361 33.1068C122.361 36.8428 124.402 39.0971 127.742 39.0971ZM127.742 37.0756C125.784 37.0756 124.685 35.6257 124.685 33.1068C124.685 30.6091 125.784 29.1486 127.742 29.1486C129.689 29.1486 130.799 30.6091 130.799 33.1068C130.799 35.6151 129.689 37.0756 127.742 37.0756Z" fill="white"/>
<path d="M134.859 38.8748H137.109V32.0697C137.109 30.4504 138.313 29.3603 140.02 29.3603C140.417 29.3603 141.087 29.4344 141.276 29.4979V27.2542C141.035 27.1907 140.606 27.1589 140.271 27.1589C138.784 27.1589 137.518 27.9844 137.193 29.1169H137.026V27.3494H134.859V38.8748Z" fill="white"/>
<path d="M146.864 29.0639C148.529 29.0639 149.618 30.2387 149.67 32.0485H143.912C144.038 30.2493 145.2 29.0639 146.864 29.0639ZM149.659 35.7633C149.241 36.6629 148.309 37.1603 146.948 37.1603C145.148 37.1603 143.986 35.8797 143.912 33.8583V33.7313H151.962V32.9375C151.962 29.3179 150.047 27.1272 146.875 27.1272C143.661 27.1272 141.62 29.4661 141.62 33.1492C141.62 36.8322 143.619 39.0971 146.885 39.0971C149.492 39.0971 151.313 37.8271 151.826 35.7633H149.659Z" fill="white"/>
<path d="M101.887 34.6187C102.061 37.4488 104.394 39.2588 107.866 39.2588C111.576 39.2588 113.898 37.3611 113.898 34.3335C113.898 31.9531 112.575 30.6368 109.363 29.8799L107.638 29.4521C105.598 28.9694 104.773 28.3222 104.773 27.1923C104.773 25.7663 106.054 24.8339 107.974 24.8339C109.797 24.8339 111.056 25.7444 111.284 27.2033H113.649C113.508 24.5377 111.186 22.6619 108.007 22.6619C104.589 22.6619 102.31 24.5377 102.31 27.3569C102.31 29.6824 103.602 31.0646 106.433 31.7337L108.452 32.2273C110.524 32.721 111.435 33.4449 111.435 34.6516C111.435 36.0557 110.003 37.0758 108.05 37.0758C105.956 37.0758 104.502 36.1215 104.296 34.6187H101.887Z" fill="white"/>
<path d="M78.5722 27.1589C77.0229 27.1589 75.6829 27.9421 74.992 29.2544H74.8245V27.3494H72.6575V42.7061H74.9083V37.1286H75.0862C75.6829 38.3457 76.9705 39.0653 78.5931 39.0653C81.472 39.0653 83.3039 36.7687 83.3039 33.1068C83.3039 29.4449 81.472 27.1589 78.5722 27.1589ZM77.9336 37.0227C76.0493 37.0227 74.8664 35.5199 74.8664 33.1174C74.8664 30.7044 76.0493 29.2015 77.9441 29.2015C79.8493 29.2015 80.9904 30.6726 80.9904 33.1068C80.9904 35.5516 79.8493 37.0227 77.9336 37.0227Z" fill="white"/>
<path d="M91.1795 27.1589C89.6302 27.1589 88.2902 27.9421 87.5993 29.2544H87.4318V27.3494H85.2649V42.7061H87.5156V37.1286H87.6935C88.2902 38.3457 89.5779 39.0653 91.2005 39.0653C94.0793 39.0653 95.9112 36.7687 95.9112 33.1068C95.9112 29.4449 94.0793 27.1589 91.1795 27.1589ZM90.5409 37.0227C88.6566 37.0227 87.4737 35.5199 87.4737 33.1174C87.4737 30.7044 88.6566 29.2015 90.5514 29.2015C92.4567 29.2015 93.5977 30.6726 93.5977 33.1068C93.5977 35.5516 92.4567 37.0227 90.5409 37.0227Z" fill="white"/>
<path d="M68.6194 38.8748H71.2017L65.5488 23.0459H62.9339L57.2809 38.8748H59.7765L61.2195 34.6735H67.1872L68.6194 38.8748ZM64.1165 25.9199H64.301L66.5687 32.6113H61.838L64.1165 25.9199Z" fill="white"/>
<path d="M58.7928 11.1062V18.7422H61.5198C63.7705 18.7422 65.0738 17.3399 65.0738 14.9004C65.0738 12.4979 63.76 11.1062 61.5198 11.1062H58.7928ZM59.9652 12.1857H61.3889C62.954 12.1857 63.8804 13.1912 63.8804 14.9163C63.8804 16.6678 62.9697 17.6627 61.3889 17.6627H59.9652V12.1857Z" fill="white"/>
<path d="M69.0654 18.8533C70.7299 18.8533 71.7506 17.7262 71.7506 15.8582C71.7506 14.0008 70.7247 12.8684 69.0654 12.8684C67.4009 12.8684 66.375 14.0008 66.375 15.8582C66.375 17.7262 67.3957 18.8533 69.0654 18.8533ZM69.0654 17.8426C68.0866 17.8426 67.537 17.1176 67.537 15.8582C67.537 14.6094 68.0866 13.8791 69.0654 13.8791C70.039 13.8791 70.5938 14.6094 70.5938 15.8582C70.5938 17.1123 70.039 17.8426 69.0654 17.8426Z" fill="white"/>
<path d="M80.4425 12.9795H79.3171L78.3017 17.3769H78.2127L77.0403 12.9795H75.962L74.7895 17.3769H74.7058L73.6851 12.9795H72.5441L74.1143 18.7422H75.2711L76.4436 14.4982H76.5325L77.7102 18.7422H78.8775L80.4425 12.9795Z" fill="white"/>
<path d="M81.7385 18.7422H82.8638V15.3714C82.8638 14.4718 83.3925 13.9108 84.2247 13.9108C85.057 13.9108 85.4548 14.3712 85.4548 15.2973V18.7422H86.5801V15.0115C86.5801 13.641 85.8787 12.8684 84.6068 12.8684C83.7484 12.8684 83.1831 13.2547 82.9057 13.895H82.822V12.9795H81.7385V18.7422Z" fill="white"/>
<path d="M88.3524 18.7422H89.4778V10.7305H88.3524V18.7422Z" fill="white"/>
<path d="M93.7102 18.8533C95.3746 18.8533 96.3953 17.7262 96.3953 15.8582C96.3953 14.0008 95.3694 12.8684 93.7102 12.8684C92.0457 12.8684 91.0198 14.0008 91.0198 15.8582C91.0198 17.7262 92.0404 18.8533 93.7102 18.8533ZM93.7102 17.8426C92.7314 17.8426 92.1818 17.1176 92.1818 15.8582C92.1818 14.6094 92.7314 13.8791 93.7102 13.8791C94.6837 13.8791 95.2385 14.6094 95.2385 15.8582C95.2385 17.1123 94.6837 17.8426 93.7102 17.8426Z" fill="white"/>
<path d="M99.7483 17.8797C99.1359 17.8797 98.691 17.578 98.691 17.0594C98.691 16.5514 99.047 16.2815 99.8321 16.2286L101.224 16.1387V16.6202C101.224 17.3346 100.596 17.8797 99.7483 17.8797ZM99.4605 18.8375C100.209 18.8375 100.832 18.5094 101.172 17.9326H101.261V18.7422H102.345V14.8051C102.345 13.588 101.538 12.8684 100.109 12.8684C98.8166 12.8684 97.8954 13.5034 97.7803 14.4929H98.869C98.9946 14.0855 99.4291 13.8526 100.057 13.8526C100.827 13.8526 101.224 14.1966 101.224 14.8051V15.3026L99.6803 15.3925C98.3246 15.4772 97.5604 16.0752 97.5604 17.1123C97.5604 18.1654 98.3613 18.8375 99.4605 18.8375Z" fill="white"/>
<path d="M106.163 18.8375C106.949 18.8375 107.613 18.4617 107.953 17.832H108.042V18.7422H109.121V10.7305H107.995V13.895H107.912C107.603 13.26 106.943 12.8842 106.163 12.8842C104.724 12.8842 103.798 14.0378 103.798 15.8582C103.798 17.6839 104.714 18.8375 106.163 18.8375ZM106.483 13.9055C107.425 13.9055 108.016 14.6623 108.016 15.8635C108.016 17.07 107.43 17.8161 106.483 17.8161C105.53 17.8161 104.96 17.0806 104.96 15.8582C104.96 14.6464 105.535 13.9055 106.483 13.9055Z" fill="white"/>
<path d="M116.418 18.8533C118.083 18.8533 119.103 17.7262 119.103 15.8582C119.103 14.0008 118.077 12.8684 116.418 12.8684C114.754 12.8684 113.728 14.0008 113.728 15.8582C113.728 17.7262 114.749 18.8533 116.418 18.8533ZM116.418 17.8426C115.439 17.8426 114.89 17.1176 114.89 15.8582C114.89 14.6094 115.439 13.8791 116.418 13.8791C117.392 13.8791 117.947 14.6094 117.947 15.8582C117.947 17.1123 117.392 17.8426 116.418 17.8426Z" fill="white"/>
<path d="M120.593 18.7422H121.718V15.3714C121.718 14.4718 122.247 13.9108 123.079 13.9108C123.912 13.9108 124.309 14.3712 124.309 15.2973V18.7422H125.435V15.0115C125.435 13.641 124.733 12.8684 123.461 12.8684C122.603 12.8684 122.038 13.2547 121.76 13.895H121.677V12.9795H120.593V18.7422Z" fill="white"/>
<path d="M130.618 11.5454V13.006H129.712V13.9638H130.618V17.2182C130.618 18.3294 131.115 18.774 132.366 18.774C132.586 18.774 132.795 18.7475 132.978 18.7157V17.7685C132.821 17.7844 132.722 17.795 132.549 17.795C131.989 17.795 131.743 17.5304 131.743 16.9271V13.9638H132.978V13.006H131.743V11.5454H130.618Z" fill="white"/>
<path d="M134.489 18.7422H135.614V15.3767C135.614 14.5035 136.127 13.9161 137.048 13.9161C137.844 13.9161 138.268 14.3818 138.268 15.3026V18.7422H139.393V15.0221C139.393 13.6515 138.645 12.8737 137.43 12.8737C136.572 12.8737 135.97 13.26 135.693 13.9055H135.604V10.7305H134.489V18.7422Z" fill="white"/>
<path d="M143.453 13.8368C144.285 13.8368 144.83 14.4241 144.856 15.329H141.977C142.04 14.4294 142.621 13.8368 143.453 13.8368ZM144.85 17.1864C144.641 17.6362 144.175 17.8849 143.495 17.8849C142.595 17.8849 142.014 17.2446 141.977 16.2339V16.1704H146.002V15.7735C146.002 13.9638 145.044 12.8684 143.458 12.8684C141.851 12.8684 140.831 14.0378 140.831 15.8794C140.831 17.7209 141.83 18.8533 143.463 18.8533C144.767 18.8533 145.677 18.2183 145.934 17.1864H144.85Z" fill="white"/>
<path d="M45.0689 25.8835C45.0962 23.7402 46.2347 21.7122 48.0408 20.5896C46.9014 18.9444 44.993 17.9013 43.0074 17.8385C40.8897 17.6138 38.8366 19.1197 37.7575 19.1197C36.6574 19.1197 34.9959 17.8609 33.2067 17.8981C30.8745 17.9742 28.7003 19.3148 27.5657 21.3761C25.1267 25.6453 26.946 31.9197 29.2823 35.3706C30.4513 37.0604 31.8175 38.948 33.6051 38.8811C35.3543 38.8077 36.0076 37.7533 38.1192 37.7533C40.2111 37.7533 40.824 38.8811 42.6479 38.8385C44.525 38.8077 45.7076 37.1412 46.8355 35.4353C47.6754 34.2313 48.3217 32.9005 48.7505 31.4924C46.5446 30.5492 45.0715 28.3049 45.0689 25.8835Z" fill="white"/>
<path d="M41.6239 15.569C42.6473 14.3269 43.1516 12.7304 43.0295 11.1185C41.4659 11.2845 40.0215 12.04 38.9843 13.2345C37.97 14.4015 37.4421 15.97 37.5419 17.5203C39.1061 17.5366 40.6437 16.8015 41.6239 15.569Z" fill="white"/>
</svg>
