<svg viewBox="0 0 26 25" fill="none" xmlns="http://www.w3.org/2000/svg">
	<path d="M25.0045 12.5761C25.0045 15.6863 23.9964 18.4246 21.9803 20.7911C19.9641 23.1237 17.4608 24.5267 14.4702 25V16.2272H17.3936L17.948 12.5761H14.4702V10.1927C14.4702 8.90805 15.1422 8.26572 16.4863 8.26572H18.0488V5.17241C17.108 5.00338 16.1839 4.91886 15.2766 4.91886C14.3022 4.91886 13.4621 5.1048 12.7565 5.47667C12.0844 5.84855 11.5468 6.40636 11.1436 7.1501C10.7403 7.89385 10.5387 8.77282 10.5387 9.78702V12.5761H7.36333V16.2272H10.5387V25C7.54814 24.5267 5.04478 23.1237 3.02865 20.7911C1.01252 18.4246 0.00445557 15.6863 0.00445557 12.5761C0.00445557 9.09398 1.21413 6.1359 3.63349 3.70183C6.08644 1.23394 9.04343 0 12.5045 0C15.9655 0 18.9057 1.23394 21.325 3.70183C23.778 6.1359 25.0045 9.09398 25.0045 12.5761Z" />
</svg>