<svg viewBox="0 0 22 23" fill="none" xmlns="http://www.w3.org/2000/svg">
	<path d="M11.0062 2.48168C13.9457 2.48168 14.2936 2.49475 15.4495 2.54632C16.5242 2.59376 17.1039 2.77392 17.491 2.9245C18.0026 3.12253 18.3718 3.3632 18.7541 3.74551C19.1413 4.13263 19.3771 4.49775 19.5793 5.00933C19.7299 5.39645 19.91 5.98023 19.9574 7.05084C20.009 8.21152 20.0221 8.55945 20.0221 11.4948C20.0221 14.4302 20.009 14.7823 19.9574 15.9388C19.91 17.0136 19.7299 17.5932 19.5793 17.9804C19.3812 18.4919 19.1413 18.8612 18.7583 19.2435C18.3711 19.6306 18.006 19.8665 17.4951 20.0686C17.108 20.2192 16.5235 20.3994 15.4536 20.4468C14.2929 20.4984 13.945 20.5114 11.0096 20.5114C8.07422 20.5114 7.72216 20.4984 6.56561 20.4468C5.49088 20.3994 4.91122 20.2192 4.5241 20.0686C4.01252 19.8706 3.64327 19.6306 3.26028 19.2476C2.87315 18.8605 2.6373 18.4954 2.43515 17.9845C2.28456 17.5974 2.10441 17.0129 2.05696 15.943C2.00539 14.7823 1.99233 14.4344 1.99233 11.499C1.99233 8.56357 2.00539 8.21152 2.05696 7.05496C2.10441 5.98023 2.28456 5.40058 2.43515 5.01345C2.63318 4.50187 2.87384 4.13263 3.25615 3.74963C3.64327 3.36251 4.00839 3.12666 4.51997 2.9245C4.9071 2.77392 5.49088 2.59376 6.56148 2.54632C7.71735 2.49475 8.06665 2.48168 11.0062 2.48168ZM11.0062 0.500688C8.01921 0.500688 7.64584 0.513752 6.47209 0.565323C5.30316 0.616893 4.49935 0.805985 3.80349 1.0769C3.07737 1.3602 2.46265 1.73426 1.85274 2.34898C1.23802 2.95957 0.863965 3.57361 0.580671 4.29559C0.309753 4.99626 0.120661 5.79526 0.0690907 6.9642C0.0175201 8.14207 0.00445557 8.51544 0.00445557 11.5024C0.00445557 14.4894 0.0175201 14.8627 0.0690907 16.0365C0.120661 17.2054 0.309753 18.0092 0.580671 18.7051C0.864652 19.4312 1.23802 20.0459 1.85274 20.6558C2.46265 21.2657 3.07737 21.6446 3.79936 21.9238C4.50003 22.1947 5.29903 22.3838 6.46797 22.4354C7.64102 22.4869 8.01508 22.5 11.002 22.5C13.989 22.5 14.3631 22.4869 15.5361 22.4354C16.7051 22.3838 17.5089 22.1947 18.2047 21.9238C18.9267 21.6446 19.5414 21.2664 20.1514 20.6558C20.7613 20.0452 21.1401 19.4312 21.4193 18.7092C21.6902 18.0085 21.8793 17.2095 21.9309 16.0406C21.9825 14.8676 21.9955 14.4935 21.9955 11.5065C21.9955 8.51957 21.9825 8.14619 21.9309 6.97245C21.8793 5.80352 21.6902 4.9997 21.4193 4.30384C21.1484 3.57292 20.7743 2.95888 20.1603 2.34829C19.5504 1.73838 18.9357 1.35951 18.2137 1.08034C17.513 0.809423 16.714 0.620331 15.5451 0.568761C14.3679 0.513065 13.9938 0.5 11.0069 0.5L11.0062 0.500688Z" />
	<path d="M11.0061 5.85099C7.88646 5.85099 5.35469 8.38208 5.35469 11.5024C5.35469 14.6228 7.88577 17.1539 11.0061 17.1539C14.1265 17.1539 16.6576 14.6228 16.6576 11.5024C16.6576 8.38276 14.1265 5.85099 11.0061 5.85099ZM11.0061 15.1681C8.98182 15.1681 7.3405 13.5268 7.3405 11.5024C7.3405 9.47812 8.98182 7.8368 11.0061 7.8368C13.0305 7.8368 14.6718 9.47812 14.6718 11.5024C14.6718 13.5268 13.0305 15.1681 11.0061 15.1681Z" />
	<path d="M18.2004 5.62774C18.2004 6.35661 17.6097 6.94726 16.8809 6.94726C16.152 6.94726 15.5614 6.35661 15.5614 5.62774C15.5614 4.89888 16.152 4.30822 16.8809 4.30822C17.6097 4.30822 18.2004 4.89888 18.2004 5.62774Z" />
</svg>