<svg viewBox="0 0 122 66" fill="none">
<g clip-path="url(#clip0)">
<path d="M30.2173 48.7676C29.9352 50.2314 29.7942 50.9644 29.5144 52.4326L26.1953 52.9093C27.3328 46.9643 27.8878 44.012 29.023 38.1434L44.0509 36.3132C46.5101 36.0119 47.1493 37.0439 46.7285 39.1395L45.9209 43.1643C45.425 45.6377 44.3512 46.8159 41.8966 47.1554L30.2173 48.7676ZM43.2456 40.3582C43.4117 39.5285 43.1569 39.1463 42.2879 39.2565L31.8006 40.5786C31.3798 42.7394 31.1705 43.8231 30.7519 45.9952L41.2301 44.5899C42.0991 44.4752 42.5222 44.003 42.7087 43.0632C42.9226 41.9681 43.0295 41.4285 43.2456 40.3582Z" fill="#000033"/>
<path d="M66.6455 47.1037C66.873 46.0221 66.9845 45.4803 67.2097 44.4055L80.834 42.5055C81.7007 42.3863 82.1534 41.9119 82.3286 41.1069C82.3832 40.8506 82.4128 40.7202 82.4674 40.4639C82.6289 39.7196 82.39 39.3036 81.5233 39.4206L71.193 40.8079C68.7589 41.1362 68.1082 40.1333 68.5359 38.094L68.9067 36.3334C69.3367 34.3097 70.4605 33.1001 72.8992 32.8033L87.4198 31.0337C87.1923 32.0747 87.074 32.5941 86.842 33.6352L73.5362 35.3126C72.6467 35.425 72.2213 35.8747 72.0529 36.6617L71.9346 37.2126C71.7708 37.986 72.0142 38.3908 72.9037 38.2738L83.2158 36.9247C85.6727 36.6032 86.321 37.5813 85.8865 39.5622C85.7227 40.3042 85.6431 40.6865 85.4793 41.4217C85.0448 43.4049 83.921 44.6191 81.4687 44.9721L66.6455 47.1037Z" fill="#000033"/>
<path d="M86.7324 44.2189C86.9599 43.1688 87.0759 42.6449 87.3057 41.5971L100.932 39.6994C101.301 39.6753 101.651 39.5273 101.923 39.2798C102.195 39.0324 102.374 38.7005 102.429 38.339C102.486 38.0895 102.513 37.9636 102.57 37.7162C102.736 36.9944 102.5 36.592 101.631 36.7089L91.3004 38.1097C88.8663 38.438 88.2202 37.4599 88.6547 35.4947C88.8048 34.8202 88.8822 34.4694 89.0323 33.7881C89.4691 31.8252 90.5974 30.6402 93.0339 30.3546L107.554 28.5851L106.97 31.1034L93.664 32.7808C92.7745 32.8932 92.3468 33.3294 92.1739 34.0984L92.0556 34.6313C91.8873 35.3823 92.1307 35.7735 93.0202 35.6566L103.332 34.3075C105.789 33.9882 106.433 34.9303 105.992 36.8483C105.826 37.5678 105.744 37.9276 105.578 38.6471C105.136 40.5673 104.01 41.7478 101.556 42.1008L86.7324 44.2189Z" fill="#000033"/>
<path d="M63.0854 33.9927C62.9921 34.013 57.3026 34.7302 53.4581 35.2002C50.4689 35.5644 48.7559 37.2868 48.1348 40.3717C47.3568 44.2346 46.9678 46.1751 46.1943 50.0717L49.5134 49.595C49.8046 48.147 49.9502 47.423 50.2391 45.9794L61.9593 44.3605C61.6681 45.7658 61.5225 46.4696 61.2336 47.8794L64.5527 47.4027C65.3398 43.6118 65.7334 41.7253 66.5227 37.9591C67.1529 34.9618 66.0746 33.6285 63.0854 33.9927ZM50.801 43.2385C51.0285 42.0536 51.1604 41.4622 51.3993 40.2795C51.6609 38.9979 52.3638 38.2739 53.5513 38.1255L62.1959 37.0305C63.0877 36.9225 63.3584 37.633 63.1309 38.7281C62.8852 39.9018 62.7624 40.4909 62.5189 41.6691L50.801 43.2385Z" fill="#000033"/>
<path d="M6.25594 40.9091L2.76172 41.3363C1.65157 47.4454 1.10105 50.5191 0 56.7047L3.48739 56.2056C4.59072 50.0492 5.14352 46.989 6.25594 40.9091Z" fill="#000033"/>
<path d="M25.5378 38.5594L22.1891 38.9686L22.0413 38.9866L18.6926 39.3936C17.5688 45.3678 17.0092 48.3741 15.8945 54.4225L22.7192 53.4422C23.8475 47.4522 24.4072 44.4752 25.5378 38.5594Z" fill="#000033"/>
<path d="M15.0055 39.8433L13.4131 40.0366L11.4999 40.2615L9.90751 40.4526C8.79282 46.5011 8.23775 49.5455 7.12988 55.6704L12.1961 54.9419C13.3267 48.871 13.884 45.849 15.0055 39.8433Z" fill="#0056A7"/>
<path d="M54.2882 57.5861C54.3995 57.7276 54.4553 57.9041 54.4452 58.0831V58.933C54.4563 59.1148 54.4005 59.2945 54.2882 59.4389C54.2313 59.5012 54.1606 59.5497 54.0818 59.5809C54.0029 59.6121 53.9179 59.625 53.8332 59.6188C53.7649 59.6185 53.6971 59.6063 53.633 59.5828C53.5643 59.5588 53.5021 59.5196 53.451 59.4681C53.4489 59.4661 53.446 59.4649 53.4431 59.4649C53.4401 59.4649 53.4372 59.4661 53.4351 59.4681C53.4351 59.4681 53.4351 59.4681 53.4351 59.4861V60.3338C53.4346 60.3473 53.4288 60.3602 53.4192 60.3698C53.4095 60.3793 53.3965 60.385 53.3828 60.3855H52.9915C52.9847 60.3855 52.978 60.3842 52.9718 60.3816C52.9656 60.3789 52.96 60.3751 52.9553 60.3703C52.9506 60.3654 52.947 60.3597 52.9446 60.3534C52.9422 60.3472 52.9412 60.3405 52.9415 60.3338V57.4872C52.9412 57.4739 52.946 57.4611 52.9551 57.4512C52.965 57.442 52.9779 57.4364 52.9915 57.4355H53.3828C53.3896 57.4355 53.3964 57.4369 53.4026 57.4396C53.4089 57.4424 53.4145 57.4463 53.4192 57.4512C53.4244 57.4557 53.4286 57.4612 53.4313 57.4674C53.4341 57.4737 53.4354 57.4804 53.4351 57.4872V57.5367C53.4351 57.5367 53.4351 57.5502 53.4351 57.5524C53.4351 57.5547 53.4488 57.5524 53.4579 57.5367C53.5597 57.4454 53.6936 57.397 53.831 57.4018C53.9164 57.3954 54.0022 57.4087 54.0815 57.4407C54.1609 57.4727 54.2317 57.5225 54.2882 57.5861ZM53.8764 57.8964C53.8536 57.8685 53.8244 57.8464 53.7911 57.8319C53.7579 57.8174 53.7216 57.811 53.6854 57.8132C53.6502 57.8121 53.6153 57.819 53.5833 57.8335C53.5514 57.8479 53.5232 57.8694 53.5011 57.8964C53.4501 57.9601 53.4249 58.0403 53.4306 58.1213V58.8993C53.4249 58.9803 53.4501 59.0605 53.5011 59.1241C53.5234 59.1507 53.5517 59.1718 53.5836 59.1859C53.6156 59.1999 53.6504 59.2065 53.6854 59.2051C53.7213 59.2065 53.7571 59.2 53.7902 59.186C53.8233 59.172 53.8527 59.1508 53.8764 59.1241C53.9283 59.0608 53.9542 58.9806 53.9492 58.8993V58.1213C53.9542 58.04 53.9283 57.9598 53.8764 57.8964Z" fill="#000033"/>
<path d="M54.9698 59.4344C54.9018 59.37 54.8485 59.2919 54.8136 59.2054C54.7787 59.1189 54.7629 59.026 54.7673 58.933V58.0876C54.7632 57.9951 54.7794 57.9028 54.8148 57.817C54.8501 57.7312 54.9037 57.654 54.972 57.5906C55.1312 57.4696 55.3263 57.4039 55.5271 57.4039C55.7279 57.4039 55.9231 57.4696 56.0822 57.5906C56.1505 57.654 56.2042 57.7312 56.2395 57.817C56.2748 57.9028 56.291 57.9951 56.2869 58.0876V58.933C56.292 59.0261 56.2765 59.1191 56.2415 59.2057C56.2066 59.2923 56.153 59.3703 56.0845 59.4344C55.9239 59.5541 55.7282 59.6188 55.5271 59.6188C55.326 59.6188 55.1304 59.5541 54.9698 59.4344ZM55.7182 59.1129C55.7721 59.0506 55.7991 58.9698 55.7933 58.888V58.1213C55.7961 58.0433 55.7693 57.9671 55.7182 57.9077C55.6935 57.8818 55.6638 57.8611 55.6307 57.847C55.5977 57.8328 55.562 57.8256 55.526 57.8256C55.49 57.8256 55.4543 57.8328 55.4213 57.847C55.3882 57.8611 55.3585 57.8818 55.3338 57.9077C55.2811 57.9706 55.255 58.0511 55.261 58.1325V58.906C55.2557 58.9874 55.2817 59.0676 55.3338 59.1309C55.3575 59.1576 55.387 59.1787 55.42 59.1927C55.4531 59.2067 55.4889 59.2133 55.5249 59.2118C55.5626 59.2111 55.5997 59.2018 55.6332 59.1847C55.6668 59.1675 55.6958 59.143 55.7182 59.1129Z" fill="#000033"/>
<path d="M56.9179 59.5401L56.4629 57.4872V57.4692C56.4629 57.4445 56.4788 57.4332 56.5084 57.4332H56.8837C56.9179 57.4332 56.9361 57.4467 56.9383 57.4782L57.1658 58.7868V58.8003C57.1658 58.8003 57.1658 58.8003 57.1795 58.7868L57.407 57.4782C57.407 57.4467 57.4275 57.4332 57.4616 57.4332H57.7937C57.8278 57.4332 57.846 57.4467 57.8483 57.4782L58.0758 58.7913C58.0758 58.7913 58.0758 58.7913 58.0895 58.7913C58.1031 58.7913 58.0895 58.7913 58.0895 58.7913L58.3169 57.4782C58.3169 57.4467 58.3397 57.4332 58.3738 57.4332H58.7446C58.781 57.4332 58.7947 57.4512 58.7856 57.4894L58.3306 59.5333C58.33 59.5398 58.3281 59.5462 58.3251 59.552C58.322 59.5577 58.3179 59.5629 58.3128 59.5671C58.3077 59.5712 58.3018 59.5744 58.2955 59.5763C58.2892 59.5782 58.2826 59.5789 58.276 59.5783H57.8915C57.8574 59.5783 57.8392 59.5626 57.8369 59.5333L57.6095 58.3056C57.6095 58.3056 57.6094 58.2922 57.5958 58.2922C57.5821 58.2922 57.5958 58.2922 57.5958 58.3056L57.3683 59.5333C57.3683 59.5626 57.3478 59.5783 57.3137 59.5783H56.9429C56.936 59.5742 56.9302 59.5687 56.9259 59.5621C56.9216 59.5554 56.9188 59.5479 56.9179 59.5401Z" fill="#000033"/>
<path d="M60.4982 58.6745C60.4938 58.6798 60.4883 58.684 60.4819 58.6867C60.4756 58.6894 60.4687 58.6906 60.4618 58.6902H59.5222C59.5195 58.6898 59.5166 58.6901 59.514 58.691C59.5113 58.6919 59.5089 58.6933 59.5069 58.6953C59.5049 58.6973 59.5035 58.6997 59.5026 58.7023C59.5017 58.7049 59.5014 58.7077 59.5018 58.7104V58.8993C59.4959 58.9803 59.5211 59.0606 59.5723 59.1242C59.5949 59.1518 59.6238 59.1737 59.6566 59.1882C59.6894 59.2026 59.7252 59.2092 59.7611 59.2073C59.8228 59.2081 59.8827 59.1865 59.9294 59.1466C59.9764 59.1054 60.0084 59.0501 60.0204 58.9892C60.0227 58.9767 60.0294 58.9655 60.0395 58.9576C60.0496 58.9497 60.0622 58.9458 60.075 58.9465L60.455 58.9645C60.4683 58.9646 60.4812 58.9694 60.4913 58.978C60.4942 58.9844 60.4957 58.9913 60.4957 58.9982C60.4957 59.0052 60.4942 59.0121 60.4913 59.0185C60.4872 59.1038 60.466 59.1876 60.4289 59.2648C60.3918 59.342 60.3396 59.4111 60.2752 59.4682C60.1159 59.5749 59.9268 59.6299 59.7344 59.6254C59.5419 59.621 59.3557 59.5574 59.2015 59.4434C59.1329 59.3799 59.0793 59.3023 59.0443 59.216C59.0093 59.1298 58.9939 59.037 58.999 58.9443V58.0899C58.9947 57.9982 59.0106 57.9067 59.0455 57.8217C59.0805 57.7366 59.1337 57.6601 59.2015 57.5974C59.3584 57.4753 59.5523 57.4088 59.752 57.4088C59.9517 57.4088 60.1457 57.4753 60.3025 57.5974C60.3698 57.6605 60.4227 57.7371 60.4577 57.822C60.4926 57.9069 60.5087 57.9983 60.505 58.0899V58.6452C60.5064 58.6555 60.5039 58.6659 60.4982 58.6745ZM59.5723 57.9077C59.5236 57.9682 59.4985 58.0441 59.5018 58.1213V58.3125C59.5014 58.3152 59.5017 58.318 59.5026 58.3206C59.5035 58.3232 59.5049 58.3256 59.5069 58.3276C59.5089 58.3295 59.5113 58.331 59.514 58.3319C59.5166 58.3328 59.5195 58.3331 59.5222 58.3327H60.0023C60.0182 58.3327 60.025 58.3327 60.025 58.3125V58.1213C60.0309 58.0399 60.0048 57.9594 59.9522 57.8965C59.9285 57.8698 59.899 57.8486 59.8659 57.8346C59.8329 57.8206 59.7971 57.8141 59.7611 57.8155C59.7229 57.8132 59.6848 57.8205 59.6502 57.8366C59.6156 57.8527 59.5857 57.8772 59.5632 57.9077H59.5723Z" fill="#000033"/>
<path d="M61.9227 57.4467C61.9335 57.4528 61.9419 57.4624 61.9464 57.4739C61.951 57.4853 61.9514 57.498 61.9477 57.5097L61.8795 57.9009C61.8795 57.9347 61.8567 57.9437 61.8203 57.9302C61.785 57.9191 61.7482 57.913 61.7111 57.9122C61.6788 57.9119 61.6466 57.9165 61.6156 57.9257C61.5754 57.9321 61.5372 57.9474 61.5037 57.9703C61.4702 57.9933 61.4424 58.0234 61.4222 58.0583C61.3704 58.1413 61.3443 58.2374 61.3471 58.3349V59.5244C61.3475 59.5309 61.3464 59.5375 61.344 59.5437C61.3416 59.5498 61.3379 59.5554 61.3332 59.56C61.3285 59.5647 61.3228 59.5683 61.3166 59.5707C61.3104 59.5731 61.3038 59.5741 61.2971 59.5738H60.9058C60.8924 59.5741 60.8794 59.5693 60.8694 59.5603C60.8597 59.5507 60.8541 59.5379 60.8535 59.5244V57.4805C60.8541 57.4669 60.8598 57.4541 60.8695 57.4445C60.8791 57.4349 60.8921 57.4293 60.9058 57.4288H61.2971C61.3108 57.4293 61.3238 57.4349 61.3335 57.4445C61.3426 57.4543 61.3474 57.4672 61.3471 57.4805V57.6716V57.6896C61.3471 57.6896 61.3472 57.6896 61.3608 57.6761C61.3849 57.5964 61.4345 57.5266 61.5022 57.4771C61.5699 57.4276 61.652 57.4012 61.7362 57.4018C61.8016 57.3968 61.8669 57.4126 61.9227 57.4467Z" fill="#000033"/>
<path d="M63.6173 58.6745C63.6133 58.6796 63.6081 58.6837 63.6022 58.6864C63.5963 58.6892 63.5898 58.6905 63.5832 58.6902H62.6414C62.6386 58.6898 62.6358 58.6901 62.6331 58.691C62.6305 58.6919 62.6281 58.6933 62.6261 58.6953C62.6241 58.6973 62.6226 58.6997 62.6217 58.7023C62.6208 58.7049 62.6205 58.7077 62.6209 58.7104V58.8993C62.6145 58.9808 62.6406 59.0615 62.6937 59.1242C62.7161 59.1515 62.7446 59.1732 62.777 59.1877C62.8094 59.2021 62.8447 59.2088 62.8802 59.2073C62.9421 59.2086 63.0021 59.1869 63.0486 59.1466C63.0955 59.1054 63.1275 59.0501 63.1396 58.9892C63.1418 58.9767 63.1486 58.9655 63.1587 58.9576C63.1687 58.9497 63.1814 58.9458 63.1942 58.9465L63.5741 58.9645C63.5875 58.9646 63.6004 58.9694 63.6105 58.978C63.6139 58.9842 63.6156 58.9912 63.6156 58.9982C63.6156 59.0053 63.6139 59.0123 63.6105 59.0185C63.6064 59.1038 63.5852 59.1876 63.5481 59.2648C63.511 59.342 63.4587 59.4111 63.3944 59.4682C63.235 59.5749 63.046 59.6299 62.8535 59.6254C62.6611 59.621 62.4748 59.5574 62.3206 59.4434C62.2521 59.3799 62.1984 59.3023 62.1634 59.216C62.1284 59.1298 62.113 59.037 62.1182 58.9443V58.0899C62.1138 57.9982 62.1297 57.9067 62.1647 57.8217C62.1996 57.7366 62.2528 57.6601 62.3206 57.5974C62.4775 57.4753 62.6714 57.4088 62.8712 57.4088C63.0709 57.4088 63.2648 57.4753 63.4217 57.5974C63.489 57.6605 63.5419 57.7371 63.5768 57.822C63.6117 57.9069 63.6279 57.9983 63.6241 58.0899V58.6452C63.6255 58.6555 63.6231 58.6659 63.6173 58.6745ZM62.6937 57.9077C62.6432 57.9674 62.6172 58.0436 62.6209 58.1213V58.3125C62.6205 58.3152 62.6208 58.318 62.6217 58.3206C62.6226 58.3232 62.6241 58.3256 62.6261 58.3276C62.6281 58.3295 62.6305 58.331 62.6331 58.3319C62.6358 58.3328 62.6386 58.3331 62.6414 58.3327H63.1214C63.1373 58.3327 63.1441 58.3327 63.1441 58.3125V58.1213C63.1501 58.0399 63.124 57.9594 63.0714 57.8965C63.0476 57.8698 63.0181 57.8486 62.9851 57.8346C62.952 57.8206 62.9162 57.8141 62.8802 57.8155C62.844 57.8151 62.8081 57.8232 62.7757 57.8393C62.7432 57.8553 62.7151 57.8788 62.6937 57.9077Z" fill="#000033"/>
<path d="M64.9639 56.6553C64.9686 56.6507 64.9743 56.647 64.9806 56.6447C64.9869 56.6424 64.9936 56.6414 65.0003 56.6418H65.3915C65.3982 56.6415 65.4048 56.6425 65.4111 56.6449C65.4173 56.6473 65.4229 56.6509 65.4276 56.6556C65.4324 56.6602 65.436 56.6658 65.4384 56.672C65.4408 56.6781 65.4419 56.6847 65.4416 56.6913V59.5356C65.4419 59.5422 65.4408 59.5488 65.4384 59.5549C65.436 59.5611 65.4324 59.5666 65.4276 59.5713C65.4229 59.576 65.4173 59.5796 65.4111 59.582C65.4048 59.5843 65.3982 59.5854 65.3915 59.5851H65.0003C64.9935 59.5854 64.9868 59.5843 64.9804 59.582C64.9741 59.5796 64.9683 59.576 64.9634 59.5714C64.9585 59.5668 64.9546 59.5612 64.952 59.5551C64.9493 59.5489 64.9479 59.5423 64.948 59.5356V59.4839C64.9494 59.4815 64.9501 59.4788 64.9501 59.476C64.9501 59.4733 64.9494 59.4705 64.948 59.4682C64.9458 59.4661 64.943 59.4649 64.94 59.4649C64.937 59.4649 64.9341 59.4661 64.932 59.4682C64.8812 59.5163 64.8213 59.5539 64.7557 59.579C64.6901 59.6041 64.6202 59.6161 64.5498 59.6143C64.4647 59.6209 64.3792 59.6076 64.3002 59.5756C64.2212 59.5436 64.1508 59.4937 64.0949 59.4299C63.9839 59.2883 63.9282 59.1119 63.9379 58.933V58.0786C63.9268 57.8985 63.9835 57.7207 64.0971 57.5794C64.1522 57.5183 64.2205 57.4703 64.2968 57.4388C64.3732 57.4072 64.4558 57.3931 64.5385 57.3973C64.606 57.3985 64.6728 57.4107 64.7364 57.4333C64.8058 57.4583 64.8687 57.4983 64.9207 57.5502C64.9231 57.5516 64.9258 57.5523 64.9286 57.5523C64.9314 57.5523 64.9341 57.5516 64.9366 57.5502C64.9382 57.5475 64.939 57.5444 64.939 57.5412C64.939 57.538 64.9382 57.5349 64.9366 57.5322V56.6823C64.939 56.6762 64.9426 56.6706 64.9473 56.6659C64.952 56.6613 64.9577 56.6577 64.9639 56.6553ZM64.8638 59.1286C64.9108 59.0819 64.9404 59.0209 64.948 58.9555V58.0561C64.9404 57.9907 64.9108 57.9297 64.8638 57.883C64.8415 57.861 64.8148 57.8439 64.7854 57.8327C64.756 57.8215 64.7246 57.8164 64.6932 57.8178C64.6572 57.8163 64.6214 57.8228 64.5883 57.8368C64.5553 57.8508 64.5258 57.872 64.5021 57.8987C64.4755 57.9296 64.4553 57.9653 64.4428 58.0039C64.4303 58.0425 64.4257 58.0832 64.4293 58.1236V58.9015C64.4231 58.983 64.4492 59.0636 64.5021 59.1264C64.5258 59.1531 64.5553 59.1743 64.5883 59.1883C64.6214 59.2023 64.6572 59.2088 64.6932 59.2073C64.7253 59.2076 64.7571 59.2011 64.7865 59.1883C64.8159 59.1755 64.8423 59.1567 64.8638 59.1331V59.1286Z" fill="#000033"/>
<path d="M68.0287 57.5839C68.1414 57.7256 68.198 57.9031 68.188 58.0831V58.9375C68.1981 59.1168 68.1414 59.2935 68.0287 59.4344C67.9743 59.4964 67.9062 59.5453 67.8297 59.5772C67.7532 59.6092 67.6703 59.6234 67.5874 59.6188C67.5171 59.6208 67.447 59.609 67.3814 59.5839C67.3158 59.5588 67.2558 59.5209 67.2052 59.4726C67.2025 59.4708 67.1994 59.4698 67.1961 59.4698C67.1929 59.4698 67.1897 59.4708 67.187 59.4726C67.1858 59.4751 67.1852 59.4778 67.1852 59.4805C67.1852 59.4832 67.1858 59.4859 67.187 59.4884V59.5401C67.1874 59.5467 67.1863 59.5532 67.1839 59.5594C67.1815 59.5655 67.1778 59.5711 67.1731 59.5758C67.1684 59.5804 67.1627 59.5841 67.1565 59.5864C67.1503 59.5888 67.1436 59.5899 67.137 59.5895H66.7457C66.7389 59.5898 66.7322 59.5888 66.7259 59.5864C66.7195 59.5841 66.7137 59.5805 66.7088 59.5759C66.7039 59.5712 66.7 59.5657 66.6974 59.5595C66.6947 59.5534 66.6934 59.5468 66.6934 59.5401V56.6912C66.6934 56.6846 66.6947 56.6779 66.6974 56.6718C66.7 56.6656 66.7039 56.6601 66.7088 56.6554C66.7137 56.6508 66.7195 56.6472 66.7259 56.6449C66.7322 56.6425 66.7389 56.6415 66.7457 56.6418H67.137C67.1436 56.6415 67.1503 56.6425 67.1565 56.6449C67.1627 56.6473 67.1684 56.6509 67.1731 56.6556C67.1778 56.6602 67.1815 56.6658 67.1839 56.6719C67.1863 56.6781 67.1874 56.6847 67.187 56.6912V57.5412C67.1856 57.5436 67.1849 57.5463 67.1849 57.549C67.1849 57.5518 67.1856 57.5545 67.187 57.5569C67.1918 57.5563 67.1964 57.5546 67.2004 57.5518C67.2044 57.5491 67.2076 57.5454 67.2098 57.5412C67.2626 57.4941 67.3245 57.4582 67.3918 57.4355C67.4539 57.4136 67.5192 57.4022 67.5851 57.4018C67.6682 57.3973 67.7511 57.4114 67.8279 57.4429C67.9047 57.4745 67.9733 57.5226 68.0287 57.5839ZM67.6261 57.9054C67.602 57.8791 67.5725 57.8582 67.5395 57.8442C67.5065 57.8302 67.4709 57.8235 67.435 57.8245C67.4035 57.8231 67.3721 57.8282 67.3428 57.8394C67.3134 57.8506 67.2867 57.8677 67.2644 57.8897C67.2167 57.9362 67.1862 57.9971 67.1779 58.0628V58.9622C67.1862 59.0279 67.2167 59.0889 67.2644 59.1353C67.2867 59.1573 67.3134 59.1744 67.3428 59.1856C67.3721 59.1969 67.4035 59.2019 67.435 59.2005C67.4709 59.2015 67.5065 59.1948 67.5395 59.1808C67.5725 59.1669 67.602 59.146 67.6261 59.1196C67.6771 59.056 67.7023 58.9758 67.6966 58.8948V58.1213C67.7034 58.0401 67.6781 57.9595 67.6261 57.8964V57.9054Z" fill="#000033"/>
<path d="M68.4771 60.408C68.4734 60.3963 68.4734 60.3837 68.4771 60.372V60.0684C68.4769 60.0622 68.478 60.056 68.4803 60.0502C68.4827 60.0444 68.4862 60.0391 68.4907 60.0347C68.4939 60.0298 68.4983 60.0258 68.5034 60.023C68.5086 60.0202 68.5144 60.0189 68.5203 60.019C68.5977 60.0198 68.6746 60.0076 68.7478 59.983C68.805 59.9602 68.8514 59.9168 68.8775 59.8616C68.9163 59.7786 68.9402 59.6896 68.948 59.5985V59.5738L68.4111 57.4872V57.4692C68.4111 57.4445 68.427 57.4332 68.4589 57.4332H68.8752C68.9093 57.4332 68.9275 57.4467 68.9321 57.4782L69.1914 58.87V58.8835C69.1914 58.8835 69.1914 58.8835 69.2051 58.87L69.4553 57.4782C69.4553 57.4467 69.4781 57.4332 69.5122 57.4332H69.933C69.9717 57.4332 69.9876 57.4512 69.9785 57.4894L69.4098 59.6974C69.3725 59.8539 69.3152 60.005 69.2392 60.1471C69.1823 60.2435 69.0941 60.318 68.989 60.3585C68.842 60.4047 68.6882 60.426 68.534 60.4215H68.5112C68.5112 60.4215 68.4817 60.417 68.4771 60.408Z" fill="#000033"/>
<path d="M80.4941 52.8913C81.5542 53.3297 82.0319 54.2741 82.0092 55.3534H81.9887C81.9568 56.8599 80.9718 58.1055 79.964 58.915C78.7152 59.8932 77.2215 60.5187 75.6418 60.725C75.1754 62.3953 75.0136 64.1343 75.164 65.8606C75.1671 65.8805 75.1639 65.9008 75.155 65.9189C75.146 65.937 75.1317 65.9519 75.114 65.9618C75.0979 65.9757 75.0791 65.9862 75.0588 65.9928C75.0384 65.9993 75.017 66.0018 74.9957 66C70.6211 65.955 74.295 58.1842 76.5699 55.0363C72.2385 57.0757 73.3578 58.6856 73.3032 58.6856C70.8099 58.589 72.0861 55.1668 75.3983 53.4984C76.2823 53.0585 77.2367 52.7732 78.2192 52.6552C78.9855 52.5424 79.7682 52.6236 80.4941 52.8913Z" fill="#000033"/>
<path d="M83.8923 55.7301C83.7334 55.8855 83.5241 55.9806 83.3013 55.9987C83.1988 56.0015 83.0969 55.9817 83.003 55.9409C82.9092 55.9001 82.8256 55.8392 82.7584 55.7627C82.6912 55.6861 82.6419 55.5958 82.6143 55.4982C82.5866 55.4006 82.5812 55.2982 82.5984 55.1982C82.6211 54.98 82.7205 54.7766 82.8792 54.6234C83.038 54.4702 83.2461 54.3768 83.4673 54.3595C83.5693 54.355 83.671 54.3732 83.765 54.4127C83.8589 54.4522 83.9427 54.512 84.0101 54.5877C84.0776 54.6634 84.127 54.7531 84.1547 54.8502C84.1824 54.9473 84.1878 55.0494 84.1703 55.1488C84.1497 55.3688 84.0512 55.5746 83.8923 55.7301Z" fill="#000033"/>
<path d="M86.2245 59.6615C86.0493 59.7312 85.7536 59.6997 85.7081 59.4906L85.7286 59.5063C85.6262 59.0746 86.1403 58.0403 86.5362 57.1409C86.7159 56.734 86.9957 56.0774 87.1982 55.4658C87.6258 55.3624 88.5153 55.1847 89.1205 55.3152C89.2911 55.1173 89.4708 54.9239 89.6619 54.7395C89.6471 54.7086 89.6303 54.6786 89.6118 54.6496C89.3002 54.1707 88.6359 54.119 88.1127 54.1459C87.9216 54.1572 87.6236 54.1797 87.4143 54.2134C87.4009 53.9951 87.326 53.7848 87.1982 53.6063C87.1191 53.5143 87.0217 53.4393 86.9122 53.386C86.8026 53.3326 86.6832 53.302 86.5612 53.296C86.3486 53.278 86.1373 53.3426 85.972 53.4759C85.9134 53.5225 85.858 53.5729 85.8059 53.6265V53.64C85.9293 53.7386 86.0248 53.867 86.0834 54.0127C86.142 54.1584 86.1616 54.3166 86.1403 54.472C85.9674 54.5169 85.8173 54.5709 85.6603 54.6046C85.5369 54.6372 85.4081 54.6451 85.2815 54.6277C85.1549 54.6103 85.0331 54.5681 84.9233 54.5034L84.7595 54.4045C84.7253 54.3782 84.686 54.3592 84.644 54.3487C84.6021 54.3381 84.5583 54.3363 84.5156 54.3432C84.4729 54.3502 84.432 54.3658 84.3957 54.3892C84.3594 54.4125 84.3283 54.443 84.3045 54.4787C84.3942 54.609 84.4509 54.7588 84.4699 54.9153C84.4889 55.0718 84.4697 55.2305 84.4137 55.3781C84.805 55.7626 85.1189 55.9695 85.7013 55.8391C85.2259 56.9228 84.6617 58.3146 83.9383 59.2253C83.6221 59.6188 83.2763 59.9673 82.9919 59.9673C81.9068 60.001 83.2103 57.7907 83.5879 57.1162C83.7062 56.8329 83.6471 56.6463 83.3604 56.5226C83.115 56.4217 82.8527 56.3668 82.587 56.3607C82.5219 56.3585 82.4579 56.3773 82.4045 56.4142C82.3512 56.4511 82.3114 56.5041 82.2912 56.5653C81.6884 58.0785 81.3767 58.6946 81.0764 59.8189C80.9718 60.2169 80.8944 60.725 81.1083 61.1028C81.166 61.2064 81.245 61.2969 81.3402 61.3686C81.4354 61.4402 81.5447 61.4914 81.6611 61.5187C82.0485 61.5818 82.4454 61.4922 82.7667 61.2692C83.3077 60.8769 83.7576 60.3747 84.0861 59.7964C83.9985 60.1404 84.0143 60.5022 84.1316 60.8374C84.1893 60.9735 84.2867 61.0893 84.4114 61.1702C84.7481 61.3883 85.2895 61.3591 85.6581 61.2264C86.0888 61.0559 86.4669 60.7768 86.7546 60.417C87.1192 59.9794 87.4159 59.4906 87.635 58.9667C87.7738 58.6604 87.8835 58.342 87.9625 58.0156C87.9671 57.9864 87.9239 57.9639 87.9079 57.9864C87.8192 58.1213 87.7214 58.2562 87.6213 58.3821C87.3618 58.7026 87.0782 59.0033 86.7728 59.2815C86.6114 59.4359 86.4263 59.5641 86.2245 59.6615Z" fill="#000033"/>
<path d="M104.59 56.8104C104.676 56.4461 104.74 56.0684 104.817 55.7716L104.815 55.7559C104.901 55.4478 105.056 54.7778 105.27 54.5799C105.402 54.4759 105.568 54.4238 105.736 54.4337C106.109 54.4158 106.803 54.5012 106.489 55.0701C106.175 55.6389 106.005 56.3697 105.777 57.0442C105.727 57.1994 105.677 57.3613 105.625 57.5322L105.334 58.5687C105.204 59.0454 105.072 59.5401 104.935 60.0257C104.756 60.6621 104.317 61.6874 103.846 62.1371C103.332 62.6273 102.673 62.9424 101.964 63.0365C99.5349 63.2816 99.3711 60.7902 101.737 60.5092H101.812C101.837 60.5114 101.864 60.5384 101.837 60.5676L101.821 60.5879L101.78 60.6261L101.764 60.6418C101.12 61.2871 101.446 61.829 101.992 61.7661C102.476 61.7458 102.909 61.4648 103.273 60.8667C103.49 60.4692 103.678 60.0566 103.834 59.6323C103.886 59.4839 103.936 59.3265 103.985 59.1601C103.782 59.5153 103.209 59.7784 102.847 59.8144C102.146 59.8863 101.771 59.4996 101.771 58.7981C101.514 59.2357 101.146 59.5998 100.704 59.8549C100.482 59.9607 100.232 59.9983 99.9876 59.9628C99.4757 59.8908 99.2824 59.4636 99.3051 58.8858C99.0956 59.2655 98.8181 59.6045 98.4862 59.8863C97.9311 60.3225 97.0075 60.4889 96.7391 59.648C96.5912 59.1826 96.6412 58.5013 96.8687 57.8132C95.9064 59.0926 94.1957 60.2124 91.7798 60.5586C91.3371 62.1341 91.1831 63.7751 91.3248 65.4041C91.3278 65.4232 91.3248 65.4426 91.3162 65.4599C91.3077 65.4771 91.294 65.4914 91.2771 65.5008C91.2619 65.5139 91.2442 65.5238 91.225 65.53C91.2059 65.5362 91.1857 65.5385 91.1656 65.5368C87.0389 65.4918 90.499 58.1595 92.6511 55.1937C88.5654 57.1162 89.6187 58.6339 89.5686 58.6339C87.2232 58.544 88.4198 55.3152 91.5455 53.7412C92.3799 53.327 93.2803 53.0577 94.2071 52.9452C94.9269 52.8407 95.6618 52.9181 96.3432 53.1701C97.6103 53.6985 98.0244 54.9531 97.6354 56.3022C98.0585 55.7401 98.6045 55.3264 99.2278 55.2634C99.3915 55.2294 99.5613 55.2377 99.7208 55.2878C99.8803 55.3378 100.024 55.4278 100.138 55.549L100.165 55.4343C100.199 55.2904 100.251 55.1645 100.408 55.1443C100.43 55.1409 100.453 55.1409 100.474 55.1443C100.667 55.1513 100.859 55.1799 101.045 55.2297C101.112 55.2496 101.174 55.2831 101.227 55.328C101.28 55.373 101.322 55.4284 101.352 55.4908C101.382 55.5531 101.398 55.6209 101.4 55.6898C101.401 55.7587 101.388 55.8272 101.362 55.8908C101.093 56.5383 100.088 58.6609 101.066 58.562C101.302 58.4938 101.505 58.3447 101.639 58.1415C101.712 58.0493 101.792 57.9369 101.867 57.8245C101.901 57.6446 101.944 57.4535 101.994 57.2489C102.112 56.8104 102.262 56.3135 102.449 55.7649C102.522 55.549 102.599 55.2544 102.692 55.0566C102.704 55.0121 102.729 54.9721 102.764 54.942C102.798 54.9118 102.842 54.893 102.888 54.8879C103.085 54.871 103.283 54.894 103.47 54.9554C103.553 54.9715 103.63 55.0071 103.695 55.0592C103.761 55.1113 103.812 55.1783 103.846 55.2544C103.887 55.3432 103.896 55.4433 103.871 55.5378C103.831 55.6632 103.783 55.7857 103.725 55.9043C103.359 56.7295 102.629 58.4113 103.498 58.3236C103.737 58.3012 104.026 58.0291 104.21 57.7435C104.386 57.4546 104.514 57.1396 104.59 56.8104Z" fill="#000033"/>
<path d="M106.881 54.3146V54.6946H107.017V54.3146H107.131V54.1977H106.769V54.3146H106.881Z" fill="#000033"/>
<path fill-rule="evenodd" clip-rule="evenodd" d="M106.465 41.9164L106.462 40.8349H106.142V40.4999H107.174V40.8349H106.854V41.9164H106.465Z" fill="#000033"/>
<path fill-rule="evenodd" clip-rule="evenodd" d="M109.008 41.9142H108.644L108.56 41.3026C108.56 41.2599 108.548 41.2104 108.542 41.1587C108.535 41.107 108.542 41.0485 108.542 40.9855C108.527 41.0614 108.509 41.1364 108.487 41.2104C108.482 41.2236 108.477 41.2371 108.473 41.2509L108.28 41.9142H108.018L107.823 41.2509V41.2104C107.798 41.1371 107.78 41.0619 107.768 40.9855L107.754 41.1452C107.754 41.1991 107.754 41.2509 107.736 41.3026L107.652 41.9142H107.288L107.516 40.4999H107.902L108.13 41.2284V41.2531C108.147 41.3082 108.16 41.3646 108.168 41.4217C108.171 41.3937 108.176 41.3659 108.182 41.3385C108.182 41.3071 108.198 41.2711 108.212 41.2261L108.439 40.4976H108.826L109.008 41.9142Z" fill="#000033"/>
<path d="M64.7406 28.5154C64.0149 25.6283 63.4758 23.49 62.625 20.1015L62.5977 19.9869L62.6227 19.8722C63.6418 15.3752 64.1423 13.1694 65.1728 8.68369C65.7711 5.9158 66.9632 4.13949 71.0534 3.85168L86.4362 2.68921C86.9208 2.65323 87.3871 2.633 87.8171 2.633C90.208 2.633 91.8254 3.19962 92.7672 4.36209C93.8683 5.72692 94.0161 7.82926 93.2472 11.184C91.8072 17.4685 88.8954 20.7536 84.3479 21.228C84.1954 21.2438 84.0453 21.255 83.8929 21.2618C84.6618 22.06 85.9539 23.3776 87.1391 24.5895C88.1082 25.5789 89.1069 26.5974 89.9418 27.4564L90.6425 28.1759L89.637 28.2928C87.5896 28.5334 86.0358 28.7268 84.5299 28.9134C83.0239 29.1 81.4587 29.2956 79.4023 29.5362L79.0929 29.5722L78.9223 29.3159C78.0737 28.0387 77.2252 26.6784 76.404 25.363C75.6487 24.1511 74.8661 22.8897 74.0858 21.7115L74.0677 21.6845C73.4785 20.6502 72.9302 19.6743 73.7355 17.862C74.4612 16.2386 76.0514 15.4112 79.0542 15.0919L79.1953 15.0784C79.2248 15.0784 79.2544 15.0784 79.3636 15.0604C81.6385 14.8356 82.4188 14.2127 82.8601 12.2475C83.0466 11.4089 83.0421 10.8805 82.8419 10.6354C82.6713 10.424 82.2573 10.3206 81.5816 10.3206C81.3336 10.3206 81.0516 10.3341 80.7194 10.3633L76.3107 10.7411C75.2984 10.8265 74.7842 11.2447 74.5886 12.1329L74.5681 12.2318C73.0462 19.1617 72.2068 22.9774 70.653 30.2625L70.578 30.6132L70.2163 30.6537L69.552 30.7369C68.642 30.8538 67.1384 31.0472 65.8599 31.1866L65.4231 31.2338L64.7406 28.5154Z" fill="#000033"/>
<path d="M82.8057 20.8278C83.2994 20.7761 83.8021 20.7851 84.2958 20.7334C90.0512 20.133 91.9326 14.6624 92.7584 11.0649C93.9936 5.66847 93.0746 2.67573 86.4751 3.17489L71.09 4.33961C67.291 4.60493 66.2286 6.16763 65.6644 8.78488C64.6407 13.2346 64.1311 15.4719 63.1143 19.9711C64.1744 24.1938 64.7476 26.4738 65.8054 30.6762C67.5821 30.4806 69.8593 30.177 70.1619 30.1433C71.7247 22.8222 72.5437 19.0942 74.0997 12.0092C74.3431 10.9007 75.0347 10.3341 76.2699 10.2284L80.6787 9.84842C83.1515 9.63706 83.843 10.1452 83.3517 12.3352C82.8603 14.5253 81.8844 15.301 79.4138 15.5371C79.2159 15.5551 79.3069 15.5506 79.1113 15.5686C76.2222 15.8744 74.8254 16.6389 74.1975 18.0419C73.4877 19.6294 73.9336 20.4231 74.5092 21.4282C76.138 23.9015 77.719 26.5862 79.3456 29.0303C83.4404 28.5514 85.4878 28.2681 89.5826 27.7891C86.9801 25.1269 82.7921 20.8863 82.8057 20.8278Z" fill="#0056A7"/>
<path d="M2.91843 38.1614C4.6519 28.7605 6.53551 18.6602 8.37817 8.95125L8.4487 8.57575L18.8108 7.79327L18.6879 8.43184C16.9295 17.4595 15.1596 26.8695 13.4557 35.9646L13.1463 37.6038L12.7778 37.6465C10.9283 37.8714 9.53608 38.0287 8.14612 38.1929L3.48715 38.7438L2.80469 38.8225L2.91843 38.1614Z" fill="#000033"/>
<path d="M3.41895 38.2514C7.12929 37.8174 8.99927 37.5768 12.7096 37.1541C14.4908 27.6879 16.3494 17.7923 18.1921 8.3374L8.86504 9.04118C7.05878 18.6243 5.19336 28.666 3.41895 38.2514Z" fill="#0056A7"/>
<path d="M98.2521 26.5749C99.9446 19.1796 100.8 15.4943 102.452 8.48802L94.9854 9.12884L95.1378 8.45429C95.7133 5.96971 96.0022 4.73079 96.5801 2.26195L96.6642 1.90668L121.997 -0.0090332L121.834 0.665515C121.244 3.03543 120.951 4.22488 120.364 6.61053L120.28 6.9568L112.814 7.59762C111.101 14.6961 110.241 18.3229 108.512 25.7115L108.432 26.051L98.0951 27.2607L98.2521 26.5749Z" fill="#000033"/>
<path d="M121.345 0.559875L97.0699 2.39465C96.4921 4.86799 96.2054 6.10016 95.6299 8.58475L103.098 7.94617C101.347 15.3662 100.478 19.1167 98.7442 26.6964L108.023 25.6103C109.768 18.1453 110.646 14.4533 112.409 7.14571L119.878 6.50489C120.463 4.10575 120.758 2.91854 121.345 0.559875Z" fill="#0056A7"/>
<path d="M24.7759 35.8949C21.9983 31.7262 20.4673 29.4103 17.9513 25.5676C16.2906 22.9189 16.5295 21.1021 18.8976 18.3522C22.8377 13.7945 24.7646 11.6067 28.7138 7.18616L28.848 7.03552L41.4782 6.08215L40.4977 7.03552C37.5244 9.92258 35.2382 12.3105 32.8154 14.8355C31.223 16.4949 29.5828 18.2083 27.6423 20.1757C26.5777 21.3134 26.5708 21.6799 27.6036 22.9548C29.5191 25.3697 30.9909 27.0988 32.5515 28.9268C33.83 30.4266 35.1517 31.978 36.7555 33.9567L37.3197 34.656L36.4097 34.7617C34.376 34.9978 30.9659 35.416 28.4772 35.7218L25.2514 36.1153L24.9443 36.1512L24.7759 35.8949Z" fill="#000033"/>
<path d="M36.36 34.267C32.8499 29.9341 30.7319 27.7081 27.2104 23.2651C26.0207 21.7968 26.032 21.1628 27.2809 19.8294C32.1856 14.8625 35.218 11.465 40.1432 6.68024L32.3221 7.27159L29.0804 7.51668C25.1494 11.9125 23.1884 14.143 19.2733 18.6737C16.8915 21.4393 16.9143 22.9863 18.3634 25.2955C21.0113 29.3315 22.5514 31.6565 25.188 35.6206C26.396 35.4812 33.0865 34.6492 36.36 34.267Z" fill="#0056A7"/>
<path d="M38.5141 34.3682C36.3984 31.751 35.3679 30.4671 33.2568 27.8251L33.043 27.5553L33.2204 27.263C37.6564 19.8879 39.8176 16.351 44.2946 9.24356L44.315 9.21433C45.9689 6.96584 47.3111 5.56727 52.0019 5.21876C52.3636 5.19178 52.7185 5.17828 53.0529 5.17828C56.8269 5.17828 58.0849 6.88264 58.4739 8.31044C60.7488 17.4528 61.8863 21.997 64.1612 31.0382L64.2999 31.5846L53.4487 32.855L52.3272 27.5148L42.6202 28.5694C41.3418 30.7864 40.6729 31.9556 39.3398 34.3008L38.9736 34.9438L38.5141 34.3682ZM50.2184 15.1144C48.833 17.4011 47.9571 18.8806 46.7378 21.0054L51.1897 20.5557C51.0055 19.5349 50.7348 17.9767 50.4822 16.5939C50.389 16.0745 50.298 15.5551 50.2184 15.1144Z" fill="#000033"/>
<path d="M63.6812 31.1574C61.4063 22.1162 60.2689 17.572 57.994 8.44759C57.4503 6.45767 55.4597 5.46609 52.0429 5.72017C47.5636 6.05519 46.342 7.31435 44.7268 9.51337C40.284 16.5849 38.0705 20.187 33.6572 27.5238C35.7615 30.159 36.8125 31.4676 38.9122 34.0647C40.2771 31.6678 40.9596 30.4671 42.3245 28.1084L52.739 26.9841L52.789 27.209C53.2167 29.2506 53.4328 30.2714 53.8605 32.3108L56.3629 32.0163L63.6812 31.1574ZM50.4868 13.7181C50.6643 14.7051 51.4878 19.355 51.7858 21.0054L48.5236 21.3292L45.8279 21.5945C47.5272 18.6085 48.4736 17.0211 50.48 13.7181H50.4868Z" fill="#0056A7"/>
</g>
<defs>
<clipPath id="clip0">
<rect width="122" height="66" fill="white"/>
</clipPath>
</defs>
</svg>
