<svg viewBox="0 0 23 23" fill="none" xmlns="http://www.w3.org/2000/svg">
	<path d="M5.9062 22.5H1.33923V7.81696H5.9062V22.5ZM3.64727 5.80357C2.92703 5.80357 2.30501 5.54167 1.7812 5.01786C1.25739 4.49405 0.995483 3.87202 0.995483 3.15179C0.995483 2.43155 1.25739 1.80952 1.7812 1.28571C2.30501 0.761905 2.92703 0.5 3.64727 0.5C4.1056 0.5 4.5312 0.614583 4.92405 0.84375C5.34965 1.07292 5.67703 1.4003 5.9062 1.82589C6.1681 2.21875 6.29905 2.66071 6.29905 3.15179C6.29905 3.61012 6.1681 4.05208 5.9062 4.47768C5.67703 4.87054 5.34965 5.19792 4.92405 5.45982C4.5312 5.68899 4.1056 5.80357 3.64727 5.80357ZM22.9955 22.5H18.4285V15.3304C18.4285 14.7738 18.4121 14.3318 18.3794 14.0045C18.3467 13.6443 18.2648 13.2515 18.1339 12.8259C18.0029 12.3676 17.7574 12.0238 17.3973 11.7946C17.0699 11.5655 16.6279 11.4509 16.0714 11.4509C14.991 11.4509 14.2544 11.7946 13.8616 12.4821C13.5014 13.1696 13.3214 14.0863 13.3214 15.2321V22.5H8.75441V7.81696H13.1741V9.83036H13.2232C13.5505 9.1756 14.0907 8.61905 14.8437 8.16071C15.5967 7.66964 16.497 7.42411 17.5446 7.42411C18.6577 7.42411 19.5744 7.60417 20.2946 7.96429C21.0476 8.29167 21.6041 8.79911 21.9642 9.48661C22.3571 10.1414 22.619 10.8616 22.7499 11.6473C22.9136 12.433 22.9955 13.3661 22.9955 14.4464V22.5Z" />
</svg>