<svg viewBox="0 0 452 471" version="1.1" xmlns="http://www.w3.org/2000/svg" xmlns:xlink="http://www.w3.org/1999/xlink">
    <g id="Page-1" stroke="none" stroke-width="1" fill="none" fill-rule="evenodd">
        <g id="Artboard" transform="translate(-1746.000000, -1755.000000)" fill-rule="nonzero">
            <g id="Pit-Pay-Stacked---White---Red-OL" transform="translate(1746.000000, 1755.000000)">
                <path d="M72.1172233,230.293624 L73.0700787,229.34396 L73.0700787,228.156879 C74.9757896,209.875839 78.0725697,193.019295 82.3604192,177.587248 C108.32573,173.551174 131.670688,165.716443 152.15708,154.083054 C170.737761,143.399329 186.698089,129.629195 198.132355,114.197148 C208.851978,99.7147651 215.76018,84.045302 218.142319,68.613255 C219.809816,57.9295302 219.809816,42.2600671 210.995903,27.7776846 C206.708053,20.8926174 201.229135,15.1946309 194.559147,10.9211409 C183.363095,3.79865772 169.070264,0 151.918866,0 C141.913884,0 130.956046,1.18708054 119.759995,3.79865772 C108.802158,6.17281879 97.84432,9.4966443 87.1246964,14.0075503 C77.1197143,18.0436242 68.0675877,22.5545302 60.4447442,27.3028523 C38.5290692,40.8355705 20.4248159,58.6417785 9.7051923,77.1602349 C4.70270127,85.9446309 1.60592111,94.2541946 0.414851814,102.088926 C-0.776217479,110.161074 0.653065673,117.046141 3.98805969,122.506711 C8.51412301,129.391779 16.8516081,133.665268 27.8094456,134.377517 L32.8119366,134.614933 L31.3826534,129.866611 L31.1444396,129.154362 C30.6680119,127.49245 30.429798,125.830537 30.1915842,124.168624 C29.7151564,118.94547 30.9062257,113.484899 33.5265782,107.786913 C41.6258494,90.692953 62.1122412,73.8364094 94.9857537,57.454698 C88.3157657,67.1887584 81.4075638,78.1098993 74.4993619,90.2181208 C65.4472352,105.887584 57.347964,121.794463 49.9633344,137.701342 C43.0551325,152.895973 37.3379999,166.903523 32.8119366,180.673658 C27.8094456,195.868289 24.4744515,209.163591 22.5687407,221.509228 C18.7573189,246.912752 22.092313,265.668624 32.3355089,277.302013 C33.0501505,278.014262 33.5265782,278.72651 34.2412197,279.438758 L38.0526415,283 L39.7201385,278.014262 C40.9112078,274.690436 42.3404909,271.129195 44.007988,267.805369 C51.1544037,254.747483 60.4447442,242.16443 72.1172233,230.293624 L72.1172233,230.293624 Z M142.152098,57.9295302 C143.581381,56.0302013 143.819595,53.6560403 143.104953,51.5192953 C142.390312,49.3825503 140.722815,47.7206376 138.57889,47.0083893 C135.958537,46.0587248 133.576399,45.3464765 130.956046,44.6342282 C135.958537,43.6845638 140.961028,42.9723154 145.963519,42.4974832 C148.107444,42.2600671 150.013155,42.2600671 151.918866,42.2600671 C166.449911,42.2600671 175.502038,47.0083893 180.028101,56.5050336 C182.886668,62.6778523 182.172026,70.5125839 177.645963,79.534396 C170.737761,93.0671141 158.827068,106.125 144.296022,116.096477 C129.764977,126.305369 114.281076,132.003356 98.5589616,133.665268 C109.755013,107.549497 124.524272,82.1459732 142.152098,57.9295302 L142.152098,57.9295302 Z" id="Shape" fill="#AE3B33"></path>
                <path d="M247.028252,75 L247.734466,75 C258.32767,74.7643678 267.979256,65.3390805 268.920874,54.0287356 C269.391683,48.6091954 267.743851,43.1896552 264.448188,39.4195402 C261.152524,35.8850575 256.915243,34 251.971748,34 L251.265534,34 C240.67233,34.2356322 231.256149,43.6609195 230.079126,54.7356322 C229.608317,60.3908046 231.256149,65.5747126 234.551812,69.5804598 C237.612071,73.1149425 242.084757,75 247.028252,75 L247.028252,75 Z" id="Path" fill="#AE3B33"></path>
                <path d="M212.304772,114.657534 C209.219364,122.031133 206.371296,129.404732 203.760567,137.016189 C200.912499,144.865504 198.539109,152.476961 196.403058,160.801993 C194.267006,168.651308 193.554989,175.549191 194.267006,181.495641 L194.504345,184.11208 L196.877736,184.587796 C198.776448,185.063512 200.912499,185.30137 202.573872,186.014944 C211.830094,188.631382 219.89962,193.150685 226.307773,199.334994 L227.969147,201 L230.105198,200.048568 C243.870861,194.339975 255.737811,180.068493 263.33266,168.889166 C262.857982,175.549191 263.569999,180.782067 265.468711,185.30137 C267.130084,188.86924 269.503474,191.723537 272.588881,193.626401 C276.623645,196.242839 281.845103,197.669988 288.015917,197.669988 C293.000037,197.669988 297.984156,196.718555 302.493597,195.291407 C311.51248,191.961395 320.056684,185.539228 327.888872,176.262765 C335.48372,167.224159 342.603891,155.569116 348.062688,142.724782 C349.486722,139.156912 350.910756,135.589041 352.097452,132.259029 C352.809469,130.118306 353.758825,127.739726 354.233503,125.599004 C355.657537,120.128269 350.910756,118.701121 348.062688,122.268991 C346.875993,123.933998 345.689298,125.599004 344.265264,127.26401 C338.331789,134.875467 331.686296,142.011208 325.278143,147.481943 C323.379431,149.146949 317.920633,153.90411 313.411192,155.806974 C312.461836,156.28269 311.275141,156.520548 310.088446,156.520548 C309.376429,156.520548 305.104327,156.28269 304.392309,153.428394 C303.442953,148.433375 306.291022,139.632628 307.477717,136.540473 C310.325785,128.215442 313.88587,119.890411 317.445955,112.041096 C317.445955,112.041096 321.480719,102.764633 322.667414,100.386052 C329.075567,86.1145704 333.585008,74.2216687 337.382433,63.0423412 C346.638654,60.9016189 356.606893,58.7608966 365.863114,58.7608966 C371.559251,58.7608966 376.54337,59.7123288 380.103455,61.377335 C382.239506,62.3287671 383.90088,63.5180573 384.850236,64.4694894 C386.511609,66.6102117 388.64766,67.7995019 390.783711,67.7995019 C392.445084,67.7995019 394.343796,67.0859278 395.293152,65.6587796 C396.479847,64.2316314 397.191864,62.0909091 396.954525,60.1880448 C396.717186,54.7173101 395.530491,46.867995 391.970406,41.6351183 C386.748948,33.3100872 376.306031,29.2665006 361.353673,29.2665006 C359.6923,29.2665006 358.030927,29.2665006 356.369554,29.5043587 C350.910756,29.7422167 346.401315,30.2179328 342.366552,30.6936488 C341.891874,26.6500623 340.46784,21.8929016 337.382433,17.8493151 C333.347669,12.6164384 326.702177,10.4757161 321.718058,10 C321.24338,10 320.531363,10 320.056684,10 C315.309904,10 310.800463,11.6650062 307.003039,14.5193026 C306.053683,15.2328767 304.866988,16.1843088 303.917631,17.373599 L301.306902,19.9900374 L304.392309,22.3686177 C309.376429,26.4122042 310.325785,33.3100872 310.325785,37.8293898 C309.13909,38.0672478 308.189734,38.5429639 307.003039,38.7808219 C304.866988,39.494396 302.968275,39.9701121 300.832224,40.4458281 C298.933512,40.9215442 297.0348,41.1594022 295.373427,41.1594022 C292.050681,41.1594022 288.727934,40.2079701 285.642527,38.3051059 C284.93051,38.0672478 284.455832,37.5915318 283.743815,37.1158157 C283.031798,36.6400996 282.55712,36.4022416 281.845103,35.9265255 C279.709052,34.7372354 278.047679,34.2615193 276.386306,34.2615193 C273.538237,34.2615193 271.402186,35.9265255 270.215491,37.1158157 L268.316779,39.01868 L269.740813,41.3972603 C272.82622,46.630137 273.538237,52.1008717 271.639525,58.5230386 L271.164847,60.4259029 L272.588881,61.8530511 C279.709052,68.988792 285.879866,73.2702366 295.136088,73.2702366 C296.560122,73.2702366 297.984156,73.2702366 299.40819,73.0323786 L297.272139,77.7895392 C293.237376,87.3038605 288.965273,97.2938979 284.455832,106.808219 C278.759696,118.938979 270.927508,134.161893 261.196609,146.768369 C250.753692,160.088418 244.582878,162.942715 241.260131,162.942715 L240.785453,162.942715 C238.412063,162.942715 236.513351,162.229141 235.326656,161.039851 C233.902622,159.612702 232.715927,156.044832 234.614639,148.195517 C236.276012,140.821918 239.598758,133.448319 242.209487,127.501868 C246.006912,119.176837 250.516353,111.327522 255.025794,103.002491 L256.449828,100.386052 C257.636523,98.007472 258.823219,94.2017435 257.399184,90.633873 C256.449828,88.0174346 254.076438,85.8767123 250.516353,84.4495641 C245.294895,82.3088418 239.598758,80.8816936 232.478588,80.6438356 L232.00391,80.6438356 C228.443825,80.6438356 225.358417,82.7845579 223.934383,86.5902864 C220.611637,95.1531756 217.051552,103.716065 213.491467,112.516812 L212.304772,114.657534 Z" id="Path" fill="#AE3B33"></path>
                <path d="M337.346799,333.396653 C339.011329,331.020084 337.822379,329.831799 336.15785,329.594142 C334.9689,329.594142 333.542161,329.831799 332.591002,330.069456 C329.261943,331.020084 324.506145,332.446025 319.512558,335.060251 C314.51897,337.674477 309.525382,341.239331 305.720744,346.467782 C303.105055,350.032636 301.440526,353.835146 300.489366,357.637657 C299.538207,361.440167 299.775997,365.480335 300.727156,369.282845 C301.678316,372.847699 303.580635,375.937238 305.958534,378.789121 C308.336433,381.641004 311.665491,383.779916 315.470129,385.443515 C317.848028,386.394142 320.463717,387.34477 323.079406,387.820084 C325.695095,388.295397 328.548573,388.533054 331.639842,388.533054 C333.779951,388.533054 336.15785,388.295397 338.535749,388.057741 C340.913648,387.820084 343.291547,387.34477 345.907235,386.631799 C353.516512,384.730544 360.650208,381.403347 367.070536,377.36318 C373.490863,373.085356 379.43561,368.094561 384.191408,362.153138 C387.996046,357.4 391.562894,350.270293 394.654163,341.952301 C397.745431,333.63431 400.12333,324.128033 401.550069,314.859414 C402.025649,311.532218 402.501229,308.205021 402.976809,304.877824 C403.452389,301.550628 403.927968,298.223431 404.403548,294.896234 C404.641338,292.757322 404.879128,290.856067 405.116918,288.717155 C405.354708,286.578243 405.592498,284.676987 406.068077,282.538075 C406.543657,278.735565 407.257027,274.933054 407.732607,271.130544 C408.208186,267.328033 408.921556,263.525523 409.397136,259.723013 C409.634926,257.821757 409.872716,256.158159 410.348295,254.256904 C410.586085,252.355649 411.061665,250.69205 411.299455,249.028452 C411.775035,247.127197 412.012825,245.225941 412.250615,243.324686 C412.488404,241.423431 412.963984,239.522176 413.201774,237.620921 L413.439564,236.670293 L413.677354,235.719665 C414.628513,230.491213 415.341883,225.262762 416.530833,220.271967 C417.719782,215.043515 418.908731,210.05272 420.811051,205.537238 C421.76221,203.398326 422,201.497071 422,199.595816 C422,197.932218 421.28663,196.268619 420.335471,195.080335 C419.146521,193.654393 417.719782,192.703766 415.579673,191.990795 C413.439564,191.277824 411.061665,190.80251 407.970397,190.80251 C406.543657,190.80251 405.116918,190.80251 403.927968,191.040167 C402.739019,191.040167 401.787859,191.277824 401.31228,191.515481 C399.88554,191.753138 397.983221,191.990795 396.080902,192.941423 C394.178583,193.654393 392.276264,194.842678 390.849524,196.506276 C388.947205,198.645188 387.758256,202.685356 386.569306,207.200837 C385.618147,211.716318 384.904777,216.94477 384.191408,221.935565 L384.191408,222.886192 L384.191408,223.83682 C383.953618,225.975732 383.715828,227.876987 383.478038,230.0159 C383.240248,232.154812 383.240248,234.056067 383.002458,236.194979 C382.764668,237.858577 382.764668,239.759833 382.526878,241.423431 C382.289088,243.087029 382.289088,244.750628 382.051299,246.651883 C381.575719,250.216736 380.862349,253.543933 380.148979,256.87113 C379.43561,260.198326 378.24666,263.525523 376.582131,266.85272 C375.155392,269.704603 373.253073,272.794142 371.112964,275.170711 C368.972855,277.54728 366.594956,279.448536 364.454847,279.923849 C363.979267,279.923849 363.741477,280.161506 363.265897,280.161506 C362.790318,280.161506 362.552528,280.161506 362.314738,280.161506 C361.839158,280.161506 361.363578,280.161506 360.887998,279.923849 C360.412419,279.686192 359.936839,279.686192 359.699049,279.448536 C358.985679,278.973222 358.27231,278.022594 357.79673,276.358996 C357.32115,274.695397 356.84557,272.318828 356.84557,268.991632 C356.84557,266.615063 357.08336,263.76318 357.79673,260.198326 C358.510099,256.633473 359.223469,252.593305 360.174629,248.077824 C360.887998,244.750628 361.839158,241.423431 362.790318,238.096234 C363.741477,234.769038 364.692637,231.204184 365.643796,227.639331 L365.881586,226.92636 L366.119376,226.213389 C366.594956,224.787448 366.832746,223.361506 367.308325,221.935565 C367.783905,220.509623 368.021695,219.083682 368.259485,217.420084 C368.497275,215.518828 368.497275,213.617573 368.259485,211.953975 C368.021695,210.290377 367.308325,209.102092 366.357166,207.913808 C365.406006,206.96318 364.454847,206.250209 363.265897,205.774895 C362.076948,205.299582 360.650208,205.061925 359.223469,205.061925 C359.223469,205.061925 358.985679,205.061925 358.747889,205.061925 C358.510099,205.061925 358.27231,205.061925 358.27231,205.061925 C356.36999,205.061925 353.992092,205.299582 351.851983,205.774895 C349.474084,206.250209 347.333975,206.725523 345.669445,207.438494 C341.627017,209.102092 339.249118,211.241004 337.822379,213.617573 C336.39564,215.994142 336.15785,218.608368 335.68227,220.984937 L335.44448,221.697908 L335.20669,222.410879 C334.9689,224.312134 334.493321,226.451046 334.255531,228.827615 C333.779951,231.204184 333.304371,233.81841 332.828791,236.670293 C331.877632,242.374059 330.688682,248.790795 329.737523,255.445188 C328.786363,262.099582 327.835204,268.753975 327.597414,274.933054 C326.884044,276.121339 326.408464,277.54728 325.695095,278.497908 C324.981725,279.686192 324.506145,280.63682 323.792776,281.825105 C321.652667,285.389958 319.512558,287.766527 318.085818,289.192469 C316.421289,290.61841 315.23234,291.331381 314.04339,291.569038 C313.56781,291.569038 313.33002,291.806695 312.854441,291.806695 C312.378861,291.806695 312.141071,291.806695 311.903281,291.806695 C311.427701,291.806695 310.714332,291.806695 310.476542,291.569038 C310.000962,291.331381 309.525382,291.331381 309.287592,291.093724 C308.574223,290.61841 307.860853,289.667782 307.147483,288.004184 C306.671904,286.340586 306.196324,283.964017 306.196324,280.63682 C306.196324,277.54728 306.671904,273.982427 307.147483,270.892887 C307.623063,267.56569 308.336433,264.713808 308.812013,261.861925 C309.763172,257.5841 310.714332,253.068619 311.903281,248.315481 C313.092231,243.562343 314.51897,238.809205 315.945709,233.81841 C316.421289,232.392469 316.659079,230.966527 316.659079,229.540586 C316.659079,228.114644 316.183499,226.688703 315.470129,225.262762 C314.75676,223.83682 313.8056,222.648536 312.616651,221.697908 C311.427701,220.74728 310.238752,220.03431 308.812013,219.558996 C308.098643,219.321339 307.385273,219.321339 306.671904,219.083682 C305.958534,219.083682 305.245164,218.846025 304.294005,218.846025 C302.153896,218.846025 300.251577,219.083682 298.587047,219.558996 C296.922518,219.796653 295.733569,220.271967 295.020199,220.509623 C292.6423,221.222594 290.739981,222.410879 289.075452,223.83682 C287.410923,225.262762 286.221973,226.92636 285.508603,228.589958 C283.844074,227.639331 282.179545,226.688703 280.277226,226.213389 C278.374907,225.738075 276.234798,225.500418 274.094689,225.500418 C272.905739,225.500418 271.71679,225.500418 270.29005,225.738075 C269.101101,225.975732 267.674362,226.213389 266.247622,226.451046 C260.065085,227.876987 254.595918,230.72887 250.07791,234.531381 C245.559902,238.096234 241.517474,242.611715 238.426205,246.88954 C238.901785,239.284519 238.188415,232.154812 236.286096,225.500418 C234.383777,218.846025 231.530298,212.904603 227.72566,207.676151 C224.396602,203.160669 220.591964,199.595816 215.836166,196.506276 C211.080368,193.416736 206.08678,191.040167 200.379823,189.614226 C197.288554,188.663598 194.197286,188.188285 190.868227,187.712971 C187.539169,187.237657 184.21011,187 180.643262,187 C176.600834,187 172.082826,187.237657 167.802608,187.950628 C163.2846,188.425941 158.766592,189.376569 154.010794,190.564854 C144.499199,192.941423 134.987603,196.268619 125.713798,200.308787 C116.439992,204.348954 107.641766,209.339749 99.3191199,214.805858 C88.1429951,222.410879 77.9180298,231.441841 69.3575938,240.948117 C60.7971578,250.454393 53.6634611,260.911297 48.6698734,271.605858 C46.2919745,276.596653 44.6274453,281.349791 43.200706,285.865272 C42.0117565,290.380753 41.0605969,294.896234 41.0605969,298.936402 C40.8228071,303.214226 41.2983868,307.254393 42.2495464,310.58159 C43.200706,314.146444 44.8652352,317.235983 47.0053442,319.612552 C49.3832431,322.464435 52.2367218,324.36569 55.8035701,325.791632 C59.3704184,327.217573 63.4128466,327.930544 67.9308545,327.930544 L68.882014,327.930544 L69.8331736,327.930544 L72.4488624,327.930544 L75.0645512,327.930544 L73.8756017,325.316318 L72.6866523,322.702092 C72.4488624,321.989121 72.2110725,321.276151 71.9732826,320.56318 C71.7354927,319.850209 71.4977028,319.137238 71.2599129,318.424268 C70.7843331,316.047699 70.5465433,313.67113 70.7843331,311.056904 C71.022123,308.442678 71.4977028,305.828452 72.4488624,303.214226 C75.0645512,295.133891 80.5337186,286.578243 88.8563647,277.54728 C97.1790109,268.753975 108.592926,259.485356 122.622529,249.979079 C120.00684,254.969874 117.628941,259.960669 115.251042,265.426778 C112.873144,270.892887 110.257455,276.596653 107.879556,282.538075 C104.550497,290.380753 101.697019,298.223431 98.8435401,306.066109 C95.9900614,313.908787 93.3743726,321.751464 90.9964738,329.594142 C88.8563647,336.723849 86.9540456,343.6159 85.0517265,350.270293 C83.3871973,356.924686 81.9604579,363.341423 80.5337186,369.758159 C79.1069793,376.650209 77.9180298,383.304603 77.2046602,389.721339 C76.4912905,395.900418 75.7779208,401.841841 75.5401309,407.545607 C75.0645512,420.616736 76.0157107,431.786611 78.6313995,440.817573 C81.2470883,449.848536 85.2895164,456.978243 90.9964738,461.969038 C95.2766918,465.771548 100.270279,468.148117 105.263867,469.336402 C110.257455,470.762343 115.251042,471 119.53126,471 L120.48242,471 L121.43358,471 C122.860319,471 123.811479,470.762343 124.762638,470.287029 C125.713798,469.811715 126.427167,469.098745 127.140537,468.385774 C128.091697,466.959833 128.567276,465.533891 128.567276,463.870293 C128.567276,462.444351 128.329486,460.780753 127.853907,459.354812 L127.853907,458.879498 L127.853907,458.404184 C127.616117,456.978243 127.140537,455.314644 126.902747,453.651046 C126.664957,451.987448 126.427167,450.323849 126.189377,448.660251 C125.713798,445.333054 125.238218,442.005858 124.762638,438.678661 C124.287058,435.113808 124.049268,431.548954 123.811479,427.9841 C123.098109,419.428452 122.860319,411.11046 122.860319,402.792469 C122.860319,394.474477 123.098109,386.394142 123.811479,378.551464 C124.049268,375.699582 124.287058,372.847699 124.524848,370.233473 C124.762638,367.38159 125.238218,364.767364 125.476008,362.153138 C137.127712,358.825941 148.303837,354.785774 158.528802,349.557322 C168.753768,344.566527 178.503153,338.625105 187.301379,331.970711 C193.959496,326.979916 200.142033,321.513808 205.611201,315.572385 C211.080368,309.630962 216.073956,303.451883 220.354174,297.035146 C219.878594,301.550628 219.640804,307.016736 220.116384,312.482845 C220.591964,317.948954 221.780913,323.65272 223.921022,328.405858 C225.347761,331.495397 227.012291,333.871967 229.1524,335.773222 C231.292509,337.674477 233.670407,339.100418 236.523886,339.813389 C237.237256,340.051046 238.188415,340.051046 238.901785,340.288703 C239.615155,340.288703 240.566314,340.52636 241.279684,340.52636 C245.084322,340.52636 248.651171,339.575732 251.742439,338.149791 C254.833708,336.961506 257.211607,335.297908 258.876136,334.109623 C259.827295,333.396653 260.778455,332.683682 261.729614,331.733054 C262.680774,331.020084 263.631934,330.069456 264.345303,329.356485 C266.723202,326.979916 268.863311,324.36569 270.76563,321.276151 C272.905739,318.186611 274.808058,314.859414 276.472588,311.056904 C278.137117,317.948954 281.228385,322.226778 284.795234,324.36569 C288.124292,326.742259 291.92893,327.45523 294.782409,327.45523 L295.020199,327.45523 L295.257989,327.45523 C296.684728,327.45523 299.062627,327.217573 301.678316,326.742259 C304.294005,326.029289 307.623063,325.078661 310.714332,322.939749 C314.51897,320.56318 317.848028,316.998326 320.939297,313.433473 C324.030566,309.630962 326.408464,305.590795 328.548573,301.788285 C329.261943,304.640167 330.450893,307.016736 331.877632,309.155649 C333.304371,311.294561 334.9689,312.958159 336.87122,314.3841 C338.535749,315.572385 340.200278,316.285356 342.102597,316.760669 C344.004916,317.235983 346.145025,317.47364 348.285134,317.47364 C349.474084,317.47364 350.663033,317.47364 351.851983,317.235983 L355.418831,316.523013 C358.985679,315.810042 362.314738,314.3841 365.406006,312.720502 C368.497275,311.056904 371.112964,308.917992 373.728652,306.541423 C373.490863,307.729707 373.253073,309.155649 373.015283,310.343933 C372.777493,311.532218 372.539703,312.958159 372.064123,314.146444 C371.350754,316.523013 370.399594,320.325523 369.210645,323.890377 C368.021695,327.45523 366.832746,331.020084 365.881586,332.921339 C363.028107,339.575732 359.699049,344.566527 355.656621,348.369038 C351.851983,351.933891 347.333975,354.31046 342.340387,355.023431 C341.864807,355.261088 341.389227,355.261088 340.913648,355.261088 C340.438068,355.261088 339.962488,355.261088 339.486908,355.261088 C338.773539,355.261088 337.584589,355.261088 336.63343,354.785774 C335.68227,354.548117 334.493321,354.072803 333.779951,353.122176 C332.591002,352.171548 332.115422,350.983264 331.639842,349.557322 C331.164262,348.131381 331.164262,347.180753 331.402052,346.230126 C331.639842,344.566527 332.591002,341.714644 333.779951,339.100418 C334.731111,337.674477 335.92006,335.297908 337.346799,333.396653 L337.346799,333.396653 Z M203.471092,249.979079 C202.519932,260.911297 194.672866,273.507113 191.343807,278.497908 C181.832212,292.282008 168.515978,304.164854 154.724164,311.294561 C148.303837,314.621757 141.40793,317.235983 134.987603,318.661925 C142.35909,292.994979 153.059635,267.56569 166.375869,242.849372 C167.327028,240.948117 167.564818,238.571548 166.613659,236.670293 C165.662499,234.769038 163.99797,233.343096 161.857861,232.867782 L159.242172,232.392469 C158.053223,232.154812 156.626483,231.917155 155.437534,231.679498 C162.333441,229.065272 171.369456,226.92636 179.929892,226.92636 C184.21011,226.92636 187.776959,227.401674 190.630437,228.589958 C199.666453,231.917155 204.422251,239.759833 203.471092,249.979079 L203.471092,249.979079 Z M275.997008,257.346444 L275.759218,258.772385 C275.521428,260.435983 275.283638,262.099582 275.045848,263.76318 C274.094689,269.942259 272.905739,275.883682 270.76563,282.538075 C269.101101,288.241841 266.247622,293.470293 262.680774,297.51046 C259.827295,300.6 256.736027,302.501255 254.120338,302.501255 C253.882548,302.501255 253.644758,302.501255 253.406968,302.501255 C250.3157,302.025941 248.88896,296.084519 248.651171,290.61841 C248.413381,285.627615 249.12675,279.923849 251.029069,274.220084 C253.169178,267.328033 256.260447,260.911297 260.065085,255.920502 C262.205194,253.306276 266.247622,248.790795 270.52784,248.790795 L270.52784,245.463598 L270.76563,248.790795 C272.430159,248.790795 273.856899,249.503766 274.570268,250.69205 C275.997008,251.880335 276.472588,254.494561 275.997008,257.346444 L275.997008,257.346444 Z" id="Shape" fill="#AE3B33"></path>
                <g id="Group" transform="translate(4.000000, 3.000000)" fill="#FFFFFF">
                    <polygon id="Path" points="427.381481 193.80203 427.381481 185.48731 425.00582 185.48731 425.00582 182.874112 432.845503 182.874112 432.845503 185.48731 430.469841 185.48731 430.469841 193.80203"></polygon>
                    <path d="M447.099471,193.80203 L444.248677,193.80203 L443.535979,189.050761 C443.535979,188.813198 443.535979,188.338071 443.298413,187.862944 C443.298413,187.387817 443.298413,186.91269 443.298413,186.437563 C443.298413,186.91269 443.060847,187.387817 442.82328,188.100508 L442.82328,188.338071 L441.397884,193.564467 L439.497354,193.564467 L438.071958,188.338071 L438.071958,188.100508 C437.834392,187.387817 437.834392,186.91269 437.596825,186.437563 L437.596825,187.625381 C437.596825,188.100508 437.596825,188.338071 437.359259,188.813198 L436.646561,193.564467 L433.795767,193.564467 L435.45873,182.636548 L438.54709,182.636548 L440.210053,188.338071 L440.210053,188.575635 C440.447619,189.050761 440.447619,189.525888 440.447619,189.763452 C440.447619,189.525888 440.447619,189.288325 440.447619,189.050761 C440.447619,188.813198 440.685185,188.575635 440.685185,188.100508 L442.348148,182.398985 L445.436508,182.398985 L447.099471,193.80203 Z" id="Path"></path>
                    <path d="M90.7502646,132.51066 C102.628571,104.478173 118.07037,77.871066 135.650265,53.164467 C137.075661,51.0263959 136.362963,48.1756345 133.749735,47.4629442 C128.760847,45.8 123.534392,44.1370558 118.545503,42.9492386 L111.893651,41.5238579 L118.545503,40.0984772 C126.147619,38.435533 133.987302,37.0101523 141.826984,36.2974619 C156.556085,35.1096447 172.473016,37.4852792 179.362434,52.2142132 C183.401058,60.7664975 181.025397,70.0314721 176.749206,78.1086294 C169.14709,93.0751269 156.318519,106.37868 142.302116,115.881218 C127.097884,126.33401 110.230688,133.22335 91.7005291,134.411168 L89.3248677,134.648731 L90.7502646,132.51066 Z M66.2809524,225.160406 C67.9439153,207.580711 71.0322751,189.763452 76.021164,172.896447 L76.2587302,171.946193 L77.2089947,171.708629 C101.678307,168.145178 125.434921,160.543147 147.053439,148.427411 C164.395767,138.449746 180.075132,125.383756 191.953439,109.467005 C201.456085,96.6385787 208.820635,81.4345178 211.196296,65.5177665 C213.096825,52.4517766 211.433862,38.435533 204.544444,27.0324873 C200.743386,20.6182741 195.516931,15.3918782 189.340212,11.115736 C168.909524,-2.18781726 140.164021,-0.524873096 117.357672,4.46395939 C106.42963,6.83959391 95.7391534,10.1654822 85.2862434,14.4416244 C76.2587302,18.0050761 67.2312169,22.2812183 59.1539683,27.5076142 C39.9111111,39.3857868 21.1433862,56.4903553 9.74021164,76.4456853 C5.7015873,83.5725888 2.13809524,91.8873096 0.95026455,100.20203 C0.237566138,106.37868 0.712698413,113.030457 4.03862434,118.256853 C8.78994709,125.383756 17.1047619,127.996954 25.4195767,128.709645 C25.4195767,128.472081 25.1820106,128.234518 25.1820106,127.996954 C24.7068783,126.096447 24.4693122,124.433503 24.231746,122.532995 C23.7566138,116.356345 25.1820106,110.179695 28.0328042,104.478173 C39.673545,79.7715736 74.1206349,60.528934 97.6396825,49.3634518 L102.866138,46.9878173 L99.5402116,51.5015228 C90.7502646,63.8548223 82.4354497,76.9208122 75.0708995,89.986802 C66.2809524,105.428426 58.2037037,121.107614 50.8391534,137.261929 C44.4248677,151.278173 38.7232804,165.53198 33.9719577,180.02335 C29.6957672,193.08934 25.894709,206.630457 23.9941799,220.171574 C21.6185185,237.038579 20.668254,259.607107 32.784127,273.148223 C33.2592593,273.860914 33.9719577,274.336041 34.6846561,275.048731 C35.8724868,271.485279 37.5354497,267.921827 38.9608466,264.358376 C45.1375661,249.629442 55.1153439,236.325888 66.2809524,225.160406 L66.2809524,225.160406 Z" id="Shape"></path>
                    <path d="M243.267725,69.5563452 C252.77037,69.3187817 260.610053,60.7664975 261.560317,51.5015228 C262.510582,42.4741117 256.333862,34.8720812 247.068783,35.1096447 C237.566138,35.3472081 229.726455,43.8994924 228.77619,52.9269036 C228.063492,61.7167513 234.002646,69.7939086 243.267725,69.5563452 Z" id="Path"></path>
                    <path d="M302.659259,16.5796954 C308.598413,21.093401 310.261376,28.9329949 310.02381,36.2974619 L310.02381,37.4852792 L309.073545,37.7228426 C305.510053,38.6730964 301.946561,39.8609137 298.145503,40.8111675 C291.731217,42.2365482 286.267196,41.7614213 280.565608,38.435533 C279.377778,37.7228426 278.189947,37.0101523 277.002116,36.2974619 C273.67619,34.3969543 271.775661,34.6345178 269.162434,37.0101523 C272.963492,43.186802 273.438624,49.8385787 271.538095,56.9654822 C279.85291,65.0426396 286.504762,69.3187817 298.620635,66.4680203 L301.471429,65.7553299 L300.283598,68.3685279 C295.057143,80.7218274 289.830688,93.3126904 283.891534,105.428426 C277.239683,119.207107 269.637566,133.936041 260.134921,146.051777 C255.383598,151.990863 245.880952,163.393909 237.803704,163.631472 C234.715344,163.631472 231.389418,163.156345 229.251323,160.543147 C225.687831,156.504569 226.638095,149.615228 227.825926,144.626396 C229.488889,137.499492 232.577249,130.135025 235.665608,123.483249 C239.941799,114.218274 244.930688,105.428426 249.919577,96.4010152 C252.532804,90.6994924 251.58254,87.3736041 245.643386,84.7604061 C240.179365,82.3847716 234.477778,81.4345178 228.77619,81.1969543 C226.400529,80.9593909 224.5,82.622335 223.549735,84.9979695 C219.748677,94.5005076 215.947619,104.003046 211.908995,113.743147 C208.820635,121.107614 205.969841,128.472081 203.356614,135.836548 C200.50582,143.438579 198.130159,151.278173 196.22963,159.117766 C194.566667,165.294416 193.378836,172.183756 194.091534,178.59797 C196.22963,179.073096 198.130159,179.548223 200.268254,180.02335 C209.770899,182.636548 218.32328,187.387817 225.450265,194.277157 C240.416931,188.100508 253.483069,170.758376 261.560317,157.454822 L265.598942,150.565482 L264.173545,158.405076 C262.985714,165.53198 262.03545,174.559391 265.12381,181.448731 C266.31164,184.299492 268.212169,186.675127 270.825397,188.338071 C277.952381,193.08934 289.830688,192.37665 297.67037,189.525888 C307.173016,186.2 315.250265,179.073096 321.902116,171.471066 C329.979365,161.968528 336.631217,150.327919 341.620106,138.68731 C343.045503,135.361421 344.470899,131.79797 345.65873,128.234518 C346.371429,126.096447 347.321693,123.958376 347.796825,121.582741 C347.796825,121.345178 347.796825,121.345178 347.559259,121.582741 C346.371429,123.483249 344.946032,125.146193 343.758201,126.809137 C338.056614,133.936041 331.404762,141.300508 324.515344,147.477157 C320.951852,150.565482 316.200529,154.604061 311.686772,156.504569 C306.93545,158.405076 299.333333,157.454822 298.145503,151.515736 C296.957672,146.28934 299.570899,137.974619 301.233862,132.985787 C304.084656,124.671066 307.648148,116.356345 311.21164,108.279188 C312.874603,104.478173 314.537566,100.677157 316.438095,96.6385787 C321.902116,84.2852792 327.128571,71.4568528 331.167196,58.6284264 L331.404762,57.915736 L332.11746,57.6781726 C344.708466,54.5898477 365.139153,50.0761421 377.967725,56.0152284 C379.630688,56.7279188 382.243915,58.1532995 383.906878,60.2913706 C386.757672,63.8548223 390.55873,61.9543147 390.083598,58.3908629 C389.846032,53.164467 388.658201,46.0375635 385.807407,41.5238579 C379.155556,31.071066 364.426455,30.1208122 353.260847,30.8335025 C348.034392,31.071066 342.807937,31.5461929 337.581481,32.2588832 L336.156085,32.4964467 L335.918519,31.071066 C335.443386,26.5573604 334.255556,21.5685279 331.404762,18.0050761 C328.316402,13.9664975 322.852381,11.8284264 318.101058,11.5908629 C313.587302,11.3532995 309.311111,12.5411168 305.747619,15.3918782 C304.559788,14.9167513 303.609524,15.8670051 302.659259,16.5796954 L302.659259,16.5796954 Z" id="Path"></path>
                    <path d="M117.595238,464.861929 C110.70582,465.099492 98.1148148,464.149239 89.8,456.547208 C76.2587302,444.669036 74.5957672,421.625381 75.3084656,404.758376 C75.7835979,392.405076 77.684127,379.814213 80.0597884,367.460914 C82.6730159,353.919797 86.2365079,340.616244 90.2751323,327.550254 C95.2640212,311.633503 100.728042,296.191878 107.142328,280.750254 C112.606349,267.684264 118.545503,254.618274 125.434921,242.027411 L128.048148,237.038579 L123.296825,240.126904 C103.103704,252.95533 73.1703704,275.048731 65.568254,299.04264 C63.905291,304.506599 63.1925926,310.445685 64.3804233,315.909645 C64.8555556,317.572589 65.3306878,319.235533 66.0433862,320.898477 C66.0433862,321.136041 66.2809524,321.136041 66.2809524,321.373604 C58.9164021,321.611168 50.8391534,320.185787 45.8502646,314.246701 C41.5740741,309.257868 40.3862434,302.368528 40.8613757,295.954315 C41.3365079,287.164467 44.4248677,277.899492 48.2259259,270.059898 C58.678836,247.966497 77.684127,228.248731 97.6396825,214.707614 C113.319048,204.017259 132.561905,195.464975 151.092063,190.951269 C165.346032,187.387817 181.500529,185.962437 195.992063,190.001015 C206.207407,192.851777 214.997354,198.315736 221.41164,206.86802 C230.914286,219.696447 233.052381,236.088325 230.67672,251.529949 L229.488889,259.13198 L233.289947,252.480203 C239.941799,241.077157 249.919577,229.911675 263.22328,226.82335 C269.875132,225.39797 276.526984,225.39797 281.753439,230.149239 L283.891534,232.049746 L284.129101,229.198985 C284.604233,225.160406 287.930159,222.309645 291.968783,220.884264 C294.582011,220.171574 299.808466,218.983756 303.371958,219.93401 C307.648148,221.121827 309.786243,225.873096 308.360847,229.674112 C305.034921,239.651777 303.134392,248.679188 300.996296,258.181726 C299.570899,264.358376 298.383069,271.247716 298.383069,277.661929 C298.383069,281.938071 298.858201,288.114721 302.659259,290.965482 C305.034921,292.628426 307.648148,292.628426 310.261376,291.915736 C315.250265,290.727919 319.526455,284.788832 322.139683,280.750254 C323.565079,278.374619 324.990476,275.761421 326.415873,273.148223 L326.653439,272.91066 L326.653439,272.673096 C327.603704,254.855838 332.830159,232.049746 334.493122,219.93401 C335.443386,214.707614 335.443386,210.431472 342.57037,207.580711 C345.896296,206.392893 351.360317,205.44264 354.686243,205.44264 C360.625397,205.44264 361.100529,209.718782 360.625397,213.75736 C360.150265,217.320812 359.2,220.171574 358.249735,223.497462 C356.349206,230.149239 354.211111,237.276142 352.785714,244.165482 C351.360317,250.342132 349.459788,259.369543 349.459788,265.783756 C349.459788,270.059898 349.934921,276.236548 353.735979,279.08731 C355.874074,280.750254 358.724868,280.750254 361.338095,280.037563 C367.514815,278.612183 373.216402,270.535025 375.82963,265.071066 C379.155556,257.944162 380.10582,251.529949 381.531217,243.927919 C382.481481,236.325888 382.719048,228.723858 383.669312,221.121827 C384.382011,215.182741 385.807407,200.216244 389.608466,195.702538 C391.746561,193.08934 395.072487,192.37665 398.160847,191.901523 C402.437037,191.188832 410.989418,190.713706 414.077778,194.277157 C415.740741,196.415228 415.028042,199.26599 414.077778,201.404061 C410.27672,211.144162 408.37619,222.309645 406.713228,232.524873 C406.000529,236.801015 405.287831,241.077157 404.337566,245.353299 C403.624868,248.916751 402.912169,252.480203 402.437037,256.281218 C401.249206,263.883249 400.061376,271.485279 399.111111,279.08731 C397.685714,289.777665 396.260317,300.46802 394.597354,311.158376 C392.696825,324.699492 386.757672,346.080203 378.205291,356.770558 C368.940212,368.173604 356.11164,376.488325 341.857672,380.28934 C332.830159,382.427411 322.377249,382.902538 313.587302,379.101523 C307.410582,376.488325 302.659259,371.737056 300.75873,365.085279 C298.858201,358.195939 300.75873,350.831472 305.034921,345.129949 C310.974074,337.290355 320.714286,332.301523 329.979365,329.925888 C327.128571,333.726904 324.515344,338.478173 324.040212,343.467005 C323.802646,347.030457 324.75291,350.593909 327.366138,352.969543 C330.692063,355.820305 335.20582,356.532995 339.244444,355.345178 C352.310582,353.207107 360.150265,342.754315 365.139153,331.351269 C367.277249,326.6 370.365608,316.622335 371.553439,311.871066 C373.216402,304.744162 374.641799,297.617259 375.354497,290.252792 C371.078307,298.567513 364.188889,307.119797 350.885185,310.208122 C345.65873,311.395939 339.719577,311.395939 335.20582,308.307614 C330.216931,304.744162 328.078836,298.567513 327.366138,292.628426 L326.653439,287.639594 L324.515344,292.153299 C320.239153,300.943147 313.824868,311.395939 305.510053,316.859898 C301.471429,319.473096 296.48254,320.898477 291.493651,320.898477 C280.090476,320.660914 276.289418,310.920812 275.57672,301.180711 L275.101587,295.241624 L272.725926,300.705584 C269.162434,308.782741 264.648677,317.335025 258.471958,323.749239 C257.046561,325.412183 255.146032,326.837563 253.483069,328.025381 C248.019048,331.826396 240.654497,334.914721 234.002646,333.251777 C229.013757,332.063959 225.687831,328.262944 223.549735,323.749239 C218.560847,312.82132 219.273545,296.904569 221.41164,285.263959 L222.837037,276.711675 L218.560847,284.313706 C209.295767,300.705584 196.467196,314.721827 181.500529,325.88731 C163.207937,339.903553 141.826984,349.406091 119.733333,355.582741 L118.783069,355.820305 L118.783069,357.720812 C117.832804,363.659898 117.120106,369.598985 116.644974,375.775635 C115.219577,392.167513 115.457143,409.034518 116.644974,425.663959 C117.120106,432.790863 118.07037,439.680203 119.020635,446.569543 C119.495767,449.657868 120.208466,453.22132 120.683598,456.547208 C121.633862,460.348223 123.059259,464.624365 117.595238,464.861929 L117.595238,464.861929 Z M249.682011,302.606091 C254.433333,303.318782 258.94709,299.992893 262.03545,296.667005 C266.074074,292.153299 269.162434,286.214213 270.825397,280.51269 C272.725926,274.098477 274.151323,267.921827 275.101587,261.270051 C275.339153,259.13198 275.814286,256.993909 276.051852,254.855838 C277.002116,248.916751 274.388889,242.740102 267.499471,242.264975 C262.03545,242.027411 257.284127,246.77868 254.195767,250.817259 C249.919577,256.281218 246.593651,263.408122 244.693122,270.059898 C243.030159,275.761421 242.079894,281.700508 242.31746,287.639594 C242.31746,292.628426 243.505291,301.893401 249.682011,302.606091 L249.682011,302.606091 Z M127.573016,318.047716 L126.860317,320.42335 L129.235979,319.948223 C137.550794,318.285279 145.628042,315.434518 152.992593,311.633503 C167.959259,304.031472 181.262963,291.440609 190.765608,277.661929 C196.467196,269.347208 202.643915,257.706599 203.356614,247.491371 C204.306878,236.088325 199.080423,226.585787 188.152381,222.547208 C175.798942,217.795939 155.843386,222.784772 144.440212,228.248731 L139.688889,230.624365 L144.915344,231.099492 C149.191534,231.574619 153.467725,232.524873 157.743915,233.475127 C160.119577,233.950254 161.069841,236.563452 160.119577,238.701523 C146.578307,263.645685 135.412698,290.727919 127.573016,318.047716 L127.573016,318.047716 Z" id="Shape"></path>
                </g>
            </g>
        </g>
    </g>
</svg>