<svg viewBox="0 0 681 258">
    <g id="Page-1" stroke="none" stroke-width="1" fill="none" fill-rule="evenodd">
        <g id="Artboard" transform="translate(-491.000000, -2012.000000)" fill-rule="nonzero">
            <g id="logo-header" transform="translate(491.000000, 2012.000000)">
                <path d="M664.035714,39.7674419 L664.035714,32.3255814 L662,32.3255814 L662,30 L668.785714,30 L668.785714,32.3255814 L666.75,32.3255814 L666.75,39.7674419 L664.035714,39.7674419 Z M681,39.7674419 L678.511905,39.7674419 L678.059524,35.5813953 C678.059524,35.3488372 678.059524,34.8837209 678.059524,34.6511628 C678.059524,34.1860465 678.059524,33.9534884 678.059524,33.4883721 C678.059524,33.9534884 677.833333,34.4186047 677.607143,35.1162791 L677.607143,35.3488372 L676.25,40 L674.440476,40 L673.083333,35.3488372 L673.083333,35.1162791 C672.857143,34.4186047 672.857143,33.9534884 672.630952,33.4883721 L672.630952,34.6511628 C672.630952,35.1162791 672.630952,35.3488372 672.404762,35.8139535 L671.952381,40 L669.464286,40 L670.821429,30.2325581 L673.309524,30.2325581 L674.666667,35.3488372 L674.666667,35.5813953 C674.892857,36.0465116 674.892857,36.5116279 674.892857,36.744186 C674.892857,36.5116279 674.892857,36.2790698 674.892857,36.2790698 C674.892857,36.0465116 674.892857,35.8139535 675.119048,35.5813953 L676.47619,30.6976744 L678.964286,30.6976744 L681,39.7674419 Z" id="Shape" fill="#FFFFFF"></path>
                <path d="M57.6034652,258 C44.432993,257.773087 34.4416002,253.915567 27.6292869,246.427441 C18.3191255,235.762533 15.5942002,218.290237 19.6815882,194.010554 C21.498205,183.345646 24.4502074,172 28.7646725,159.292876 C32.6249833,147.720317 37.3936026,135.693931 43.2976074,122.986807 C49.6557665,108.918206 56.9222339,94.8496042 64.8699327,81.0079156 C71.4551688,69.6622691 77.5862508,59.6781003 83.9444098,50.6015831 C53.9702315,65.3509235 35.3499086,80.5540897 28.3105183,95.7572559 C26.0397472,100.74934 25.1314388,105.514512 25.585593,110.279683 C25.8126701,111.641161 26.0397472,113.229551 26.4939014,114.591029 C26.4939014,114.817942 26.7209785,115.044855 26.7209785,115.044855 L27.8563641,118.675462 L23.9960532,118.448549 C14.4588147,117.76781 7.64650142,114.364116 3.55911347,108.237467 C0.152956844,103.245383 -0.755351589,96.4379947 0.607111061,88.4960422 C1.96957371,80.7810026 5.37573033,72.6121372 11.052658,63.9894459 C23.0877448,45.3825858 42.1622219,28.591029 65.0970098,17.0184697 C81.6736387,8.62269129 100.748116,2.72295515 118.914284,0.680738786 C123.455827,0.226912929 127.997369,0 132.311834,0 C143.665689,0 153.657082,1.81530343 162.286012,5.44591029 C181.360489,13.6147757 192.26019,31.0870712 191.578959,53.5514512 C191.351882,67.8469657 185.902031,95.7572559 152.975851,122.532982 C130.722294,140.686016 102.564733,152.712401 71.2280917,157.25066 C69.8656291,162.242744 68.5031664,167.461741 67.3677809,172.907652 C64.1887014,187.656992 62.3720845,203.087071 61.4637761,219.197889 C61.236699,226.23219 61.0096219,232.585752 61.236699,238.939314 C61.4637761,244.83905 61.6908532,249.604222 62.3720845,253.915567 L62.5991616,254.369393 L62.5991616,254.823219 C62.5991616,255.730871 62.1450074,256.411609 61.236699,257.092348 C59.8742363,258 58.5117737,258 57.6034652,258 L57.6034652,258 Z M113.237357,38.8021108 C115.053974,39.4828496 116.870591,39.9366755 118.687207,40.6174142 C119.595516,40.8443272 120.276747,41.298153 121.185056,41.525066 C123.001672,42.2058047 124.364135,43.5672823 124.818289,45.1556728 C125.272444,46.9709763 125.045366,49.0131926 123.909981,50.3746702 C108.24166,72.1583113 95.0711881,95.0765172 85.0797953,118.675462 C91.6650315,117.994723 98.7044218,116.406332 105.743812,113.91029 C119.595516,108.918206 133.674297,99.1609499 144.119843,87.3614776 C147.753077,83.0501319 156.836162,72.1583113 158.879856,61.9472296 C160.92355,52.1899736 157.290316,44.0211082 148.888463,39.4828496 C144.801075,37.2137203 139.124147,36.0791557 132.311834,36.0791557 C125.953675,36.3060686 119.141362,37.2137203 113.237357,38.8021108 L113.237357,38.8021108 Z M187.945725,173.134565 C186.356186,173.134565 184.539569,172.907652 183.177106,172.680739 C178.408487,171.546174 174.548176,168.596306 172.050328,164.28496 C168.644171,158.385224 168.417094,149.989446 171.369096,138.870712 C173.185713,132.063325 175.229407,125.48285 177.500178,119.129288 C179.770949,113.002639 182.268798,106.875989 184.766646,100.522427 L185.674954,98.2532982 C188.626957,91.2189974 191.578959,83.7308707 194.303884,76.469657 C195.43927,73.5197889 197.937118,71.7044855 200.662043,71.7044855 L201.116198,71.7044855 C207.020202,71.9313984 211.788822,73.0659631 216.103287,74.8812665 C219.055289,76.2427441 220.871906,77.8311346 221.780215,79.8733509 C222.9156,82.823219 221.780215,85.7730871 220.871906,87.8153034 L219.736521,89.8575198 C215.87621,96.8918206 212.242976,103.472296 209.063896,110.506596 C206.793125,115.271768 204.0682,121.62533 202.705737,127.751979 C201.343275,133.197889 201.797429,136.828496 203.386969,138.870712 C204.295277,140.005277 206.111894,140.459103 208.155588,140.459103 L208.609742,140.459103 C212.69713,140.23219 218.374058,135.693931 225.640525,126.844327 C233.815301,116.406332 240.400537,103.472296 245.169157,93.4881266 C249.029468,85.5461741 252.435624,77.3773087 255.841781,69.4353562 C256.523012,67.8469657 257.204243,66.2585752 257.885475,64.6701847 C256.523012,64.8970976 255.160549,64.8970976 253.798087,64.8970976 C246.304542,64.8970976 241.081769,61.2664908 235.177764,55.5936675 L234.042378,54.4591029 L234.496533,53.0976253 C236.086072,47.651715 235.404841,42.8865435 232.906993,38.5751979 L231.771607,36.7598945 L233.13407,35.3984169 C234.042378,34.4907652 235.858995,33.1292876 238.129766,33.1292876 C239.492229,33.1292876 240.854692,33.5831135 242.671308,34.4907652 C243.125463,34.7176781 243.806694,35.171504 244.260848,35.3984169 C244.715002,35.6253298 245.169157,36.0791557 245.850388,36.3060686 C248.575313,37.8944591 251.300239,38.5751979 254.252241,38.5751979 C255.614704,38.5751979 257.204243,38.348285 259.02086,38.121372 C260.6104,37.6675462 262.427017,37.2137203 264.243634,36.7598945 C265.151942,36.5329815 266.287328,36.0791557 267.195636,35.8522427 C267.195636,31.994723 266.514405,25.8680739 261.972863,22.4643799 L259.702092,20.6490765 L261.745786,18.6068602 C262.654094,17.6992084 263.335325,17.0184697 264.243634,16.3377309 C267.422713,13.8416887 271.055947,12.4802111 274.916258,12.4802111 L276.278721,12.4802111 C280.366108,12.707124 286.043036,14.7493404 289.222116,18.8337731 C291.947041,22.237467 292.855349,26.5488127 293.309504,29.7255937 C296.71566,29.2717678 300.803048,28.817942 305.34459,28.591029 L309.431978,28.591029 C321.921219,28.591029 330.323072,31.994723 334.637537,38.8021108 C334.864614,39.0290237 335.091692,39.4828496 335.091692,39.7097625 L336,41.298153 L334.637537,42.6596306 C331.685535,45.6094987 328.506455,48.7862797 325.554453,52.4168865 L324.646145,53.5514512 L323.283682,53.3245383 C320.785834,52.8707124 318.060908,52.6437995 314.881829,52.6437995 C313.065212,52.6437995 311.021518,52.6437995 308.977824,52.8707124 C302.846742,53.3245383 296.261506,54.4591029 288.767961,56.2744063 C285.588882,65.5778364 281.728571,75.7889182 276.505798,87.8153034 C275.597489,89.8575198 274.689181,91.8997361 273.780872,93.7150396 L272.191333,97.3456464 C269.466407,103.699208 266.287328,110.733509 263.78948,117.76781 C262.881171,120.263852 260.383323,127.751979 261.291631,132.063325 C261.972863,134.78628 265.606096,135.013193 266.287328,135.013193 C267.422713,135.013193 268.331022,134.78628 269.23933,134.559367 C272.645487,133.197889 276.505798,129.794195 279.230723,127.525066 C284.453496,122.759894 290.130424,116.860158 295.126121,110.506596 C296.034429,109.372032 298.3052,106.649077 298.986431,105.287599 C301.030125,102.337731 304.436282,103.699208 302.846742,107.783641 C302.165511,109.825858 301.48428,112.094987 300.803048,113.91029 C299.667663,116.860158 298.532277,119.810026 297.396892,122.759894 C292.855349,133.424802 286.951345,143.182058 280.593186,150.670185 C274.007949,158.612137 266.741482,163.831135 259.247937,166.55409 C255.614704,167.915567 251.300239,168.596306 247.212851,168.596306 C242.217154,168.596306 237.902689,167.461741 234.496533,165.419525 C231.998684,163.831135 229.95499,161.335092 228.819605,158.612137 C227.230065,154.754617 226.548834,149.762533 227.002988,143.635884 C221.553137,152.031662 213.832516,161.562005 204.749431,167.461741 C199.526658,171.092348 193.622653,173.134565 187.945725,173.134565 L187.945725,173.134565 Z M214.059593,66.939314 C209.972205,66.939314 206.338971,65.3509235 203.841123,62.4010554 C200.889121,59.2242744 199.526658,54.9129288 199.980812,50.1477573 C200.889121,41.0712401 208.836819,33.3562005 217.465749,32.9023747 L217.919904,32.9023747 C222.007292,32.9023747 225.640525,34.4907652 228.365451,37.4406332 C231.090376,40.6174142 232.452839,44.9287599 231.998684,49.4670185 C231.090376,58.7704485 223.142677,66.4854881 214.28667,66.7124011 C214.28667,66.939314 214.28667,66.939314 214.059593,66.939314 L214.059593,66.939314 Z" id="Shape" fill="#AE3B33"></path>
                <path d="M24.6957276,116.310371 C24.6957276,116.083234 24.4690332,115.856096 24.4690332,115.628959 C24.0156446,114.038995 23.7889503,112.449032 23.562256,110.859069 C23.1088673,105.407766 24.2423389,99.9564637 26.5092821,95.1865739 C36.4838321,73.6085012 67.087565,56.5731807 87.4900536,46.8062636 L92.02394,44.5348875 L89.0769139,48.6233644 C81.3693071,59.5259696 74.1150889,71.1099876 67.5409537,82.6940055 C59.8333468,96.322262 52.5791287,110.177656 46.2316878,124.487325 C40.7910241,136.298481 36.0304435,148.336774 31.9499457,160.602205 C28.0961423,171.731948 24.9224219,183.315966 23.1088673,194.899984 C20.3885355,210.572479 19.2550639,232.377689 30.5897798,245.324532 C37.843998,253.274349 48.2719366,256 58.4731809,256 C58.9265696,256 59.6066525,256 59.8333468,255.772862 C60.0600412,255.545725 60.2867355,255.318587 60.2867355,255.318587 C59.6066525,250.32156 59.3799582,245.097395 59.1532639,239.87323 C58.9265696,233.286239 59.1532639,226.472111 59.3799582,219.88512 C60.0600412,204.212626 62.10029,188.540131 65.2740105,173.094773 C66.4074821,167.416333 67.767648,161.965031 69.3545082,156.513728 L69.5812025,155.605178 L70.4879798,155.37804 C99.9582411,151.062425 128.295031,139.932683 151.644546,121.080261 C171.82034,104.499216 188.822414,81.1040423 189.275802,54.074667 C189.729191,33.6322823 180.888113,16.3698242 161.392401,8.1928703 C148.470825,2.74156772 133.055612,2.2872925 119.227258,3.65011815 C101.318407,5.69435661 82.5027786,11.5999344 66.4074821,19.5497507 C46.0049934,29.9980806 26.0558935,46.1248507 13.587706,65.658685 C9.05381962,72.6999508 4.97332189,80.8769047 3.61315599,89.2809961 C2.4796844,95.1865739 2.70637871,102.000702 6.10679348,107.224867 C10.4139855,113.357583 17.6682037,115.856096 24.6957276,116.310371 L24.6957276,116.310371 Z M82.2760843,120.171711 C92.7040229,95.1865739 106.305682,71.3371252 122.174284,49.5319148 C123.53445,47.714814 122.854367,44.9891627 120.587424,44.3077499 C116.733621,42.9449242 112.879817,41.354961 108.79932,40.4464106 L104.265433,39.5378601 L108.572625,37.9478969 C119.907341,34.0865575 139.176358,31.8151815 150.057685,37.7207593 C159.805541,42.9449242 163.43265,52.2575661 161.392401,62.9330337 C159.352152,72.2456756 152.324629,82.4668679 145.977188,89.5081338 C135.549249,101.319289 121.494201,111.313344 106.532376,116.764647 C99.0514639,119.490298 91.1171627,121.307399 83.4095559,121.761674 L81.3693071,121.988812 L82.2760843,120.171711 Z M214.89226,64.9772722 C222.826561,64.7501345 229.174002,57.7088687 230.08078,49.9861901 C230.760863,42.490649 225.773588,36.130796 218.065981,36.3579336 C210.358374,36.5850712 203.784239,43.6263371 202.877461,51.3490157 C202.197379,58.6174191 206.957959,65.2044098 214.89226,64.9772722 Z M323.705533,51.5761533 C318.944952,50.6676029 313.730983,50.6676029 308.743708,51.1218781 C301.716184,51.5761533 294.461966,52.938979 287.434442,54.7560798 L286.754359,54.9832174 L286.527665,55.6646302 C283.12725,66.5672354 278.593364,77.242703 274.059477,87.4638953 C272.699311,90.6438218 271.112451,93.8237483 269.752285,97.2308124 C266.805259,104.044941 263.631539,110.859069 261.364596,117.900335 C260.00443,122.215949 257.737486,129.030077 258.870958,133.57283 C260.00443,138.569857 266.351871,139.25127 270.432368,137.888444 C274.059477,136.298481 278.139975,133.118554 281.087001,130.392903 C286.754359,125.168738 292.421717,119.036023 297.182298,113.130445 C298.315769,111.767619 299.449241,110.177656 300.582713,108.587693 C300.129324,110.631931 299.449241,112.449032 298.769158,114.266133 C297.635686,117.218922 296.502215,120.171711 295.368743,122.897362 C291.288245,132.437142 285.847582,142.204059 279.046752,150.381013 C273.606089,156.740866 266.805259,162.646443 258.870958,165.372095 C252.296823,167.643471 242.548967,168.324884 236.428221,164.463544 C234.161277,163.100719 232.574417,161.05648 231.66764,158.557966 C229.174002,152.879526 229.854085,145.383985 230.987557,139.478407 L232.347723,132.437142 L228.720614,138.569857 C222.599867,148.791049 214.212177,159.920792 204.237627,166.507783 C198.570269,170.141984 191.089357,172.640498 184.515222,171.050535 C180.434724,170.141984 177.034309,167.416333 174.99406,163.782131 C171.140257,156.968003 172.727117,147.428224 174.540672,140.15982 C176.354226,133.57283 178.167781,126.985839 180.661418,120.625986 C182.928362,114.493271 185.421999,108.360555 187.915636,102.22784 C191.089357,94.2780235 194.489772,86.3282073 197.663492,78.1512534 C198.343575,76.3341525 199.930435,74.9713269 201.970684,74.9713269 C206.731265,75.1984645 211.491846,75.8798773 216.025732,77.9241158 C220.786313,79.9683542 221.466396,82.9211431 219.426147,87.4638953 C215.345649,94.9594363 211.038457,102.454977 207.411348,110.177656 C204.691016,115.856096 202.197379,121.988812 200.837213,127.894389 C199.930435,131.982866 199.023658,137.888444 202.197379,141.295508 C204.010933,143.339747 206.731265,143.794022 209.224902,143.794022 C216.252426,143.566884 224.186727,134.254242 228.040531,129.030077 C235.974832,118.808885 242.322273,106.770592 247.762936,94.9594363 C252.523517,84.738244 256.830709,74.2899141 261.364596,63.8415841 L262.271373,61.570208 L259.777735,62.2516209 C249.576491,64.5229969 244.135827,61.1159328 237.108303,54.3018046 C238.695164,48.3962268 238.468469,42.9449242 235.294749,37.7207593 C237.334998,35.9036584 238.921858,35.6765208 241.64219,37.266484 C242.775661,37.9478969 243.682439,38.6293097 244.81591,39.0835849 C249.576491,41.8092362 254.337072,42.2635114 259.551041,41.1278234 C262.724761,40.4464106 265.671788,39.3107225 268.618814,38.6293097 L269.525591,38.4021721 L269.525591,37.4936217 C269.752285,31.5880439 268.392119,25.0010532 263.404844,21.1397139 C264.084927,20.4583011 264.991705,19.7768883 265.671788,19.0954755 C268.618814,16.8240994 272.019228,15.6884113 275.873032,15.9155489 C279.95353,16.1426866 284.487416,17.9597874 286.981053,21.3668515 C289.247997,24.3196404 290.381468,28.635255 290.834857,32.2694567 L291.061551,33.6322823 L292.421717,33.4051447 C296.728909,32.7237319 301.262795,32.2694567 305.343293,32.0423191 C314.63776,31.5880439 326.879253,32.4965943 332.546611,41.1278234 C332.773306,41.354961 332.773306,41.5820986 333,41.8092362 C329.599585,44.7620251 326.652559,48.1690892 323.705533,51.5761533 L323.705533,51.5761533 Z" id="Shape" fill="#FBFDFF"></path>
                <path d="M364.832799,249 C352.355332,248.7726 342.827083,245.134203 336.701781,238.084809 C327.854122,228.079217 325.358629,211.479031 328.988437,188.51165 C330.576479,178.506058 333.525698,167.818267 337.38237,155.766076 C341.012179,144.850885 345.54944,133.480895 350.994153,121.428705 C357.119456,108.012116 363.925347,94.8229264 371.184965,81.6337372 C377.310267,70.9459459 383.208707,61.6225536 388.880283,52.9813607 C360.976128,66.8527493 343.28081,81.1789376 336.701781,95.5051258 C334.433151,100.280522 333.752561,104.828518 333.979424,109.149115 C334.206288,110.513514 334.433151,111.877912 334.660014,113.242311 C334.660014,113.469711 334.660014,113.469711 334.886877,113.697111 L336.248055,117.335508 L332.391383,117.108108 C323.316861,116.425909 316.964696,113.014911 313.334887,107.329916 C310.158804,102.55452 309.251352,95.9599254 310.61253,88.6831314 C311.973709,81.4063374 315.149791,73.6747437 320.367641,65.4883504 C331.710794,47.751165 349.859838,32.0605778 371.184965,21.1453868 C386.838515,13.1863933 404.760696,7.72879776 421.775425,5.68219944 C426.085823,5.22739981 430.396221,5 434.479756,5 C445.142319,5 454.670568,6.81919851 462.837637,10.2301957 C472.592749,14.3233924 479.852366,20.6905871 484.61649,29.1043802 C490.51493,39.5647717 492.102971,52.526561 489.380614,66.3979497 C495.959643,58.8937558 505.261028,51.6169618 517.057907,50.2525629 C518.192222,50.0251631 519.326537,50.0251631 520.460852,50.0251631 C525.905566,50.0251631 530.215964,51.389562 533.392046,54.3457596 C533.845772,52.526561 534.753225,48.4333644 539.063623,47.9785648 L539.971075,47.9785648 L540.424801,47.9785648 C541.785979,47.9785648 543.147157,48.2059646 544.962062,48.4333644 C547.230692,48.6607642 549.953049,49.1155638 551.767953,49.7977633 C554.944036,50.9347623 557.212667,53.2087605 558.346982,55.9375582 C559.481297,58.4389562 559.481297,61.3951538 558.346982,64.1239515 C557.666393,65.94315 556.985804,67.5349487 556.078351,69.3541473 C555.397762,70.7185461 554.944036,72.082945 554.263447,73.6747437 C552.221679,78.4501398 550.633638,82.5433364 549.499323,86.1817335 C547.911282,90.7297297 545.869514,96.8695247 545.188925,102.55452 C544.508336,107.557316 544.962062,110.968313 546.776966,112.560112 C547.684418,113.469711 548.818734,113.697111 550.406775,113.697111 L551.54109,113.697111 C554.263447,113.469711 557.666393,110.740913 561.523065,105.965517 C562.884243,104.373719 564.245421,102.32712 565.833463,100.280522 C566.514052,96.8695247 567.194641,93.4585275 568.102093,89.3653308 C570.143861,80.9515377 572.866217,71.8555452 576.496026,60.9403541 C576.949752,59.5759553 577.403478,57.9841566 577.857204,56.6197577 C578.084067,55.9375582 578.31093,55.2553588 578.537793,54.5731594 C579.218383,52.0717614 580.125835,49.5703635 581.26015,47.2963653 L581.26015,47.0689655 C582.167602,45.249767 582.848191,43.8853681 585.797411,43.2031687 C586.478,42.9757689 587.385452,42.9757689 588.292905,42.9757689 C591.468987,42.9757689 595.325659,43.8853681 597.367427,44.5675676 C601.450962,45.7045666 603.946455,47.751165 605.307633,50.9347623 C606.215086,53.2087605 606.441949,55.027959 605.761359,57.0745573 C605.307633,58.8937558 604.400181,60.9403541 603.719592,62.5321528 C603.492729,62.9869525 603.265866,63.6691519 603.039003,64.1239515 C600.543509,69.8089469 598.274879,75.4939422 596.233111,81.1789376 C594.64507,85.7269338 592.603303,91.8667288 591.69585,97.5517241 C591.015261,102.55452 591.468987,105.965517 593.057029,107.557316 C593.964481,108.239515 595.098796,108.694315 596.686837,108.694315 L597.821153,108.694315 C602.131551,108.239515 607.349401,103.00932 610.298621,98.2339236 C613.928429,92.5489282 615.516471,87.0913327 617.331375,80.7241379 C618.011964,77.7679404 618.692553,74.584343 619.373143,71.6281454 C620.053732,67.9897484 620.961184,64.3513514 621.868636,60.9403541 C622.095499,60.4855545 622.095499,60.0307549 622.322362,59.3485555 C624.36413,50.7073625 627.086486,41.1565704 630.716295,37.7455732 C633.665515,35.0167754 637.74905,34.7893756 640.244543,34.5619758 L641.605722,34.5619758 C645.008667,34.5619758 653.175737,35.0167754 656.124957,39.7921715 C657.486135,42.0661696 657.259272,45.249767 655.444368,48.6607642 C651.13397,56.6197577 648.411613,65.94315 645.689256,74.8117428 L645.23553,76.4035415 C644.328078,79.5871389 643.193763,82.9981361 642.059448,86.4091333 C640.925132,90.0475303 640.01768,93.0037279 639.110228,95.7325256 C637.295324,102.09972 635.480419,108.694315 633.665515,115.516309 C632.984926,117.790308 632.5312,119.836906 631.85061,122.110904 C630.035706,128.932898 628.220802,136.209692 625.952171,143.486486 C622.549225,155.538677 615.289608,172.821062 606.215086,181.689655 C605.307633,182.371855 604.627044,183.281454 603.719592,183.963653 C594.418207,192.150047 582.621328,197.380242 570.143861,198.972041 C567.87523,199.199441 565.833463,199.199441 563.791695,199.199441 C555.851488,199.199441 549.045597,197.607642 543.600884,194.196645 C537.475581,190.558248 533.618909,185.100652 532.711457,178.506058 C531.804005,171.684063 534.299498,164.862069 539.517349,159.177074 C546.776966,151.44548 557.43953,148.489282 564.92601,147.807083 C568.102093,147.579683 570.143861,149.171482 566.967778,152.127679 C563.564832,155.311277 561.523065,158.949674 560.842475,162.133271 C560.615612,163.72507 560.388749,166.681267 562.203654,168.955266 C564.245421,171.229264 567.194641,171.684063 568.782682,171.684063 L570.143861,171.684063 C578.991519,171.229264 586.931726,165.771668 593.283892,155.083877 C596.459974,149.626281 600.316646,140.757689 602.585277,134.390494 L603.265866,132.343896 C598.955468,135.754893 593.283892,138.71109 585.343685,139.39329 C584.20937,139.39329 583.301917,139.62069 582.167602,139.62069 C576.722889,139.62069 572.185628,138.028891 569.009545,134.845294 C566.060326,131.889096 564.245421,127.795899 563.791695,122.565704 C559.254434,129.160298 552.675406,136.437092 545.188925,140.075489 C541.785979,141.667288 538.15617,142.576887 534.526362,142.576887 C533.392046,142.576887 532.257731,142.576887 531.123416,142.349487 C527.493607,141.894688 524.544387,140.302889 522.275757,138.028891 C519.326537,135.072693 517.511633,130.524697 517.057907,124.612302 C512.747509,131.434296 508.437111,136.664492 503.672987,140.302889 C498.00141,144.850885 491.195519,147.579683 485.070216,147.579683 C477.13001,147.579683 471.23157,143.259087 468.736077,135.300093 C465.559994,125.521901 467.601761,113.469711 469.416666,105.283318 C460.342144,116.198509 448.545265,125.976701 435.160345,133.708295 C418.145616,143.486486 398.635394,150.081081 377.310267,153.264678 C375.949089,158.040075 374.814774,162.815471 373.680458,168.045666 C370.731239,181.917055 368.916334,196.698043 368.235745,211.706431 C368.008882,218.301025 367.782019,224.44082 368.008882,230.353215 C368.235745,236.038211 368.462608,240.586207 368.916334,244.679404 L369.143197,245.361603 L368.916334,246.271202 C368.916334,246.498602 368.689471,246.953402 367.782019,247.635601 C366.874567,248.7726 365.513389,248.7726 364.832799,249 L364.832799,249 Z M417.238164,41.61137 C418.826206,42.0661696 420.414247,42.7483691 422.002288,43.2031687 C422.682877,43.4305685 423.59033,43.6579683 424.270919,44.1127679 C425.85896,44.7949674 427.220138,45.9319664 427.673865,47.751165 C428.127591,49.5703635 427.900728,51.389562 426.766412,52.7539609 C412.020314,73.2199441 399.769709,95.0503262 390.241461,117.108108 C396.366763,116.425909 403.172655,115.06151 409.52482,112.560112 C422.682877,107.784716 435.840934,98.6887232 445.822909,87.5461323 C449.452717,83.6803355 457.84665,73.2199441 459.661555,63.4417521 C461.476459,54.3457596 458.073513,46.6141659 450.36017,42.2935694 C446.503498,40.2469711 441.058785,39.109972 434.706619,39.109972 C429.261906,39.3373719 422.90974,40.0195713 417.238164,41.61137 L417.238164,41.61137 Z M517.965359,68.8993476 C515.243002,68.8993476 511.840056,70.7185461 508.210248,74.3569432 C504.353576,78.22274 500.723767,83.6803355 498.228273,89.5927307 C495.959643,94.5955266 494.598465,99.5983225 494.371601,104.146319 C494.144738,106.647717 493.917875,114.60671 497.547684,115.516309 C498.00141,115.743709 498.455136,115.743709 498.908863,115.743709 C502.084945,115.743709 505.034165,113.469711 506.622206,112.105312 C510.252015,109.149115 513.428098,104.601118 515.469865,99.5983225 C517.965359,93.9133271 519.780263,88.6831314 521.368305,83.4529357 C521.822031,82.0885368 522.048894,80.7241379 522.50262,79.1323392 L522.956346,77.7679404 C523.636935,75.2665424 523.410072,72.7651445 522.50262,71.1733458 C521.822031,70.0363467 520.460852,69.1267474 518.872811,68.8993476 C518.645948,68.8993476 518.419085,68.8993476 517.965359,68.8993476 L517.965359,68.8993476 Z" id="Shape" fill="#AE3B33"></path>
                <path d="M333.229924,113.899084 C333.229924,113.672106 333.003285,113.672106 333.003285,113.445129 C332.550006,111.856286 332.323367,110.494421 332.096728,108.905578 C331.643449,103.685095 332.776645,98.6915897 335.043038,94.1520393 C344.561886,73.7240626 373.34507,57.6086587 392.609406,48.5295579 L397.142191,46.2597827 L394.19588,50.3453781 C386.716785,60.5593664 380.144247,71.4542874 373.798348,82.5761858 C366.545893,95.2869269 359.746715,108.678601 353.627456,122.070274 C348.641392,133.192173 344.108607,144.541049 340.029101,156.116902 C336.402873,166.557868 333.456563,177.452789 331.643449,188.574688 C329.150417,203.328226 328.017221,223.983181 338.669266,236.012989 C345.468443,243.503247 355.21393,246 364.959418,246 C365.186057,246 365.865975,246 366.092614,245.773022 C366.319253,245.546045 366.545893,245.546045 366.545893,245.319067 C365.865975,240.55254 365.639336,235.559034 365.412696,230.792506 C365.186057,224.437136 365.412696,218.308743 365.639336,211.953372 C366.319253,197.199833 368.132367,182.219317 371.078677,167.919733 C372.211874,162.69925 373.34507,157.478767 374.931545,152.258284 L375.158184,151.350374 L376.064741,151.123397 C396.235634,148.172689 416.179887,142.044296 433.857748,131.830308 C448.13602,123.659117 461.281096,112.537218 471.253223,99.3725223 L475.786008,93.2441293 L473.519616,100.50741 C470.346666,110.494421 467.853635,124.567027 471.026584,134.781015 C475.786008,149.988509 492.104034,146.583846 501.849521,138.639633 C507.968781,133.646128 512.954844,126.609825 517.03435,119.800499 L519.754021,115.260949 L519.527382,120.481432 C519.300743,125.701915 519.980661,132.284263 524.060167,136.14288 C526.09992,138.185678 528.592952,139.320566 531.539262,139.547543 C535.845408,140.228476 540.378193,139.547543 544.23106,137.504746 C552.163433,133.646128 559.18925,125.24796 563.948674,117.757701 L566.441706,114.126061 L566.441706,118.438634 C566.441706,130.69542 572.560965,137.958701 585.252763,136.596836 C598.397839,135.23497 604.970377,127.97169 609.049883,122.070274 L605.197016,134.781015 C602.930624,140.909408 599.077757,150.215487 595.678168,155.889925 C590.012187,165.196003 582.079813,173.140216 570.521212,173.594171 C566.894984,174.048126 562.815478,173.140216 560.322446,170.189508 C558.282693,167.692756 557.829414,164.51507 558.282693,161.337385 C559.18925,157.024812 562.13556,153.166194 565.08187,149.988509 C556.469579,151.123397 547.404009,154.074105 541.284749,160.656453 C536.978604,165.196003 534.258933,171.324396 535.16549,177.679767 C536.072047,183.581182 539.924914,188.34771 544.910977,191.525395 C552.163433,195.837968 561.455642,196.518901 569.841294,195.837968 C582.759731,194.022148 595.224889,188.34771 604.517098,179.268609 C613.356029,170.643463 620.155206,153.847127 623.554795,142.271274 C626.274466,132.738218 628.540858,123.659117 631.03389,114.353039 C632.847004,107.770691 634.660118,101.188342 636.473232,94.6059944 C637.379789,91.4283091 638.286346,88.2506238 639.419542,85.2999161 C640.552738,81.6682758 641.685934,77.8096579 642.819131,74.1780176 C645.538802,65.0989168 648.485112,55.7928385 652.791257,47.3946703 C653.697814,45.5788501 654.604371,43.0820974 653.471175,41.0392997 C651.204783,37.4076594 643.499048,36.9537044 639.87282,37.1806819 C636.92651,37.4076594 634.206839,37.634637 631.940447,39.6774346 C628.08758,43.3090749 625.14127,56.2467936 623.781434,61.4672765 C622.194959,68.0496246 621.061763,74.6319727 619.475289,81.2143207 C617.662175,88.0236463 616.0757,93.4711068 612.222833,99.3725223 C609.276523,103.912073 603.383902,110.494421 597.94456,111.175353 C595.678168,111.402331 593.185136,111.175353 591.372022,109.359533 C588.199073,106.408825 588.652351,100.961365 589.10563,97.1027471 C590.012187,91.4283091 591.825301,85.5268936 593.865054,80.3064106 C595.904807,74.4049951 598.397839,68.7305571 600.890871,63.0561192 C601.797428,61.0133215 602.930624,58.5165688 603.610541,56.2467936 C604.06382,54.6579509 603.837181,53.2960858 603.157263,51.7072432 C602.024067,48.9835129 599.757674,47.6216478 596.811364,46.7137377 C594.091693,46.0328052 589.332269,44.8979176 586.385959,45.5788501 C584.572845,46.0328052 584.346206,46.4867602 583.666288,48.0756029 C582.533092,50.3453781 581.853174,52.6151533 581.173256,54.8849284 C580.493339,57.1547036 579.813421,59.1975013 579.133503,61.4672765 C575.960554,70.7733548 573.014244,80.3064106 570.747851,89.8394665 C569.841294,93.4711068 568.934737,97.1027471 568.254819,100.734387 L568.254819,100.961365 L568.02818,101.188342 C566.668345,103.23114 565.08187,105.273938 563.495395,107.316735 C560.775724,110.721398 556.469579,115.487926 551.710155,115.941881 C549.443762,116.168859 546.950731,115.941881 545.137617,114.126061 C541.964667,111.175353 542.191306,105.727893 542.644585,101.869275 C543.324503,96.194837 545.137617,90.2934215 547.17737,85.0729386 C548.763845,80.7603657 550.350319,76.6747703 552.163433,72.589175 C553.523269,69.4114897 554.883104,66.2338044 556.0163,63.2830967 C558.056054,58.5165688 555.336383,54.2039959 550.803598,52.3881757 C549.217123,51.7072432 546.497452,51.4802657 544.684338,51.2532881 C543.324503,51.0263106 541.738028,51.0263106 540.378193,50.7993331 C539.924914,50.7993331 539.698275,50.7993331 539.244996,50.7993331 C536.978604,51.0263106 536.298686,53.2960858 535.845408,55.3388835 C535.618768,56.019816 535.618768,56.7007486 535.392129,57.6086587 L534.938851,60.1054114 L533.352376,58.0626137 C529.27287,53.2960858 523.380249,52.3881757 517.487629,53.0691083 C505.24911,54.2039959 495.276983,63.0561192 488.251166,72.3621975 L484.17166,77.8096579 L485.984774,71.2273099 C489.837641,57.8356362 489.837641,43.0820974 482.811825,30.5983338 C478.0524,22.4271431 471.026584,16.5257276 462.187653,12.8940873 C449.949134,7.67360436 435.670862,7.21964932 422.525786,8.80849196 C405.754482,10.6243121 387.849982,16.2987501 372.665152,23.7890083 C353.400816,33.5490416 334.589759,48.7565354 322.804519,67.1417145 C318.498373,73.7240626 314.872145,81.4412982 313.51231,89.3855114 C312.605753,95.0599494 312.605753,101.188342 316.005341,106.181848 C319.858208,111.175353 326.657386,113.445129 333.229924,113.899084 L333.229924,113.899084 Z M387.623342,117.757701 C397.595469,94.3790169 410.287267,71.9082424 425.245457,51.2532881 C426.378653,49.6644455 425.698735,47.1676928 423.885621,46.4867602 C420.259393,45.1248951 416.633165,43.76303 412.780298,42.8551199 L408.247513,41.9472098 L412.553659,40.3583672 C423.432343,36.7267269 441.336843,34.6839292 451.762248,40.1313897 C460.827818,45.1248951 464.454046,53.9770184 462.414293,63.9640292 C460.601179,72.8161525 453.802001,82.3492083 447.909381,89.1585339 C437.937254,100.280432 424.792178,109.813488 410.740545,115.033971 C403.714729,117.530724 396.235634,119.346544 388.756538,119.800499 L386.716785,120.027477 L387.623342,117.757701 Z M497.090097,117.757701 C491.650755,116.395836 491.650755,107.997668 492.104034,103.685095 C492.557312,98.4646122 494.143787,93.2441293 496.18354,88.4776014 C498.676572,82.8031634 502.3028,76.9017479 506.835584,72.589175 C510.008534,69.4114897 514.767958,65.7798494 519.527382,66.4607819 C525.420002,67.5956695 527.006477,73.2701075 525.646642,78.4905905 C525.193363,80.3064106 524.740085,82.1222308 524.060167,83.938051 C522.473692,89.612489 520.433939,95.0599494 518.167547,100.50741 C516.127793,105.500915 512.728205,110.267443 508.648698,113.899084 C505.702388,116.395836 501.169603,118.892589 497.090097,117.757701 Z" id="Shape" fill="#FBFDFF"></path>
            </g>
        </g>
    </g>
</svg>