<svg viewBox="0 0 71 71" fill="none" xmlns="http://www.w3.org/2000/svg">
	<path fill-rule="evenodd" clip-rule="evenodd" d="M38.442 22.0115C39.705 21.9655 40.6882 20.8977 40.6431 19.6213C40.5983 18.3694 39.5418 17.3753 38.2784 17.4213C37.0157 17.4673 36.0321 18.5351 36.0765 19.7874C36.122 21.0635 37.1793 22.0576 38.442 22.0115Z" fill="white"/>
	<path fill-rule="evenodd" clip-rule="evenodd" d="M41.7634 46.1871C41.7634 46.1871 41.3325 47.8459 40.2814 49.5883C40.2643 49.6192 40.2456 49.6477 40.2278 49.6774C40.2122 49.7024 40.1978 49.7273 40.1823 49.7527V49.7516C39.4724 50.8507 38.4248 50.8976 38.3245 48.8056C38.22 46.4453 39.854 43.3081 41.2427 43.3479C42.5102 43.4163 42.1489 45.4145 41.7634 46.1871ZM31.246 48.0483C29.1337 50.9589 26.2979 52.2603 24.2607 52.6584C25.0988 49.595 26.3924 46.2176 28.2183 42.807C28.4129 42.4437 28.2144 41.9903 27.8173 41.9055C27.2577 41.786 26.5202 41.6426 26.0092 41.595C27.1955 41.1829 29.3451 40.3236 30.6006 40.697C30.6006 40.697 36.1412 41.3747 31.246 48.0483ZM56.2295 37.3798C55.5639 37.4841 55.5759 38.3199 55.4936 39.4139C55.4186 40.4275 55.1571 42.6386 54.7339 45.1493C54.1681 46.2523 53.5258 47.2425 52.8711 47.3968C50.3497 47.9908 52.2459 42.1973 52.6935 40.4666C52.8878 38.7437 51.2096 38.6671 50.0474 38.8363C49.7264 38.8855 49.5053 39.1476 49.4521 39.4745C49.0448 43.4331 48.6609 44.6576 48.4519 46.6035C47.9025 47.7334 47.2473 48.7482 46.5743 48.9064C44.0529 49.5005 45.9433 43.6819 46.3913 41.9516C46.591 40.2533 44.9124 40.1768 43.7506 40.3459C43.4296 40.3951 43.2027 40.6322 43.1553 40.9841C43.1471 41.1696 43.1141 41.3606 43.0993 41.5216C42.5507 41.0216 41.7867 40.8083 40.6716 41.0712C39.0866 41.4446 37.8105 42.7214 36.8892 44.3537C37.6726 39.0866 34.2675 34.7949 26.9224 36.6201C14.2566 39.7639 9.20592 53.9059 16.8324 53.222C16.9649 53.1981 13.7281 49.5407 23.6324 43.0862C19.0799 51.6573 12.6215 72.2096 23.2928 70.9441C23.3988 70.9249 23.5053 70.9058 23.5702 70.8097C23.6397 70.7406 23.705 70.6445 23.6592 70.5406C22.9943 68.0221 22.4418 62.4793 23.1875 57.5708C29.3129 55.8463 33.3505 52.3115 35.4037 48.6045C34.7867 52.1107 35.5786 55.3761 38.1291 54.7749C38.4928 54.6894 40.4279 54.548 42.0615 50.625C42.2223 52.4478 43.0993 53.604 45.0391 53.147C46.4325 52.8322 47.5858 51.328 48.4181 49.568C48.6788 51.1237 49.555 52.0834 51.3413 51.6624C52.263 51.4452 53.0891 50.7003 53.7854 49.7239C52.9344 53.0431 51.8053 55.9299 50.4045 56.2861C48.98 56.6482 47.9502 55.1608 49.8045 53.0989C43.517 54.3183 44.9699 61.5766 51.0802 60.1373C54.7405 59.2749 55.989 56.9099 56.5376 54.0551C57.1753 50.9167 58.8341 41.0642 58.8904 38.8496C58.9375 37.2657 57.3377 37.1974 56.2295 37.3798Z" fill="white"/>
	<path fill-rule="evenodd" clip-rule="evenodd" d="M25.2469 19.9653C25.5021 19.6111 25.351 19.1107 24.9387 18.9697C24.3578 18.7713 23.59 18.5241 23.051 18.4065C24.371 18.1323 26.7782 17.5171 28.0683 18.0733C28.0683 18.0733 33.8883 19.513 27.7811 25.8456C25.1415 28.6106 21.9444 29.5976 19.7183 29.7452C21.0188 26.6522 22.8467 23.2912 25.2469 19.9653ZM12.4834 47.4751C12.546 47.5333 12.607 47.5841 12.6665 47.631C13.2206 45.8913 14.2946 44.0208 15.7758 42.2994C16.0797 41.946 16.3987 41.6054 16.7274 41.2734C16.933 39.1466 17.3099 36.8695 17.9215 34.7404C37.1813 31.9071 40.3995 11.4966 24.6849 13.3249C10.757 14.9412 3.49387 29.0632 11.7195 29.3546C11.8641 29.3468 8.89616 25.0953 20.3178 19.6524C15.2011 26.7916 7.45573 42.8689 12.4834 47.4751Z" fill="white"/>
	<path fill-rule="evenodd" clip-rule="evenodd" d="M36.0086 37.324C37.7109 36.594 39.4244 34.5557 40.677 32.491C40.1853 35.0459 40.6404 37.1168 43.5884 36.9759C47.7798 36.7749 50.4293 30.8839 51.1663 28.1172C51.2349 27.8405 50.8471 27.6678 50.6966 27.9208C49.7393 29.4693 47.434 32.3114 46.1629 32.3723C44.2157 32.4654 46.1402 28.4397 47.5572 25.1483C48.0458 24.0045 48.8067 22.3291 49.3492 20.6095C51.6265 20.0362 53.6969 19.6912 54.9279 20.5066C55.291 20.7348 55.8975 20.3782 55.8759 19.9148C55.6584 16.4557 53.1255 16.1945 49.9257 16.7301C49.7747 15.2619 48.9419 14.2637 46.8325 14.3646C46.1564 14.3972 45.6092 14.8606 45.1714 15.3457C45.9246 15.8013 46.2041 16.5531 46.1691 17.5381C44.8772 17.8788 44.0386 18.4381 42.1479 17.4356C41.9254 17.3095 41.6832 17.3487 41.4722 17.4678C41.461 17.4768 41.4521 17.4884 41.441 17.4977C41.8811 18.0705 42.156 18.7788 42.1838 19.5542C42.198 19.9625 42.1418 20.3564 42.0309 20.7271C42.918 22.0935 44.1899 21.9356 44.985 21.747C44.6681 22.4999 44.3008 23.337 43.8807 24.204C43.4868 25.0749 42.6708 26.6948 41.9392 28.496C41.9354 28.5022 41.9296 28.5053 41.9254 28.5115C40.8915 30.1128 38.7502 33.1663 37.4017 33.2152C34.418 33.3231 37.8222 27.2929 38.7052 25.4657C39.2989 23.5912 37.4152 23.1383 36.0629 23.0716C35.6886 23.056 35.3814 23.299 35.2504 23.6514C33.6555 28.8631 32.9648 29.6409 32.1592 32.826C31.9347 33.7155 31.8381 34.5518 31.9093 35.2702C33.5631 35.5411 34.9578 36.2354 36.0086 37.324Z" fill="white"/>
	<path fill-rule="evenodd" clip-rule="evenodd" d="M60.843 39.0775V37.8168H60.5426V37.4263H61.5095V37.8168H61.2087V39.0775H60.843Z" fill="white"/>
	<path fill-rule="evenodd" clip-rule="evenodd" d="M63.2945 39.0775H62.92L62.8333 38.3638C62.8276 38.3132 62.8219 38.2573 62.8172 38.1955C62.8119 38.1342 62.8077 38.0666 62.8034 37.9936C62.7939 38.0639 62.7754 38.1507 62.7484 38.2557C62.7422 38.2775 62.738 38.2935 62.7351 38.3036L62.5351 39.0775H62.2686L62.0685 38.3036C62.0657 38.2935 62.0619 38.2775 62.0567 38.2557C62.0287 38.1507 62.0102 38.0639 62.0012 37.9947C61.9974 38.057 61.9927 38.1193 61.9875 38.18C61.9818 38.2418 61.9756 38.3025 61.968 38.3638L61.8822 39.0775H61.5095L61.7366 37.4263H62.133L62.3549 38.278C62.3563 38.2839 62.3587 38.2935 62.363 38.3073C62.3833 38.383 62.3961 38.4479 62.4018 38.5023C62.4047 38.473 62.4099 38.4405 62.417 38.4048C62.4241 38.3691 62.4345 38.326 62.4473 38.2759L62.6711 37.4263H63.0684L63.2945 39.0775Z" fill="white"/>
	<rect x="2" y="2" width="67" height="67" rx="13" stroke="white" stroke-width="4"/>
</svg>