<svg viewBox="0 0 154 45" fill="none" xmlns="http://www.w3.org/2000/svg">
<rect x="0.5" y="1" width="152.083" height="43" rx="4.5" fill="black"/>
<path d="M77.23 24.4261C74.6848 24.4261 72.6102 26.394 72.6102 29.1044C72.6102 31.7983 74.6848 33.7827 77.23 33.7827C79.7764 33.7827 81.8509 31.7983 81.8509 29.1044C81.8498 26.394 79.7753 24.4261 77.23 24.4261ZM77.23 31.9413C75.8351 31.9413 74.6328 30.772 74.6328 29.1055C74.6328 27.4214 75.8362 26.2697 77.23 26.2697C78.625 26.2697 79.8273 27.4214 79.8273 29.1055C79.8273 30.7709 78.625 31.9413 77.23 31.9413ZM67.1507 24.4261C64.6054 24.4261 62.5309 26.394 62.5309 29.1044C62.5309 31.7983 64.6054 33.7827 67.1507 33.7827C69.697 33.7827 71.7716 31.7983 71.7716 29.1044C71.7716 26.394 69.697 24.4261 67.1507 24.4261ZM67.1507 31.9413C65.7558 31.9413 64.5535 30.772 64.5535 29.1055C64.5535 27.4214 65.7569 26.2697 67.1507 26.2697C68.5456 26.2697 69.7479 27.4214 69.7479 29.1055C69.749 30.7709 68.5456 31.9413 67.1507 31.9413ZM55.1624 25.8627V27.8471H59.8352C59.6956 28.9636 59.3298 29.7787 58.7714 30.3452C58.0918 31.036 57.0281 31.7983 55.1624 31.7983C52.286 31.7983 50.0372 29.441 50.0372 26.5172C50.0372 23.5934 52.286 21.2361 55.1624 21.2361C56.7142 21.2361 57.8473 21.8565 58.6838 22.654L60.0614 21.2537C58.8926 20.1196 57.3419 19.2517 55.1624 19.2517C51.2222 19.2517 47.9097 22.5121 47.9097 26.5172C47.9097 30.5223 51.2222 33.7827 55.1624 33.7827C57.2889 33.7827 58.8937 33.0732 60.148 31.7444C61.4379 30.4332 61.8394 28.5896 61.8394 27.1013C61.8394 26.6415 61.8048 26.2158 61.7344 25.8616H55.1624V25.8627ZM104.193 27.4038C103.81 26.3588 102.642 24.4261 100.253 24.4261C97.8822 24.4261 95.9116 26.3225 95.9116 29.1044C95.9116 31.7268 97.8649 33.7827 100.479 33.7827C102.589 33.7827 103.809 32.4715 104.316 31.7092L102.747 30.6455C102.224 31.4254 101.509 31.9391 100.479 31.9391C99.4514 31.9391 98.7187 31.4606 98.248 30.5212L104.402 27.934L104.193 27.4038ZM97.9168 28.9636C97.8649 27.1552 99.2945 26.2345 100.324 26.2345C101.125 26.2345 101.805 26.6426 102.032 27.2267L97.9168 28.9636ZM92.914 33.5H94.9355V19.7489H92.914V33.5ZM89.6004 25.4722H89.5311C89.0777 24.9222 88.2054 24.4261 87.1081 24.4261C84.8063 24.4261 82.6972 26.482 82.6972 29.1231C82.6972 31.7455 84.8063 33.7838 87.1081 33.7838C88.2065 33.7838 89.0777 33.2877 89.5311 32.7212H89.6004V33.3944C89.6004 35.1841 88.6589 36.1411 87.1427 36.1411C85.9047 36.1411 85.1375 35.238 84.8236 34.4757L83.063 35.2204C83.5683 36.4601 84.9102 37.9847 87.1427 37.9847C89.5138 37.9847 91.519 36.5668 91.519 33.1106V24.711H89.6014V25.4722H89.6004ZM87.2823 31.9413C85.8874 31.9413 84.7198 30.7533 84.7198 29.1231C84.7198 27.4742 85.8874 26.2697 87.2823 26.2697C88.6589 26.2697 89.74 27.4742 89.74 29.1231C89.74 30.7533 88.6589 31.9413 87.2823 31.9413ZM113.667 19.7489H108.828V33.5H110.847V28.2904H113.666C115.904 28.2904 118.105 26.6437 118.105 24.0202C118.105 21.3967 115.905 19.7489 113.667 19.7489ZM113.719 26.3764H110.847V21.6629H113.719C115.228 21.6629 116.085 22.9334 116.085 24.0202C116.085 25.085 115.228 26.3764 113.719 26.3764ZM126.198 24.4019C124.736 24.4019 123.222 25.0564 122.596 26.5073L124.388 27.2674C124.771 26.5073 125.485 26.2587 126.233 26.2587C127.277 26.2587 128.339 26.8956 128.356 28.0275V28.1694C127.99 27.9571 127.207 27.6392 126.25 27.6392C124.319 27.6392 122.351 28.7183 122.351 30.7346C122.351 32.5749 123.936 33.7596 125.71 33.7596C127.067 33.7596 127.816 33.1403 128.286 32.4143H128.355V33.4758H130.305V28.2035C130.306 25.7637 128.512 24.4019 126.198 24.4019ZM125.954 31.938C125.294 31.938 124.371 31.6014 124.371 30.7698C124.371 29.7083 125.52 29.3013 126.512 29.3013C127.398 29.3013 127.817 29.496 128.356 29.7611C128.199 31.036 127.12 31.938 125.954 31.938ZM137.406 24.7022L135.092 30.6642H135.022L132.62 24.7022H130.445L134.047 33.0347L131.993 37.6701H134.099L139.652 24.7022H137.406ZM119.219 33.5H121.238V19.7489H119.219V33.5Z" fill="white"/>
<path d="M54.8096 11.7671C54.8096 12.6889 54.5412 13.4226 54.0034 13.9704C53.393 14.6216 52.5965 14.9472 51.6182 14.9472C50.6811 14.9472 49.8835 14.6172 49.2288 13.9572C48.573 13.2961 48.2451 12.4777 48.2451 11.5009C48.2451 10.523 48.573 9.70464 49.2288 9.04464C49.8835 8.38354 50.6811 8.05354 51.6182 8.05354C52.0836 8.05354 52.5284 8.14594 52.9504 8.32964C53.3735 8.51444 53.7122 8.75974 53.9655 9.06664L53.3952 9.64744C52.9655 9.12494 52.3736 8.86424 51.6172 8.86424C50.9332 8.86424 50.3424 9.10844 49.8435 9.59684C49.3446 10.0852 49.0957 10.7199 49.0957 11.4998C49.0957 12.2797 49.3446 12.9144 49.8435 13.4028C50.3424 13.8912 50.9332 14.1354 51.6172 14.1354C52.3422 14.1354 52.9472 13.8901 53.4309 13.3984C53.7447 13.0783 53.9265 12.6328 53.9752 12.0619H51.6172V11.2688H54.763C54.7955 11.4415 54.8096 11.6076 54.8096 11.7671Z" fill="white"/>
<path d="M59.7985 9.0106H56.842V11.1028H59.5085V11.8959H56.842V13.9881H59.7985V14.7999H56.0076V8.1999H59.7985V9.0106Z" fill="white"/>
<path d="M63.3165 14.7999H62.4822V9.0106H60.6684V8.1999H65.1302V9.0106H63.3165V14.7999Z" fill="white"/>
<path d="M68.3583 14.7999V8.1999H69.1926V14.7999H68.3583Z" fill="white"/>
<path d="M72.8928 14.7999H72.0584V9.0106H70.2447V8.1999H74.7065V9.0106H72.8928V14.7999Z" fill="white"/>
<path d="M83.1526 13.9474C82.5141 14.614 81.7209 14.9473 80.7718 14.9473C79.8228 14.9473 79.0295 14.614 78.3921 13.9474C77.7536 13.2808 77.4355 12.4646 77.4355 11.4999C77.4355 10.5352 77.7536 9.71899 78.3921 9.05239C79.0295 8.38579 79.8228 8.05139 80.7718 8.05139C81.7155 8.05139 82.5076 8.38689 83.1483 9.05679C83.7889 9.72669 84.1092 10.5407 84.1092 11.4999C84.1092 12.4646 83.79 13.2808 83.1526 13.9474ZM79.0079 13.3941C79.4884 13.8891 80.076 14.1355 80.7718 14.1355C81.4677 14.1355 82.0564 13.888 82.5358 13.3941C83.0163 12.8991 83.2576 12.2677 83.2576 11.4999C83.2576 10.7321 83.0163 10.1007 82.5358 9.60569C82.0564 9.11069 81.4677 8.86429 80.7718 8.86429C80.076 8.86429 79.4884 9.11179 79.0079 9.60569C78.5285 10.1007 78.2872 10.7321 78.2872 11.4999C78.2872 12.2677 78.5285 12.8991 79.0079 13.3941Z" fill="white"/>
<path d="M85.2802 14.7999V8.1999H86.2953L89.4509 13.3336H89.4866L89.4509 12.062V8.1999H90.2852V14.7999H89.4141L86.1124 9.4165H86.0767L86.1124 10.6881V14.7999H85.2802Z" fill="white"/>
<path d="M54.8096 11.7671C54.8096 12.6889 54.5412 13.4226 54.0034 13.9704C53.393 14.6216 52.5965 14.9472 51.6182 14.9472C50.6811 14.9472 49.8835 14.6172 49.2288 13.9572C48.573 13.2961 48.2451 12.4777 48.2451 11.5009C48.2451 10.523 48.573 9.70464 49.2288 9.04464C49.8835 8.38354 50.6811 8.05354 51.6182 8.05354C52.0836 8.05354 52.5284 8.14594 52.9504 8.32964C53.3735 8.51444 53.7122 8.75974 53.9655 9.06664L53.3952 9.64744C52.9655 9.12494 52.3736 8.86424 51.6172 8.86424C50.9332 8.86424 50.3424 9.10844 49.8435 9.59684C49.3446 10.0852 49.0957 10.7199 49.0957 11.4998C49.0957 12.2797 49.3446 12.9144 49.8435 13.4028C50.3424 13.8912 50.9332 14.1354 51.6172 14.1354C52.3422 14.1354 52.9472 13.8901 53.4309 13.3984C53.7447 13.0783 53.9265 12.6328 53.9752 12.0619H51.6172V11.2688H54.763C54.7955 11.4415 54.8096 11.6076 54.8096 11.7671Z" stroke="white" stroke-width="0.2" stroke-miterlimit="10"/>
<path d="M59.7985 9.0106H56.842V11.1028H59.5085V11.8959H56.842V13.9881H59.7985V14.7999H56.0076V8.1999H59.7985V9.0106Z" stroke="white" stroke-width="0.2" stroke-miterlimit="10"/>
<path d="M63.3165 14.7999H62.4822V9.0106H60.6684V8.1999H65.1302V9.0106H63.3165V14.7999Z" stroke="white" stroke-width="0.2" stroke-miterlimit="10"/>
<path d="M68.3583 14.7999V8.1999H69.1926V14.7999H68.3583Z" stroke="white" stroke-width="0.2" stroke-miterlimit="10"/>
<path d="M72.8928 14.7999H72.0584V9.0106H70.2447V8.1999H74.7065V9.0106H72.8928V14.7999Z" stroke="white" stroke-width="0.2" stroke-miterlimit="10"/>
<path d="M83.1526 13.9474C82.5141 14.614 81.7209 14.9473 80.7718 14.9473C79.8228 14.9473 79.0295 14.614 78.3921 13.9474C77.7536 13.2808 77.4355 12.4646 77.4355 11.4999C77.4355 10.5352 77.7536 9.71899 78.3921 9.05239C79.0295 8.38579 79.8228 8.05139 80.7718 8.05139C81.7155 8.05139 82.5076 8.38689 83.1483 9.05679C83.7889 9.72669 84.1092 10.5407 84.1092 11.4999C84.1092 12.4646 83.79 13.2808 83.1526 13.9474ZM79.0079 13.3941C79.4884 13.8891 80.076 14.1355 80.7718 14.1355C81.4677 14.1355 82.0564 13.888 82.5358 13.3941C83.0163 12.8991 83.2576 12.2677 83.2576 11.4999C83.2576 10.7321 83.0163 10.1007 82.5358 9.60569C82.0564 9.11069 81.4677 8.86429 80.7718 8.86429C80.076 8.86429 79.4884 9.11179 79.0079 9.60569C78.5285 10.1007 78.2872 10.7321 78.2872 11.4999C78.2872 12.2677 78.5285 12.8991 79.0079 13.3941Z" stroke="white" stroke-width="0.2" stroke-miterlimit="10"/>
<path d="M85.2802 14.7999V8.1999H86.2953L89.4509 13.3336H89.4866L89.4509 12.062V8.1999H90.2852V14.7999H89.4141L86.1124 9.4165H86.0767L86.1124 10.6881V14.7999H85.2802Z" stroke="white" stroke-width="0.2" stroke-miterlimit="10"/>
<g filter="url(#filter0_ii)">
<path d="M14.7886 8.79185C14.4737 9.13065 14.2876 9.65645 14.2876 10.3373V34.6649C14.2876 35.3469 14.4737 35.8716 14.7886 36.2104L14.8687 36.2896L28.2758 22.6617V22.5011V22.3405L14.8687 8.71155L14.7886 8.79185Z" fill="url(#paint0_linear)"/>
<path d="M32.7442 27.2057L28.2759 22.6616V22.501V22.3404L32.7452 17.7974L32.8459 17.8557L38.141 20.9137C39.6528 21.7871 39.6528 23.216 38.141 24.0905L32.8459 27.1485L32.7442 27.2057Z" fill="url(#paint1_linear)"/>
<g filter="url(#filter1_i)">
<path d="M32.8457 27.1474L28.2746 22.501L14.7886 36.2103C15.2864 36.7471 16.1099 36.8131 17.0373 36.2785L32.8457 27.1474Z" fill="url(#paint2_linear)"/>
</g>
<path d="M32.8457 17.8547L17.0373 8.72466C16.1099 8.18896 15.2864 8.25606 14.7886 8.79286L28.2757 22.5022L32.8457 17.8547Z" fill="url(#paint3_linear)"/>
</g>
<rect x="0.5" y="1" width="152.083" height="43" rx="4.5" stroke="#525457"/>
<defs>
<filter id="filter0_ii" x="14.2876" y="8.35498" width="24.9872" height="28.2928" filterUnits="userSpaceOnUse" color-interpolation-filters="sRGB">
<feFlood flood-opacity="0" result="BackgroundImageFix"/>
<feBlend mode="normal" in="SourceGraphic" in2="BackgroundImageFix" result="shape"/>
<feColorMatrix in="SourceAlpha" type="matrix" values="0 0 0 0 0 0 0 0 0 0 0 0 0 0 0 0 0 0 127 0" result="hardAlpha"/>
<feOffset dy="-0.15"/>
<feComposite in2="hardAlpha" operator="arithmetic" k2="-1" k3="1"/>
<feColorMatrix type="matrix" values="0 0 0 0 0 0 0 0 0 0 0 0 0 0 0 0 0 0 0.12 0"/>
<feBlend mode="normal" in2="shape" result="effect1_innerShadow"/>
<feColorMatrix in="SourceAlpha" type="matrix" values="0 0 0 0 0 0 0 0 0 0 0 0 0 0 0 0 0 0 127 0" result="hardAlpha"/>
<feOffset dy="0.15"/>
<feComposite in2="hardAlpha" operator="arithmetic" k2="-1" k3="1"/>
<feColorMatrix type="matrix" values="0 0 0 0 1 0 0 0 0 1 0 0 0 0 1 0 0 0 0.25 0"/>
<feBlend mode="normal" in2="effect1_innerShadow" result="effect2_innerShadow"/>
</filter>
<filter id="filter1_i" x="14.7886" y="22.501" width="18.0571" height="14.1467" filterUnits="userSpaceOnUse" color-interpolation-filters="sRGB">
<feFlood flood-opacity="0" result="BackgroundImageFix"/>
<feBlend mode="normal" in="SourceGraphic" in2="BackgroundImageFix" result="shape"/>
<feColorMatrix in="SourceAlpha" type="matrix" values="0 0 0 0 0 0 0 0 0 0 0 0 0 0 0 0 0 0 127 0" result="hardAlpha"/>
<feOffset dy="-0.15"/>
<feComposite in2="hardAlpha" operator="arithmetic" k2="-1" k3="1"/>
<feColorMatrix type="matrix" values="0 0 0 0 0 0 0 0 0 0 0 0 0 0 0 0 0 0 0.08 0"/>
<feBlend mode="normal" in2="shape" result="effect1_innerShadow"/>
</filter>
<linearGradient id="paint0_linear" x1="27.0873" y1="10.0799" x2="8.62958" y2="28.2385" gradientUnits="userSpaceOnUse">
<stop stop-color="#00A0FF"/>
<stop offset="0.0066" stop-color="#00A1FF"/>
<stop offset="0.2601" stop-color="#00BEFF"/>
<stop offset="0.5122" stop-color="#00D2FF"/>
<stop offset="0.7604" stop-color="#00DFFF"/>
<stop offset="1" stop-color="#00E3FF"/>
</linearGradient>
<linearGradient id="paint1_linear" x1="40.1089" y1="22.501" x2="13.9248" y2="22.501" gradientUnits="userSpaceOnUse">
<stop stop-color="#FFE000"/>
<stop offset="0.4087" stop-color="#FFBD00"/>
<stop offset="0.7754" stop-color="#FFA500"/>
<stop offset="1" stop-color="#FF9C00"/>
</linearGradient>
<linearGradient id="paint2_linear" x1="30.3633" y1="25.0243" x2="5.3323" y2="49.6497" gradientUnits="userSpaceOnUse">
<stop stop-color="#FF3A44"/>
<stop offset="1" stop-color="#C31162"/>
</linearGradient>
<linearGradient id="paint3_linear" x1="11.3921" y1="0.694445" x2="22.5691" y2="11.6903" gradientUnits="userSpaceOnUse">
<stop stop-color="#32A071"/>
<stop offset="0.0685" stop-color="#2DA771"/>
<stop offset="0.4762" stop-color="#15CF74"/>
<stop offset="0.8009" stop-color="#06E775"/>
<stop offset="1" stop-color="#00F076"/>
</linearGradient>
</defs>
</svg>
