<svg viewBox="0 0 162 126" fill="none" xmlns="http://www.w3.org/2000/svg">
	<path opacity="0.2" d="M14.0115 10.0564L66.6039 10.0564C70.3261 10.2676 73.8333 12.3775 76.3622 15.9268C78.891 19.476 80.2369 24.1774 80.1068 29.0076V47.2549C80.2369 52.0851 78.891 56.7865 76.3622 60.3358C73.8333 63.8851 70.3261 65.9949 66.6039 66.2062L61.4698 66.2062V81.0423L50.8888 66.2062H14.0115C10.2893 65.9949 6.78208 63.8851 4.2532 60.3358C1.72431 56.7865 0.378495 52.0851 0.508631 47.2549L0.508631 29.0076C0.378495 24.1774 1.72431 19.476 4.2532 15.9268C6.78208 12.3775 10.2893 10.2676 14.0115 10.0564Z" fill="#B7B7BB"/>
	<path opacity="0.2" d="M45.1077 126L126.918 126C132.708 125.71 138.164 122.808 142.098 117.928C146.031 113.048 148.125 106.584 147.923 99.942V74.852C148.125 68.2105 146.031 61.7461 142.098 56.8658C138.164 51.9855 132.708 49.0845 126.918 48.794H118.932V28.3943L102.472 48.794L45.1077 48.794C39.3176 49.0845 33.8619 51.9855 29.9281 56.8658C25.9943 61.7461 23.9008 68.2105 24.1032 74.852V99.942C23.9008 106.584 25.9943 113.048 29.9281 117.928C33.8619 122.808 39.3176 125.71 45.1077 126Z" fill="#B7B7BB"/>
	<path d="M103.329 27.7368H62.488C58.7944 27.7368 55.8001 30.7443 55.8001 34.4541V116.752C55.8001 120.462 58.7944 123.469 62.488 123.469H103.329C107.022 123.469 110.016 120.462 110.016 116.752V34.4541C110.016 30.7443 107.022 27.7368 103.329 27.7368Z" fill="#00001F"/>
	<path d="M101.033 32.8084H64.7175C62.7907 32.8084 61.2287 34.3773 61.2287 36.3126V113.92C61.2287 115.855 62.7907 117.424 64.7175 117.424H101.033C102.96 117.424 104.522 115.855 104.522 113.92V36.3126C104.522 34.3773 102.96 32.8084 101.033 32.8084Z" fill="#B7B7BB"/>
	<path d="M100.096 48.0231H65.6533C64.7976 48.0231 64.1039 48.7199 64.1039 49.5793V78.1502C64.1039 79.0096 64.7976 79.7064 65.6533 79.7064H100.096C100.952 79.7064 101.645 79.0096 101.645 78.1502V49.5793C101.645 48.7199 100.952 48.0231 100.096 48.0231Z" fill="#00001F"/>
	<path d="M100.096 36.5477H65.6533C64.7976 36.5477 64.1039 37.2445 64.1039 38.1039V44.0711C64.1039 44.9306 64.7976 45.6273 65.6533 45.6273H100.096C100.952 45.6273 101.645 44.9306 101.645 44.0711V38.1039C101.645 37.2445 100.952 36.5477 100.096 36.5477Z" fill="#FE5000"/>
	<path d="M97.1201 55.4457C98.2959 55.4457 99.2491 54.4883 99.2491 53.3074C99.2491 52.1264 98.2959 51.169 97.1201 51.169C95.9443 51.169 94.9911 52.1264 94.9911 53.3074C94.9911 54.4883 95.9443 55.4457 97.1201 55.4457Z" fill="#FE5000"/>
	<path d="M97.2091 62.622H69.4098C68.7942 62.622 68.2952 63.1232 68.2952 63.7416V67.9958C68.2952 68.6141 68.7942 69.1154 69.4098 69.1154H97.2091C97.8247 69.1154 98.3237 68.6141 98.3237 67.9958V63.7416C98.3237 63.1232 97.8247 62.622 97.2091 62.622Z" fill="white"/>
	<path d="M96.5406 72.3173H88.6712C88.0556 72.3173 87.5566 72.8186 87.5566 73.4369V75.3401C87.5566 75.9584 88.0556 76.4597 88.6712 76.4597H96.5406C97.1562 76.4597 97.6553 75.9584 97.6553 75.3401V73.4369C97.6553 72.8186 97.1562 72.3173 96.5406 72.3173Z" fill="#FE5000"/>
	<path d="M80.4671 73.2914H69.4098C68.7942 73.2914 68.2952 73.7926 68.2952 74.4109V74.4893C68.2952 75.1076 68.7942 75.6089 69.4098 75.6089H80.4671C81.0827 75.6089 81.5817 75.1076 81.5817 74.4893V74.4109C81.5817 73.7926 81.0827 73.2914 80.4671 73.2914Z" fill="white"/>
	<path d="M80.4671 52.1543H69.4098C68.7942 52.1543 68.2952 52.6555 68.2952 53.2738V53.3522C68.2952 53.9705 68.7942 54.4718 69.4098 54.4718H80.4671C81.0827 54.4718 81.5817 53.9705 81.5817 53.3522V53.2738C81.5817 52.6555 81.0827 52.1543 80.4671 52.1543Z" fill="white"/>
	<path d="M100.096 82.1134H65.6533C64.7976 82.1134 64.1039 82.8101 64.1039 83.6696V112.24C64.1039 113.1 64.7976 113.797 65.6533 113.797H100.096C100.952 113.797 101.645 113.1 101.645 112.24V83.6696C101.645 82.8101 100.952 82.1134 100.096 82.1134Z" fill="#00001F"/>
	<path d="M97.1201 89.536C98.2959 89.536 99.2491 88.5786 99.2491 87.3977C99.2491 86.2167 98.2959 85.2593 97.1201 85.2593C95.9443 85.2593 94.9911 86.2167 94.9911 87.3977C94.9911 88.5786 95.9443 89.536 97.1201 89.536Z" fill="#FE5000"/>
	<path d="M97.2091 96.7012H69.4098C68.7942 96.7012 68.2952 97.2024 68.2952 97.8207V102.075C68.2952 102.693 68.7942 103.195 69.4098 103.195H97.2091C97.8247 103.195 98.3237 102.693 98.3237 102.075V97.8207C98.3237 97.2024 97.8247 96.7012 97.2091 96.7012Z" fill="white"/>
	<path d="M96.5406 106.396H88.6712C88.0556 106.396 87.5566 106.898 87.5566 107.516V109.419C87.5566 110.037 88.0556 110.539 88.6712 110.539H96.5406C97.1562 110.539 97.6553 110.037 97.6553 109.419V107.516C97.6553 106.898 97.1562 106.396 96.5406 106.396Z" fill="#FE5000"/>
	<path d="M80.4671 107.37H69.4098C68.7942 107.37 68.2952 107.872 68.2952 108.49V108.568C68.2952 109.187 68.7942 109.688 69.4098 109.688H80.4671C81.0827 109.688 81.5817 109.187 81.5817 108.568V108.49C81.5817 107.872 81.0827 107.37 80.4671 107.37Z" fill="white"/>
	<path d="M80.4671 86.2333H69.4098C68.7942 86.2333 68.2952 86.7345 68.2952 87.3528V87.4312C68.2952 88.0495 68.7942 88.5507 69.4098 88.5507H80.4671C81.0827 88.5507 81.5817 88.0495 81.5817 87.4312V87.3528C81.5817 86.7345 81.0827 86.2333 80.4671 86.2333Z" fill="white"/>
	<path d="M123.525 65.1622H153.899C155.969 65.1622 157.953 65.9878 159.416 67.4575C160.88 68.9272 161.702 70.9206 161.702 72.999V80.556C161.702 82.6344 160.88 84.6277 159.416 86.0974C157.953 87.5671 155.969 88.3928 153.899 88.3928H150.934V94.5279L144.826 88.3928H123.525C121.456 88.3928 119.471 87.5671 118.008 86.0974C116.545 84.6277 115.723 82.6344 115.723 80.556V72.999C115.723 71.9699 115.924 70.9508 116.316 70C116.709 69.0492 117.283 68.1853 118.008 67.4575C118.732 66.7298 119.593 66.1525 120.539 65.7587C121.486 65.3649 122.5 65.1622 123.525 65.1622Z" fill="#FE5000"/>
	<path d="M145.763 77.0911C145.763 74.9548 147.487 73.223 149.614 73.223C151.741 73.223 153.465 74.9548 153.465 77.0911C153.465 79.2273 151.741 80.9591 149.614 80.9591C147.487 80.9591 145.763 79.2273 145.763 77.0911Z" fill="white"/>
	<path d="M134.46 77.0911C134.46 74.9548 136.184 73.223 138.311 73.223C140.438 73.223 142.162 74.9548 142.162 77.0911C142.162 79.2273 140.438 80.9591 138.311 80.9591C136.184 80.9591 134.46 79.2273 134.46 77.0911Z" fill="white"/>
	<path d="M123.168 77.0911C123.168 74.9548 124.893 73.223 127.02 73.223C129.146 73.223 130.871 74.9548 130.871 77.0911C130.871 79.2273 129.146 80.9591 127.02 80.9591C124.893 80.9591 123.168 79.2273 123.168 77.0911Z" fill="white"/>
	<path d="M133.582 8.4913L110.54 8.4913C108.909 8.56295 107.372 9.27869 106.264 10.4827C105.156 11.6868 104.567 13.2816 104.624 14.9202L104.624 21.1103C104.567 22.7488 105.156 24.3437 106.264 25.5477C107.372 26.7518 108.909 27.4675 110.54 27.5392L112.789 27.5392L112.789 32.5721L117.425 27.5392L133.582 27.5392C135.213 27.4675 136.75 26.7518 137.858 25.5477C138.966 24.3437 139.556 22.7488 139.499 21.1103L139.499 14.9202C139.556 13.2816 138.966 11.6868 137.858 10.4827C136.75 9.2787 135.213 8.56296 133.582 8.4913Z" fill="#B7B7BB"/>
	<path d="M127.84 18.2679C127.84 20.0203 129.255 21.441 131 21.441C132.745 21.441 134.159 20.0203 134.159 18.2679C134.159 16.5154 132.745 15.0947 131 15.0947C129.255 15.0947 127.84 16.5154 127.84 18.2679Z" fill="white"/>
	<path d="M118.578 18.2679C118.578 20.0203 119.992 21.441 121.737 21.441C123.482 21.441 124.896 20.0203 124.896 18.2679C124.896 16.5154 123.482 15.0947 121.737 15.0947C119.992 15.0947 118.578 16.5154 118.578 18.2679Z" fill="white"/>
	<path d="M109.305 18.2679C109.305 20.0203 110.72 21.441 112.465 21.441C114.209 21.441 115.624 20.0203 115.624 18.2679C115.624 16.5154 114.209 15.0947 112.465 15.0947C110.72 15.0947 109.305 16.5154 109.305 18.2679Z" fill="white"/>
	<path d="M43.391 42.4153L25.2703 42.4153C23.9878 42.4716 22.7794 43.0345 21.908 43.9813C21.0367 44.9282 20.573 46.1824 20.6178 47.471L20.6178 52.3389C20.573 53.6274 21.0367 54.8816 21.908 55.8285C22.7794 56.7753 23.9878 57.3382 25.2703 57.3945L27.0392 57.3945L27.0392 61.3524L30.6849 57.3945L43.391 57.3945C44.6735 57.3382 45.8819 56.7753 46.7532 55.8285C47.6245 54.8816 48.0883 53.6274 48.0434 52.3389L48.0434 47.471C48.0883 46.1824 47.6246 44.9282 46.7532 43.9813C45.8819 43.0345 44.6735 42.4716 43.391 42.4153Z" fill="white"/>
	<path d="M38.8754 50.1035C38.8754 51.4817 39.9877 52.5989 41.3598 52.5989C42.7319 52.5989 43.8442 51.4817 43.8442 50.1035C43.8442 48.7254 42.7319 47.6082 41.3598 47.6082C39.9877 47.6082 38.8754 48.7254 38.8754 50.1035Z" fill="#FE5000"/>
	<path d="M31.5913 50.1035C31.5913 51.4817 32.7036 52.5989 34.0757 52.5989C35.4478 52.5989 36.5601 51.4817 36.5601 50.1035C36.5601 48.7254 35.4478 47.6082 34.0757 47.6082C32.7036 47.6082 31.5913 48.7254 31.5913 50.1035Z" fill="#FE5000"/>
	<path d="M24.2994 50.1035C24.2994 51.4817 25.4117 52.5989 26.7838 52.5989C28.1559 52.5989 29.2682 51.4817 29.2682 50.1035C29.2682 48.7254 28.1559 47.6082 26.7838 47.6082C25.4117 47.6082 24.2994 48.7254 24.2994 50.1035Z" fill="#FE5000"/>
</svg>