<svg viewBox="0 0 28 23" fill="none" xmlns="http://www.w3.org/2000/svg">
	<path d="M25.2006 6C25.2357 6.14103 25.2533 6.37019 25.2533 6.6875C25.2533 8.55609 24.9017 10.4247 24.1986 12.2933C23.4955 14.1266 22.4935 15.8189 21.1927 17.3702C19.9271 18.8862 18.2748 20.1202 16.2357 21.0721C14.1967 22.024 11.9467 22.5 9.48572 22.5C6.39197 22.5 3.56189 21.6715 0.995483 20.0144C1.3822 20.0497 1.82166 20.0673 2.31384 20.0673C4.88025 20.0673 7.18298 19.274 9.22204 17.6875C7.99158 17.6875 6.90173 17.3349 5.95251 16.6298C5.03845 15.8894 4.40564 14.9728 4.05408 13.8798C4.40564 13.9151 4.73962 13.9327 5.05603 13.9327C5.54822 13.9327 6.0404 13.8798 6.53259 13.774C5.68884 13.5978 4.93298 13.2452 4.26501 12.7163C3.59705 12.1875 3.0697 11.5529 2.68298 10.8125C2.29626 10.0369 2.10291 9.20833 2.10291 8.32692V8.22115C2.87634 8.67949 3.70251 8.92628 4.58142 8.96154C2.92908 7.83333 2.10291 6.28205 2.10291 4.30769C2.10291 3.32051 2.36658 2.38622 2.89392 1.50481C4.26501 3.23237 5.93494 4.60737 7.90369 5.62981C9.90759 6.65224 12.0345 7.21635 14.2845 7.32212C14.2142 6.89904 14.1791 6.47596 14.1791 6.05288C14.1791 4.53686 14.7064 3.23237 15.7611 2.13942C16.8509 1.04647 18.1517 0.5 19.6634 0.5C21.2806 0.5 22.6341 1.08173 23.724 2.24519C24.9896 1.9984 26.1674 1.55769 27.2572 0.923077C26.8353 2.22756 26.0267 3.25 24.8314 3.99038C25.8861 3.84936 26.9408 3.54968 27.9955 3.09135C27.222 4.21955 26.2904 5.1891 25.2006 6Z" />
</svg>