<svg id="Layer_3" data-name="Layer 3" xmlns="http://www.w3.org/2000/svg" viewBox="0 0 496 400"><defs><style>.cls-1{fill:#67ac5c;}.cls-2{fill:#85bd7d;}.cls-3{fill:#e0e0e0;}.cls-4{fill:#f5f5f5;}.cls-5{fill:#f7c244;}.cls-6{fill:#fddfb1;}.cls-7{fill:#f9ce69;}.cls-8{fill:#fde5c1;}</style></defs><path class="cls-1" d="M16,176H448V408a40,40,0,0,1-40,40H56a40,40,0,0,1-40-40V176Z" transform="translate(-8 -56)"/><path class="cls-2" d="M16,176V352H360a24,24,0,0,0,24-24V176Z" transform="translate(-8 -56)"/><circle class="cls-3" cx="384" cy="112" r="104"/><path class="cls-4" d="M392,64a104,104,0,0,0-96,144H432a24,24,0,0,0,24-24V86.14A103.47,103.47,0,0,0,392,64Z" transform="translate(-8 -56)"/><path class="cls-3" d="M48,208H272V352H48Z" transform="translate(-8 -56)"/><path class="cls-4" d="M48,208V312H208a24,24,0,0,0,24-24V208Z" transform="translate(-8 -56)"/><path class="cls-5" d="M440,224H344V192a16,16,0,0,1,16-16h64a16,16,0,0,1,16,16v32Z" transform="translate(-8 -56)"/><path class="cls-6" d="M392,160h0a24,24,0,0,1-24-24V120a24,24,0,0,1,24-24h0a24,24,0,0,1,24,24v16A24,24,0,0,1,392,160Z" transform="translate(-8 -56)"/><path class="cls-7" d="M392,208a24,24,0,0,0,24-24v-8H360a16,16,0,0,0-16,16v16Z" transform="translate(-8 -56)"/><path class="cls-8" d="M392,96a24,24,0,0,0-24,24v16a23.75,23.75,0,0,0,1.47,8H376a24,24,0,0,0,24-24V97.47A23.75,23.75,0,0,0,392,96Z" transform="translate(-8 -56)"/><path d="M424,168H360a24,24,0,0,0-24,24v32a8,8,0,0,0,8,8h96a8,8,0,0,0,8-8V192A24,24,0,0,0,424,168Zm8,48H352V192a8,8,0,0,1,8-8h64a8,8,0,0,1,8,8Z" transform="translate(-8 -56)"/><path d="M424,136V120a32,32,0,0,0-64,0v16a32,32,0,0,0,64,0Zm-16,0a16,16,0,0,1-32,0V120a16,16,0,0,1,32,0Z" transform="translate(-8 -56)"/><path d="M504,168a112,112,0,0,0-224,0H16a8,8,0,0,0-8,8V408a48.05,48.05,0,0,0,48,48H408a48.05,48.05,0,0,0,48-48V259.78A111.88,111.88,0,0,0,504,168ZM408,440H56a32,32,0,0,1-32-32V392H440v16A32,32,0,0,1,408,440Zm32-64H24V184H281.28A111.58,111.58,0,0,0,440,269ZM392,264a96,96,0,1,1,96-96A96,96,0,0,1,392,264Z" transform="translate(-8 -56)"/><path d="M96,304a8,8,0,0,1-8-8H72a24,24,0,0,0,16,22.53V328h16v-9.47A23.95,23.95,0,0,0,96,272a8,8,0,1,1,8-8h16a24,24,0,0,0-16-22.53V232H88v9.47A23.95,23.95,0,0,0,96,288a8,8,0,0,1,0,16Z" transform="translate(-8 -56)"/><path d="M160,304a8,8,0,0,1-8-8H136a24,24,0,0,0,16,22.53V328h16v-9.47A23.95,23.95,0,0,0,160,272a8,8,0,1,1,8-8h16a24,24,0,0,0-16-22.53V232H152v9.47A23.95,23.95,0,0,0,160,288a8,8,0,0,1,0,16Z" transform="translate(-8 -56)"/><path d="M224,304a8,8,0,0,1-8-8H200a24,24,0,0,0,16,22.53V328h16v-9.47A23.95,23.95,0,0,0,224,272a8,8,0,1,1,8-8h16a24,24,0,0,0-16-22.53V232H216v9.47A23.95,23.95,0,0,0,224,288a8,8,0,0,1,0,16Z" transform="translate(-8 -56)"/><path d="M272,200H48a8,8,0,0,0-8,8V352a8,8,0,0,0,8,8H272a8,8,0,0,0,8-8V208A8,8,0,0,0,272,200Zm-8,144H56V216H264Z" transform="translate(-8 -56)"/><path d="M296,344H424v16H296Z" transform="translate(-8 -56)"/><path d="M296,312h56v16H296Z" transform="translate(-8 -56)"/><path d="M368,312h56v16H368Z" transform="translate(-8 -56)"/></svg>