<?xml version="1.0" encoding="utf-8"?>
<!-- Generator: Adobe Illustrator 24.0.1, SVG Export Plug-In . SVG Version: 6.00 Build 0)  -->
<svg version="1.1" id="Layer_1" xmlns="http://www.w3.org/2000/svg" xmlns:xlink="http://www.w3.org/1999/xlink" x="0px" y="0px"
	 viewBox="0 0 760.9 581.9" style="enable-background:new 0 0 760.9 581.9;" xml:space="preserve">
<style type="text/css">
	.st0{fill:#000033;}
	.st1{fill:#0056A7;}
	.st2{fill-rule:evenodd;clip-rule:evenodd;fill:#000033;}
</style>
<title>Kart Pass - Powered by Pit Pay Logo</title>
<path class="st0" d="M284.4,363.6c-1.2,6.4-1.8,9.5-3,15.9l-14.3,2.1c4.9-25.8,7.3-38.7,12.2-64.2l64.5-8
	c10.6-1.3,13.3,3.2,11.5,12.3c-1.4,7-2.1,10.5-3.5,17.5c-2.1,10.8-6.8,15.9-17.3,17.3L284.4,363.6z M340.4,327
	c0.7-3.6-0.4-5.3-4.1-4.8l-45.1,5.8c-1.8,9.4-2.7,14.1-4.5,23.6l45-6.1c3.7-0.5,5.5-2.6,6.4-6.6C339,334,339.5,331.7,340.4,327
	L340.4,327z"/>
<path class="st0" d="M440.9,356.3c1-4.7,1.5-7.1,2.4-11.8l58.5-8.3c3.7-0.5,5.7-2.6,6.4-6.1l0.6-2.8c0.7-3.2-0.3-5-4.1-4.5l-44.4,6
	c-10.5,1.4-13.3-3-11.4-11.8l1.6-7.6c1.8-8.8,6.7-14.1,17.1-15.4l62.4-7.7c-1,4.5-1.5,6.8-2.5,11.3l-57.2,7.3
	c-3.8,0.5-5.7,2.4-6.4,5.9l-0.5,2.4c-0.7,3.4,0.3,5.1,4.2,4.6l44.3-5.9c10.6-1.4,13.3,2.9,11.5,11.5l-1.8,8.1
	c-1.9,8.6-6.7,13.9-17.2,15.4L440.9,356.3z"/>
<path class="st0" d="M527.3,343.8c1-4.6,1.5-6.9,2.5-11.4l58.5-8.2c3.3-0.2,5.9-2.7,6.4-5.9c0.2-1.1,0.4-1.6,0.6-2.7
	c0.7-3.1-0.3-4.9-4-4.4l-44.4,6c-10.5,1.4-13.2-2.8-11.4-11.4c0.7-3,1-4.5,1.6-7.4c1.9-8.5,6.7-13.6,17.2-14.9l62.4-7.7
	c-1,4.4-1.5,6.6-2.5,11l-57.2,7.3c-3.8,0.5-5.7,2.4-6.4,5.7c-0.2,0.9-0.3,1.4-0.5,2.3c-0.7,3.3,0.3,5,4.1,4.4l44.3-5.9
	c10.6-1.4,13.3,2.7,11.4,11c-0.7,3.1-1.1,4.7-1.8,7.8c-1.9,8.4-6.7,13.5-17.3,15L527.3,343.8z"/>
<path class="st0" d="M425.6,299.3c-0.4,0.1-24.9,3.2-41.4,5.2c-12.9,1.6-20.2,9.1-22.9,22.5c-3.3,16.8-5,25.2-8.3,42.2l14.3-2.1
	c1.2-6.3,1.9-9.5,3.1-15.7l50.4-7c-1.2,6.1-1.9,9.2-3.1,15.3l14.3-2.1c3.4-16.5,5.1-24.7,8.5-41
	C443.1,303.6,438.5,297.8,425.6,299.3z M372.8,339.5c1-5.1,1.5-7.7,2.6-12.9c1.1-5.6,4.1-8.7,9.2-9.4l37.2-4.8c3.8-0.5,5,2.6,4,7.4
	c-1,5.1-1.6,7.7-2.6,12.8L372.8,339.5z"/>
<path class="st0" d="M181.4,329.4l-15,1.9c-4.8,26.6-7.1,39.9-11.9,66.8l15-2.2C174.3,369.2,176.6,355.9,181.4,329.4z"/>
<path class="st0" d="M264.3,319.2l-14.4,1.8l-0.6,0.1l-14.4,1.8c-4.8,26-7.2,39-12,65.3l29.3-4.3C257,357.9,259.4,344.9,264.3,319.2
	z"/>
<path class="st1" d="M219,324.8l-6.8,0.8l-8.2,1l-6.8,0.8c-4.8,26.3-7.2,39.5-11.9,66.2l21.8-3.2C211.8,364,214.2,350.9,219,324.8z"
	/>
<polygon class="st2" points="612.1,333.8 612.1,329.1 610.7,329.1 610.7,327.6 615.1,327.6 615.1,329.1 613.7,329.1 613.7,333.8 
	612.1,333.8 "/>
<path class="st2" d="M623,333.8h-1.6l-0.4-2.7c0-0.2,0-0.4-0.1-0.6s0-0.5-0.1-0.8c-0.1,0.3-0.1,0.7-0.2,1c0,0.1,0,0.1,0,0.2
	l-0.8,2.9h-1.1l-0.8-2.9v-0.2c-0.1-0.3-0.2-0.7-0.2-1c0,0.2,0,0.5,0,0.7c0,0.2,0,0.4-0.1,0.7l-0.4,2.7h-1.6l0.9-6.1h1.7l0.9,3.2
	c0,0,0,0.1,0,0.1c0.1,0.2,0.1,0.5,0.2,0.7c0-0.1,0-0.2,0.1-0.4c0-0.1,0-0.3,0.1-0.5l0.9-3.2h1.7L623,333.8z"/>
<path class="st0" d="M432.8,275.5c-3.1-12.5-5.4-21.8-9.1-36.6l-0.1-0.5l0.1-0.5c4.4-19.6,6.5-29.1,11-48.6c2.6-12,7.7-19.8,25.3-21
	l66.1-5.1c2.1-0.2,4.1-0.2,5.9-0.2c10.3,0,17.2,2.5,21.3,7.5c4.7,5.9,5.4,15.1,2.1,29.7c-6.2,27.3-18.7,41.6-38.2,43.7
	c-0.6,0.1-1.3,0.1-2,0.1c3.3,3.5,8.9,9.2,14,14.5c4.2,4.3,8.5,8.7,12,12.5l3,3.1l-4.3,0.5c-8.8,1-15.5,1.9-22,2.7
	c-6.5,0.8-13.2,1.7-22,2.7l-1.3,0.2l-0.7-1.1c-3.6-5.6-7.3-11.5-10.8-17.2c-3.2-5.3-6.6-10.7-10-15.9l-0.1-0.1
	c-2.5-4.5-4.9-8.7-1.4-16.7c3.1-7.1,10-10.7,22.9-12l0.6-0.1c0.1,0,0.3,0,0.7-0.1c9.8-0.9,13.1-3.7,15-12.2c0.8-3.7,0.8-5.9-0.1-7
	c-0.8-1-2.5-1.4-5.4-1.4c-1.1,0-2.3,0.1-3.7,0.2l-18.9,1.7c-4.4,0.4-6.6,2.2-7.4,6.1l-0.1,0.4c-6.5,30.1-10.1,46.7-16.8,78.4
	l-0.3,1.5l-1.5,0.2l-2.9,0.4c-3.9,0.5-10.4,1.3-15.9,2l-1.9,0.2L432.8,275.5z"/>
<path class="st1" d="M510.4,242.1c2.1-0.2,4.3-0.2,6.4-0.4c24.7-2.6,32.8-26.4,36.4-42c5.3-23.4,1.4-36.5-27-34.3l-66.1,5
	c-16.3,1.2-20.9,8-23.3,19.3c-4.4,19.3-6.6,29.1-11,48.6l11.6,46.5c7.6-0.9,17.4-2.2,18.7-2.3c6.7-31.8,10.2-48,16.9-78.8
	c1-4.8,4-7.3,9.3-7.8l19-1.6c10.6-0.9,13.6,1.3,11.5,10.8c-2.1,9.5-6.3,12.9-16.9,13.9c-0.9,0.1-0.5,0.1-1.3,0.1
	c-12.4,1.3-18.4,4.6-21.1,10.8c-3,6.9-1.1,10.4,1.3,14.7c7,10.8,13.8,22.4,20.8,33c17.6-2.1,26.3-3.3,44-5.4
	C528.3,260.8,510.3,242.4,510.4,242.1z"/>
<path class="st0" d="M167.1,317.4c7.4-40.9,15.5-84.8,23.4-127l0.3-1.6l44.5-3.4l-0.6,2.8c-7.6,39.2-15.2,80.1-22.5,119.7L211,315
	l-1.6,0.2c-7.9,0.9-13.9,1.7-19.9,2.4l-20,2.4l-2.9,0.3L167.1,317.4z"/>
<path class="st1" d="M169.2,317.9c16-1.9,24-2.9,39.9-4.8c7.6-41.1,15.6-84.2,23.5-125.3l-40.1,3.1
	C184.9,232.5,176.8,276.2,169.2,317.9z"/>
<path class="st0" d="M576.8,267.1c7.3-32.2,11-48.2,18-78.6l-32.1,2.8l0.7-2.9c2.5-10.8,3.7-16.2,6.2-26.9l0.4-1.5l108.9-8.3
	l-0.7,2.9c-2.5,10.3-3.8,15.5-6.3,25.8l-0.4,1.5l-32.1,2.8c-7.4,30.8-11.1,46.6-18.5,78.8l-0.3,1.5l-44.4,5.3L576.8,267.1z"/>
<path class="st1" d="M676,153.9l-104.3,8c-2.5,10.7-3.7,16.1-6.2,26.9l32.1-2.8c-7.5,32.3-11.3,48.6-18.7,81.5l39.9-4.7
	c7.5-32.5,11.3-48.5,18.8-80.3l32.1-2.8C672.2,169.4,673.5,164.2,676,153.9z"/>
<path class="st0" d="M261,307.6c-11.9-18.1-18.5-28.2-29.4-44.9c-7.1-11.5-6.1-19.4,4.1-31.4c16.9-19.8,25.2-29.4,42.2-48.6l0.6-0.7
	l54.3-4.2l-4.2,4.2c-12.8,12.6-22.6,22.9-33,33.9c-6.8,7.2-13.9,14.7-22.2,23.2c-4.6,4.9-4.6,6.5-0.2,12.1c8.2,10.5,14.6,18,21.3,26
	c5.5,6.5,11.2,13.3,18.1,21.9l2.4,3l-3.9,0.5c-8.7,1-23.4,2.9-34.1,4.2l-13.9,1.7l-1.3,0.2L261,307.6z"/>
<path class="st1" d="M310.8,300.5c-15.1-18.8-24.2-28.5-39.3-47.8c-5.1-6.4-5.1-9.1,0.3-14.9c21-21.6,34-36.3,55.2-57.2l-33.6,2.6
	l-13.9,1.1c-16.9,19.1-25.3,28.8-42.2,48.5c-10.2,12-10.1,18.8-3.9,28.8c11.4,17.5,18,27.6,29.4,44.9
	C268,305.8,296.7,302.2,310.8,300.5z"/>
<path class="st0" d="M320,301c-9.1-11.4-13.5-17-22.6-28.5l-0.9-1.2l0.8-1.3c19.1-32.1,28.4-47.4,47.6-78.3l0.1-0.1
	c7.1-9.8,12.9-15.8,33-17.4c1.5-0.1,3.1-0.2,4.5-0.2c16.2,0,21.6,7.4,23.3,13.6c9.8,39.7,14.7,59.5,24.5,98.8l0.6,2.4l-46.6,5.6
	l-4.8-23.2l-41.7,4.6c-5.5,9.6-8.4,14.7-14.1,24.9l-1.6,2.8L320,301z M370.3,217.3c-6,10-9.7,16.4-15,25.6l19.1-1.9
	c-0.8-4.4-2-11.2-3-17.2C371.1,221.4,370.7,219.2,370.3,217.3L370.3,217.3z"/>
<path class="st1" d="M428.2,287c-9.8-39.3-14.7-59.1-24.5-98.8c-2.3-8.7-10.9-13-25.6-11.9c-19.2,1.4-24.5,6.9-31.4,16.5
	c-19.1,30.8-28.6,46.4-47.6,78.3c9,11.5,13.6,17.1,22.6,28.4c5.9-10.4,8.8-15.6,14.6-25.9l44.8-4.9c0.1,0.4,0.1,0.6,0.2,1
	c1.8,8.9,2.8,13.3,4.6,22.2l10.7-1.3L428.2,287z M371.5,211.2c0.8,4.3,4.3,24.5,5.6,31.7l-14,1.4l-11.6,1.2
	C358.8,232.4,362.8,225.5,371.5,211.2z"/>
</svg>
