
<svg viewBox="0 0 83 83" version="1.1" xmlns="http://www.w3.org/2000/svg" >
    
    <g  stroke="none" stroke-width="1">
        <g transform="translate(-83.000000, -548.000000)">
            <g transform="translate(-21.000000, 470.000000)">
                <g transform="translate(31.000000, 0.000000)">
                    <g  transform="translate(73.000000, 64.000000)">
                        <path d="M69.6510812,36.3970565 C69.5388786,35.5744782 69.3861059,34.752533 69.1952984,33.9432526 C67.8767614,28.3574447 64.6685328,23.2934265 60.1607846,19.68396 C55.583306,16.0187683 49.8254833,14 43.9472173,14 C38.4182368,14 33.1415533,15.7129135 28.6870538,18.9538346 C28.136818,19.3540421 28.0157409,20.1246948 28.4163733,20.6743469 C28.8170057,21.223999 29.5878427,21.3449479 30.1387122,20.9447403 C34.1684907,18.012207 38.9437498,16.4626693 43.9472173,16.4626693 C49.3437102,16.4626693 54.416908,18.2408065 58.6184767,21.6052093 C62.6989682,24.8727264 65.602919,29.4548493 66.7959415,34.5081023 C67.0399976,35.5434494 67.2149573,36.6009598 67.3151155,37.6515046 C67.3588554,38.2803116 67.8761276,38.7812043 68.5163786,38.7957687 C71.7417229,38.8698577 74.7629475,40.1800309 77.0234777,42.4850235 C79.2871775,44.7944489 80.5340824,47.8466643 80.5340824,51.07872 C80.5340824,57.8556519 75.0133428,63.3692704 68.2273147,63.3692704 L52.5031276,63.3692704 L54.9614384,60.6102448 C55.2840996,60.2480315 55.3639724,59.7300415 55.1649241,59.2874069 C54.9665097,58.8447723 54.5259408,58.5604477 54.0403641,58.5604477 L47.7373771,58.5604477 L58.6539758,37.7490234 C58.9303614,37.2215348 58.7896329,36.5711975 58.3186364,36.2058182 C57.8476397,35.8398056 57.182032,35.8632356 56.7382936,36.2615433 L26.5057625,63.3692704 L19.2347919,63.3692704 C9.98791749,63.3692704 2.46528373,55.8552475 2.46528373,46.6194458 C2.46528373,37.3830109 9.98791749,29.8683548 19.2347919,29.8683548 C20.0309854,29.8683548 20.8557048,29.9285125 21.6854956,30.0475617 C22.2097409,30.1222839 22.7238435,29.8550568 22.9615606,29.3826599 C23.9213033,27.4797745 25.1390482,25.7124023 26.5805642,24.1312027 C27.0388826,23.6284103 27.0021156,22.8495255 26.4987894,22.3916931 C25.9954633,21.9338607 25.2157515,21.9699554 24.7574332,22.4727478 C23.3615589,24.0039216 22.1558584,25.6934051 21.1650539,27.5038375 C20.5133924,27.438614 19.8668021,27.4056853 19.2347919,27.4056853 C8.62881016,27.4056853 0,36.0247116 0,46.6194458 C0,57.2135467 8.62881016,65.8319397 19.2347919,65.8319397 L31.8616851,65.8458709 L22.5273307,76.606514 C22.2110088,76.9712601 22.1374748,77.486084 22.3377912,77.9242859 C22.5381072,78.363121 22.9761404,78.6442794 23.4591815,78.6442794 L29.08832,78.6442794 L17.8091238,95.071785 C17.4725165,95.5625457 17.5346398,96.2230148 17.9568253,96.6422196 C18.1951762,96.878418 18.5089627,97 18.8259185,97 C19.0699748,97 19.3165665,96.9271774 19.5295609,96.7789994 L32.3130304,87.8940125 C32.8715069,87.5052033 33.0090657,86.7377166 32.6204777,86.1798324 C32.2318897,85.6219482 31.4635882,85.4839021 30.9044779,85.872078 L23.6550602,90.9113998 L32.445518,78.1091919 C32.7041541,77.7324142 32.7326801,77.2435531 32.5190518,76.8389129 C32.3060574,76.434906 31.8864075,76.1816101 31.4287231,76.1816101 L26.1583787,76.1816101 L35.492733,65.4209671 C35.809055,65.0568542 35.8832228,64.5413972 35.6822726,64.1031951 C35.4819564,63.66436 35.0439232,63.3832016 34.5615162,63.3832016 L30.1811843,63.3832016 L53.2961515,42.6572647 L44.6083874,59.2202835 C44.4080714,59.6021272 44.4226513,60.0605926 44.6457883,60.4291382 C44.8689253,60.7976838 45.2689238,61.023117 45.7006179,61.023117 L51.2936235,61.023117 L39.7754423,73.9513396 C39.4527812,74.3135529 39.3729083,74.831543 39.5713228,75.2741776 C39.770371,75.7168122 40.2109399,76.00177 40.6965166,76.00177 L45.1066424,76.00177 L34.3637356,83.4689331 C33.8052592,83.857109 33.6670665,84.6245956 34.0556545,85.1824798 C34.4448764,85.7409973 35.2131777,85.8784103 35.7716543,85.4902344 L49.740539,75.7807694 C50.1823758,75.4736482 50.3738171,74.9151306 50.2128036,74.4015731 C50.0517898,73.8880158 49.575088,73.5391007 49.0368968,73.5391007 L43.4432573,73.5391007 L50.3097921,65.8325729 L68.2279488,65.8325729 C76.373084,65.8325729 83,59.2139511 83,51.0793534 C82.9993661,47.1982268 81.5026999,43.534935 78.7844853,40.7626114 C76.3249067,38.2537155 73.1147763,36.7263412 69.6510812,36.3970565 Z" ></path>
                    </g>
                </g>
            </g>
        </g>
    </g>
</svg>