<svg id="Layer_1" data-name="Layer 1" xmlns="http://www.w3.org/2000/svg" viewBox="0 0 545.32 206.87"><defs><style>.cls-1{fill:#fff;}.cls-1,.cls-2,.cls-3{fill-rule:evenodd;}.cls-2{fill:#bd2e2b;}.cls-3{fill:#fbfdff;}</style></defs><title>Pit Pay White One Line</title><path class="cls-1" d="M675.44,236.35v-5.8h-1.7v-1.79h5.47v1.79h-1.7v5.8Zm13.48,0H687l-.44-3.28c0-.23-.06-.49-.09-.77s0-.59-.07-.93a9.4,9.4,0,0,1-.28,1.2l-.07.22-1,3.56h-1.38l-1-3.56-.06-.22a8.42,8.42,0,0,1-.28-1.2c0,.29,0,.57-.07.85s-.06.56-.1.84l-.45,3.28h-1.92l1.17-7.59h2l1.15,3.91,0,.14a5.15,5.15,0,0,1,.2.9,3.52,3.52,0,0,1,.08-.45q.06-.25.16-.59l1.16-3.9h2.05Z" transform="translate(-143.61 -205.26)"/><path class="cls-2" d="M189.92,412.13c-10.53-.12-18.58-3.23-23.92-9.24-7.53-8.47-9.7-22.59-6.45-42a181.75,181.75,0,0,1,7.23-27.81A310.62,310.62,0,0,1,178.35,304c5.11-11.3,10.9-22.63,17.2-33.68,5.23-9.16,10.24-17.18,15.26-24.42-23.93,11.83-38.9,24-44.51,36.13A22.4,22.4,0,0,0,164,293.56a17.49,17.49,0,0,0,.67,3.43l.14.44,1,2.89-3-.24c-7.67-.6-13.17-3.36-16.33-8.19-2.66-4.07-3.48-9.53-2.36-15.79s3.88-12.72,8.29-19.58c9.6-14.94,25-28.29,43.22-37.6a129.17,129.17,0,0,1,43-13,96.27,96.27,0,0,1,10.76-.63c9.11,0,17.18,1.46,24,4.33,15.34,6.48,23.92,20.55,23.54,38.6-.24,11.44-4.6,33.82-31,55.24-17.86,14.49-40.46,24.1-65.39,27.82-1.13,4-2.16,8.17-3.07,12.53a237.25,237.25,0,0,0-4.64,37.1c-.27,5.62-.34,10.79-.2,15.81a115.11,115.11,0,0,0,.86,12.09l.1.32,0,.41a2.61,2.61,0,0,1-1.11,1.76,3.3,3.3,0,0,1-2.33.84Zm44.4-175.75c1.47.46,2.91,1,4.32,1.48l1.95.69a4.61,4.61,0,0,1,2.9,3,4.82,4.82,0,0,1-.69,4.25,287,287,0,0,0-31.12,54.67,67.28,67.28,0,0,0,16.46-3.78,78.6,78.6,0,0,0,30.78-21.31c3-3.38,10.15-12.12,11.86-20.41,1.61-7.82-1.3-14.36-8-17.94-3.23-1.73-7.85-2.64-13.35-2.64A62.1,62.1,0,0,0,234.32,236.38Zm60,107.65a17.06,17.06,0,0,1-3.9-.44,13.73,13.73,0,0,1-9-6.82c-2.72-4.81-2.91-11.49-.58-20.4,1.41-5.39,3.05-10.72,4.88-15.84,1.77-4.94,3.75-9.86,5.79-14.89l.73-1.79c2.32-5.69,4.71-11.58,7-17.39a5.58,5.58,0,0,1,5.17-3.76h.28a33.83,33.83,0,0,1,12,2.55c2.36,1,3.82,2.35,4.48,4.05.9,2.32,0,4.72-.67,6.32l0,.08-.91,1.66c-3.08,5.57-6,10.84-8.61,16.47a73.6,73.6,0,0,0-5.16,13.87c-1,4.34-.81,7.32.58,8.87a5,5,0,0,0,3.85,1.35h.31c3.34-.1,7.91-3.8,13.58-11,6.63-8.42,11.84-18.75,15.65-26.82,3-6.37,5.83-13,8.56-19.35l1.6-3.74a21,21,0,0,1-3.28.27c-6,0-10.09-2.89-14.83-7.54l-.86-.84.33-1.15A14.09,14.09,0,0,0,330,236.06l-.83-1.38,1.16-1.12a5.69,5.69,0,0,1,3.95-1.82,7,7,0,0,1,3.55,1.14l1.26.76,1.19.72a12.86,12.86,0,0,0,6.7,1.88,17.85,17.85,0,0,0,3.77-.44c1.36-.29,2.7-.69,4.12-1.12.78-.23,1.58-.47,2.4-.7,0-3.09-.55-8-4.1-10.76l-1.79-1.4,1.6-1.61a23.2,23.2,0,0,1,2-1.8,13.54,13.54,0,0,1,8.51-3c.36,0,.73,0,1.09,0,3.29.25,7.73,1.73,10.35,5.13a18.67,18.67,0,0,1,3.35,8.78c2.76-.4,5.93-.69,9.65-.88,1.14-.06,2.24-.09,3.28-.09,9.93,0,16.75,2.77,20.26,8.22.16.25.3.49.44.74l.73,1.33-1.08,1.07c-2.41,2.39-4.83,5-7.19,7.75l-.76.89-1.15-.22a35.57,35.57,0,0,0-6.68-.57c-1.47,0-3,.06-4.71.19a104.82,104.82,0,0,0-16.18,2.67c-2.47,7.52-5.6,15.55-9.85,25.21q-1.06,2.41-2.13,4.81l-1.31,2.94c-2.24,5.07-4.79,10.81-6.71,16.43-.68,2-2.74,8.05-2,11.42.49,2.24,3.48,2.35,4.07,2.35a6.62,6.62,0,0,0,2.4-.43c2.76-1.1,5.89-3.75,8-5.64a113.44,113.44,0,0,0,12.72-13.64c.74-.93,2.46-3.1,3.17-4.16,1.6-2.37,4.36-1.19,3.13,2.08-.59,1.56-1.11,3.5-1.64,5-.83,2.33-1.76,4.7-2.77,7.05a89,89,0,0,1-13.48,22.44c-5.32,6.27-11,10.54-17,12.68a29.09,29.09,0,0,1-9.59,1.64,18.49,18.49,0,0,1-10.14-2.6,12.45,12.45,0,0,1-4.6-5.52c-1.36-3.09-1.82-7.1-1.38-12-4.39,6.66-10.53,14.34-17.87,19.09A25.59,25.59,0,0,1,294.32,344Zm20.8-85a11,11,0,0,1-8.24-3.57,12.62,12.62,0,0,1-3-9.75c.73-7.35,7-13.51,14.08-13.74h.4a11,11,0,0,1,8.28,3.59,12.43,12.43,0,0,1,3,9.59c-.74,7.43-7.06,13.65-14.09,13.87Z" transform="translate(-143.61 -205.26)"/><path class="cls-3" d="M162.94,298.05l-.15-.49a19.46,19.46,0,0,1-.75-3.82,24.53,24.53,0,0,1,2.42-12.59c8-17.32,32.6-31,48.89-38.76l3.63-1.73-2.34,3.27A315.44,315.44,0,0,0,197.3,271.3c-6.21,10.89-12,22.09-17.11,33.51a311.26,311.26,0,0,0-11.5,29,181,181,0,0,0-7.15,27.5c-2.1,12.53-3.13,30,6,40.28,5.73,6.45,14.11,8.47,22.44,8.56.3,0,.83,0,1-.25l.07-.08.08-.06c.09-.07.37-.3.38-.42l0-.08v-.08a118.14,118.14,0,0,1-.89-12.39c-.14-5.32-.05-10.65.2-16a239.57,239.57,0,0,1,4.68-37.42c.93-4.46,2-8.9,3.28-13.28l.18-.64.66-.1c23.72-3.44,46.34-12.31,65-27.48,16.27-13.2,29.8-32.05,30.26-53.72.35-16.39-6.82-30.16-22.31-36.7-10.41-4.4-22.64-4.81-33.74-3.56a127.9,127.9,0,0,0-42.34,12.81c-16.43,8.37-32.39,21.27-42.44,36.89-3.62,5.62-6.82,12.21-8,18.84-.86,4.81-.7,10.12,2.06,14.33,3.27,5,9.12,6.84,14.8,7.28Zm46.26,3.12a289.3,289.3,0,0,1,32-56.55,2.71,2.71,0,0,0-1.24-4.16,85.79,85.79,0,0,0-9.42-3l-3.64-.81,3.53-1.19c9.18-3.08,24.54-4.9,33.35-.18,7.74,4.14,10.75,11.66,9,20.13-1.55,7.53-7.28,15.65-12.32,21.34a80.25,80.25,0,0,1-31.6,21.86,67.84,67.84,0,0,1-18.62,4l-1.67.11.65-1.55ZM315.46,257c6.34-.2,11.54-5.9,12.15-12.05.59-5.94-3.41-11.15-9.6-11s-11.53,5.82-12.13,11.92,3.31,11.29,9.58,11.09Zm87.36-10.81a45.74,45.74,0,0,0-11.92-.4,109,109,0,0,0-17,2.85l-.56.14-.18.55c-2.81,8.65-6.29,17.23-10,25.55-1.14,2.59-2.29,5.16-3.44,7.74-2.41,5.43-4.85,11-6.77,16.6-1.16,3.4-2.86,8.91-2.07,12.5.86,3.93,6,4.64,9.19,3.37,3-1.19,6.23-3.89,8.6-6a115.9,115.9,0,0,0,13-13.89c.93-1.16,1.81-2.36,2.67-3.58-.44,1.55-1,3.12-1.49,4.54-.84,2.34-1.75,4.66-2.72,6.94A87.12,87.12,0,0,1,366.94,325c-4.34,5.12-9.75,9.79-16.15,12.08-5.23,1.88-13.1,2.42-17.94-.76A10.41,10.41,0,0,1,329,331.7c-2-4.54-1.48-10.59-.61-15.34l1-5.61-2.93,4.89c-4.85,8.1-11.72,17.17-19.67,22.31-4.52,2.93-10.52,4.94-15.91,3.67a11.76,11.76,0,0,1-7.69-5.84c-3.11-5.5-1.9-13.08-.38-18.9,1.38-5.3,3-10.51,4.83-15.67,1.78-5,3.77-9.9,5.76-14.81,2.6-6.39,5.21-12.78,7.73-19.21a3.58,3.58,0,0,1,3.46-2.47,32.18,32.18,0,0,1,11.33,2.39c3.85,1.68,4.44,4,2.77,7.7-3.32,6-6.64,11.94-9.55,18.17a74.88,74.88,0,0,0-5.3,14.27c-.75,3.24-1.4,8,1,10.67a7.14,7.14,0,0,0,5.72,2c5.6-.17,11.91-7.72,15.1-11.76,6.39-8.12,11.49-17.89,15.89-27.21,3.86-8.19,7.34-16.54,10.92-24.85l.81-1.88-2,.46c-8.17,1.87-12.55-.93-18.1-6.38A16,16,0,0,0,331.71,235c1.6-1.54,2.91-1.66,5.08-.39.83.48,1.63,1,2.46,1.49a15.54,15.54,0,0,0,11.9,1.67c2.47-.53,4.86-1.39,7.31-2l.75-.19,0-.77c.2-4.79-.94-10.09-4.86-13.16a21.22,21.22,0,0,1,1.83-1.65,11.46,11.46,0,0,1,8.19-2.54c3.25.25,6.87,1.71,8.9,4.35a17.33,17.33,0,0,1,3.06,8.77l.11,1.1,1.09-.18a100.42,100.42,0,0,1,10.45-1c7.44-.39,17.27.27,21.74,7.21q.19.3.37.62C407.58,240.85,405.15,243.48,402.82,246.2Z" transform="translate(-143.61 -205.26)"/><path class="cls-2" d="M435.64,404c-9.95-.11-17.55-3-22.61-8.73-7.11-8-9.17-21.34-6.1-39.62a171.54,171.54,0,0,1,6.82-26.25,293,293,0,0,1,10.92-27.5c4.83-10.67,10.28-21.36,16.23-31.77,4.89-8.57,9.58-16.08,14.27-22.86-22.43,11.11-36.48,22.52-41.76,33.94a21.09,21.09,0,0,0-2.13,10.87,16.57,16.57,0,0,0,.63,3.23c0,.1.06.2.1.3l1,2.94-3.11-.25c-7.21-.59-12.38-3.19-15.36-7.74-2.52-3.85-3.29-9-2.23-14.94s3.67-12,7.83-18.49c9.06-14.1,23.55-26.7,40.79-35.49a122,122,0,0,1,40.61-12.28,91,91,0,0,1,10.16-.59,58.17,58.17,0,0,1,22.65,4.09,35.22,35.22,0,0,1,17.45,15.1c4.72,8.29,6,18.72,3.73,29.77,5.2-5.91,12.68-11.91,22.11-12.87a27.53,27.53,0,0,1,2.77-.15,15.23,15.23,0,0,1,10.43,3.51v0c.36-1.53,1.12-4.72,4.49-5.18a5.75,5.75,0,0,1,.79,0h.39c1.08,0,2.21.14,3.59.31a25.26,25.26,0,0,1,5.38,1.08,9.3,9.3,0,0,1,5.36,4.9,8.22,8.22,0,0,1,0,6.51c-.57,1.39-1.16,2.77-1.75,4.16-.48,1.12-1,2.25-1.42,3.37-1.59,3.84-2.82,7-3.87,10a68,68,0,0,0-3.48,13.1c-.53,4-.1,6.72,1.29,8a4.07,4.07,0,0,0,2.9,1,8.37,8.37,0,0,0,.85,0c2.2-.22,4.89-2.28,8-6.1,1.1-1.34,2.21-2.85,3.39-4.61.51-2.71,1.13-5.54,1.9-8.65,1.69-6.81,3.84-14.06,6.78-22.81.38-1.12.73-2.3,1.07-3.43L607,248a44.32,44.32,0,0,1,2.11-5.77l.05-.11a4.39,4.39,0,0,1,3.57-3,9.35,9.35,0,0,1,2.06-.21,29.22,29.22,0,0,1,7.23,1.23c3.21.92,5.28,2.61,6.32,5.16a7.59,7.59,0,0,1,.44,5,27.17,27.17,0,0,1-1.71,4.44c-.2.44-.4.88-.58,1.3-2,4.58-3.86,9.06-5.52,13.63a69.83,69.83,0,0,0-3.65,13.14c-.59,4-.19,6.73,1.17,8a4,4,0,0,0,2.85.94,8.27,8.27,0,0,0,.84,0c3.44-.35,7.62-4.62,10-8.45,2.94-4.63,4.18-9,5.61-14,.59-2.41,1.1-4.9,1.6-7.3.58-2.82,1.19-5.74,1.91-8.59l.32-1.28c1.72-6.89,3.81-14.46,6.75-17.21,2.39-2.24,5.57-2.39,7.67-2.49l1.17,0c2.74,0,9.35.41,11.63,4.18,1.15,1.91,1,4.27-.52,7-3.46,6.37-5.69,13.73-7.84,20.85l-.36,1.19c-.79,2.63-1.61,5.34-2.48,8-1,3-1.67,5.25-2.29,7.42-1.45,5.08-2.9,10.28-4.42,15.88-.46,1.76-.92,3.54-1.38,5.31-1.43,5.52-2.91,11.23-4.64,17-2.7,9.68-8.46,23.52-15.77,30.56q-1,1-2,1.85a51.87,51.87,0,0,1-27,12,49.93,49.93,0,0,1-5.07.27c-6.4,0-11.84-1.32-16.19-3.92a17.56,17.56,0,0,1-8.78-12.46c-.8-5.38,1.18-11,5.44-15.37,5.91-6.09,14.29-8.62,20.35-9.07,2.56-.19,4.14,1.1,1.62,3.51a16.1,16.1,0,0,0-4.88,8.06,6.38,6.38,0,0,0,1.12,5.4,6.86,6.86,0,0,0,5.27,2.15,9.82,9.82,0,0,0,1.13-.07h.15c7.18-.29,13.42-4.76,18.53-13.29a109.49,109.49,0,0,0,7.42-16.5l.5-1.6a26.79,26.79,0,0,1-14.35,5.67,24.83,24.83,0,0,1-2.5.13c-4.43,0-8-1.31-10.55-3.89a15.69,15.69,0,0,1-4.17-9.78c-3.65,5.19-8.82,11.1-14.9,14a19.87,19.87,0,0,1-8.6,2,19.63,19.63,0,0,1-2.78-.2,12.23,12.23,0,0,1-7.12-3.38c-2.42-2.43-3.8-6-4.1-10.65A51.42,51.42,0,0,1,547,317.29c-4.49,3.63-10.09,5.79-15,5.79-6.38,0-11-3.52-13-9.91-2.46-7.79-.94-17.48.63-23.91A102.56,102.56,0,0,1,492.15,312a131.55,131.55,0,0,1-46.45,15.68c-1.07,3.75-2,7.71-2.89,11.78a223.59,223.59,0,0,0-4.38,35c-.25,5.29-.32,10.17-.19,14.91a108.4,108.4,0,0,0,.81,11.4l.18.59L439,402a2.69,2.69,0,0,1-.93,1.15,3.14,3.14,0,0,1-2.23.81Zm42.09-165.83c1.32.42,2.62.88,3.89,1.34l1.84.65a4.41,4.41,0,0,1,2.77,2.86,4.61,4.61,0,0,1-.66,4.06,270.81,270.81,0,0,0-29.31,51.47A63.37,63.37,0,0,0,471.69,295a74.1,74.1,0,0,0,29-20.08c2.82-3.18,9.56-11.42,11.17-19.23,1.52-7.35-1.22-13.5-7.5-16.86-3-1.63-7.39-2.49-12.57-2.49A58.55,58.55,0,0,0,477.73,238.17Zm80.8,21.94c-2.22,0-5,1.54-7.75,4.33a41.34,41.34,0,0,0-8.07,12.2,36.71,36.71,0,0,0-3.15,11.56c-.16,1.94-.45,8.35,2.56,9.16a4.47,4.47,0,0,0,1.17.15c2.47,0,5-1.82,6.26-2.9a27.65,27.65,0,0,0,7.11-9.94,100.8,100.8,0,0,0,4.67-12.93c.32-1.13.62-2.26.93-3.4l.28-1a6.92,6.92,0,0,0-.44-5.34,4.07,4.07,0,0,0-2.86-1.79A4.63,4.63,0,0,0,558.53,260.11Z" transform="translate(-143.61 -205.26)"/><path class="cls-3" d="M410.12,296.28c0-.13-.09-.27-.13-.39a18.54,18.54,0,0,1-.71-3.62,23.21,23.21,0,0,1,2.3-11.91c7.57-16.35,30.76-29.24,46.14-36.57l3.63-1.73L459,245.33a297.8,297.8,0,0,0-16.35,25.8c-5.86,10.26-11.27,20.83-16.14,31.6A293.33,293.33,0,0,0,415.67,330,170.66,170.66,0,0,0,408.93,356c-2,11.8-3,28.31,5.61,37.95,5.39,6.07,13.28,8,21.12,8.05.26,0,.76,0,.94-.22l.07-.08.08-.06a1.33,1.33,0,0,0,.34-.34l0-.07v-.08a111.42,111.42,0,0,1-.84-11.69c-.13-5,0-10,.19-15.06a226,226,0,0,1,4.42-35.3c.88-4.21,1.9-8.4,3.1-12.53l.19-.64.66-.1a130.26,130.26,0,0,0,46.36-15.53,98.08,98.08,0,0,0,29.92-26.09l3.67-4.93-1.84,5.86c-2.52,8-4.55,19.24-2,27.44,3.82,12.11,17,9.49,24.8,3.16,4.94-4,9-9.58,12.13-15l2.1-3.6-.17,4.17c-.17,4.25.39,9.45,3.55,12.62a10.25,10.25,0,0,0,6,2.81,17.79,17.79,0,0,0,10.22-1.58c6.44-3.12,11.93-9.89,15.74-15.78l1.93-3,0,3.54c0,9.91,5,15.56,15.13,14.52,10.47-1.07,15.76-6.84,19.12-11.56L628.29,313a111.82,111.82,0,0,1-7.6,16.9c-4.52,7.54-11,13.89-20.18,14.27a9.13,9.13,0,0,1-8.17-2.79,8.25,8.25,0,0,1-1.56-7.11c.71-3.45,3-6.61,5.43-9.08l.09-.09c-6.94.89-14.22,3.35-19.18,8.48-3.52,3.63-5.65,8.57-4.89,13.67a15.61,15.61,0,0,0,7.82,11c5.86,3.51,13.33,4.06,20,3.38a49.66,49.66,0,0,0,27.85-13.32c7.1-6.84,12.63-20.36,15.24-29.69,2.27-7.59,4.08-14.94,6-22.29q2.16-8,4.43-15.9c.72-2.52,1.5-5,2.31-7.5,1-3,1.86-6,2.76-8.94,2.17-7.19,4.46-14.82,8.06-21.44.8-1.48,1.52-3.44.57-5-1.75-2.89-7.94-3.33-11-3.18-2.29.11-4.63.3-6.39,1.95-3,2.83-5.42,13.34-6.49,17.51-1.34,5.24-2.23,10.62-3.51,15.88v0c-1.54,5.38-2.81,9.74-5.86,14.53-2.34,3.68-7,8.91-11.55,9.38a6.5,6.5,0,0,1-5.28-1.43c-2.47-2.32-2.23-6.72-1.79-9.77a70.74,70.74,0,0,1,3.75-13.54c1.69-4.65,3.61-9.2,5.56-13.74a39.31,39.31,0,0,0,2.18-5.44,5.56,5.56,0,0,0-.35-3.7c-.92-2.24-2.76-3.34-5-4s-6-1.51-8.28-1c-1.49.34-1.64.72-2.25,2a42.58,42.58,0,0,0-2,5.51c-.54,1.73-1,3.48-1.61,5.2-2.5,7.46-4.84,15-6.74,22.66-.72,2.89-1.37,5.81-1.91,8.74l0,.21-.12.18c-1.13,1.69-2.33,3.35-3.62,4.93-2.19,2.69-5.71,6.46-9.37,6.83a6.6,6.6,0,0,1-5.32-1.44c-2.49-2.31-2.32-6.68-1.92-9.75a69.16,69.16,0,0,1,3.58-13.5c1.2-3.4,2.53-6.76,3.91-10.09,1-2.51,2.14-5,3.17-7.53,1.57-3.83-.47-7.34-4.18-8.75a24.57,24.57,0,0,0-4.91-1c-1.13-.14-2.28-.25-3.41-.3a4.73,4.73,0,0,0-.83,0c-1.9.26-2.41,2-2.8,3.64-.14.58-.27,1.16-.4,1.75l-.45,2-1.35-1.57c-3.26-3.79-8-4.48-12.76-4-9.76,1-17.78,7.95-23.48,15.48l-3.35,4.43,1.52-5.34c3.05-10.69,3.14-22.6-2.49-32.48a33.44,33.44,0,0,0-16.48-14.23c-9.81-4.14-21.34-4.53-31.8-3.35a120.61,120.61,0,0,0-39.92,12.08c-15.49,7.89-30.54,20.05-40,34.78-3.41,5.3-6.43,11.51-7.54,17.75-.81,4.52-.66,9.52,1.93,13.48,3.05,4.67,8.52,6.41,13.83,6.84Zm43.66,3a273,273,0,0,1,30.17-53.35,2.5,2.5,0,0,0-1.14-3.84,81.19,81.19,0,0,0-8.88-2.86l-3.64-.81,3.54-1.19c8.67-2.91,23.18-4.62,31.51-.16,7.33,3.92,10.18,11,8.52,19-1.47,7.12-6.87,14.79-11.64,20.16a75.77,75.77,0,0,1-29.83,20.64,64,64,0,0,1-17.58,3.8l-1.67.11.65-1.55Zm87.8,0c-4.31-1.17-4.32-7.82-4-11.28a38.65,38.65,0,0,1,3.32-12.21,43.43,43.43,0,0,1,8.49-12.8c2.54-2.54,6.39-5.44,10.22-4.84h0c4.78.87,6,5.44,4.88,9.65-.4,1.49-.8,3-1.21,4.45a103.16,103.16,0,0,1-4.77,13.19,29.84,29.84,0,0,1-7.66,10.67C548.4,298.21,544.89,300.19,541.58,299.3Z" transform="translate(-143.61 -205.26)"/></svg>