<svg id="Layer_1" data-name="Layer 1" xmlns="http://www.w3.org/2000/svg" viewBox="0 0 484.12 183.28"><defs><style>.cls-1{fill:#fa4616;fill-rule:evenodd;}</style></defs><title>Pit Pay Orange One Line</title><path class="cls-1" d="M312.27,270.23c.31-14.79-6.07-27.6-20.52-33.7-9-3.79-19.76-4.48-30.64-3.25a116.54,116.54,0,0,0-38.19,11.55c-44.81,22.83-62.06,69.71-28.35,71,.74,0-14.38-22,44.22-49.95C207.93,309,158.3,415.37,217.47,416a2.1,2.1,0,0,0,1.61-.53,1.32,1.32,0,0,0,.68-1.39c-1.87-14.06-1-44.36,6.49-70.32,24.8-3.6,44.27-13.13,58.62-24.78,13.64-11.06,27-28.11,27.41-48.75Zm-60.34,44.22a59.82,59.82,0,0,1-16.4,3.55A258.56,258.56,0,0,1,264,267.6a3.35,3.35,0,0,0-1.56-5.14,79.75,79.75,0,0,0-8.53-2.74c7.67-2.57,21.33-4.38,29.1-.22,6.57,3.52,9.06,9.82,7.58,17-1.35,6.55-6.43,13.73-10.81,18.66a70.94,70.94,0,0,1-27.89,19.3Zm77.83-35.39c5.89-.19,11.14-5.38,11.76-11.62s-3.65-11-9.54-10.82-11.14,5.38-11.75,11.5,3.64,11.13,9.53,10.94Zm32.57,47.81c.62,2.85,4.61,3.29,7,2.35a28.76,28.76,0,0,0,7.42-5.21A108.23,108.23,0,0,0,388.2,311.7c1.37-1.72,2.68-3.57,3.88-5.41a.42.42,0,0,1,.73.38c-.57,3.52-3,9.65-4.41,13a79.33,79.33,0,0,1-11.92,19.85c-4.22,5-9.18,9.05-14.84,11.08-5,1.8-12.31,2.22-16.87-.77a10.23,10.23,0,0,1-3.79-4.56c-1.64-3.74-1.62-8.74-.61-14.26-4.81,8-11.1,15.86-17.89,20.26-4.27,2.77-9.88,4.6-14.95,3.41a11.45,11.45,0,0,1-7.47-5.67c-2.92-5.17-1.86-12.13-.43-17.6,4.05-15.5,8.27-23.81,16.42-44.54a4.1,4.1,0,0,1,4-2.8,29.73,29.73,0,0,1,10.46,2.21c3.89,1.7,4.69,4.26,2.94,8.16-5.12,9.28-22.75,39.47-8.09,39,3.87-.12,8.55-4.77,12.81-10.17C348,310.87,355.62,291.82,362,277c-7.88,1.8-12.11-1-17.41-6.31,0,0,0,0,0-.08a13.54,13.54,0,0,0-1.49-12.21s0,0,0,0c1.94-2.13,3.61-2.5,6.16-1,.59.35,1.35.83,2.2,1.33a12.93,12.93,0,0,0,10,1.39c2.11-.45,4.16-1.2,6.5-1.8.19-4.67-1.08-9.1-4.54-11.4l-.14-.09c-.08,0-.12-.1-.06-.18l.09-.1.07-.07a21.48,21.48,0,0,1,2.23-2.08,11.18,11.18,0,0,1,8-2.47,12.26,12.26,0,0,1,8.63,4.25,16.36,16.36,0,0,1,2.93,8.32c2.83-.45,6.87-.78,9.44-.92,7.07-.37,16.07.34,20.28,6.87a10.3,10.3,0,0,1,.68,1.25c-2.59,2.53-5,5.16-7.31,7.87-8.21-1.79-20.22.66-26,2.07-2.71,8.37-6.5,17.38-8.93,22.94-5.38,12.2-12.22,26.47-10.93,32.38ZM620.78,276c-1,4.07-1.91,9.17-3.14,14.22-1.37,4.78-2.38,8.42-5.13,12.76-2.49,3.93-6.42,7.63-9.64,8-11.78,1.2-1.88-21.84,3-33.14a38.45,38.45,0,0,0,2-5,5.87,5.87,0,0,0-.36-3.88,7.12,7.12,0,0,0-5.09-4.1c-1.73-.5-5.53-1.44-7.87-.91a3.17,3.17,0,0,0-2.64,2.3c-1.28,2.7-2.3,6.75-3.28,9.68-2.53,7.52-4.56,14.32-6,20.34q-1,4.19-1.72,7.87c-1,1.54-2.1,3-3.18,4.34-2.6,3.19-5.29,5.52-7.76,5.77-13.22,1.35.37-27.7,4-36.57,1.63-4-.51-7.62-4.27-9a34,34,0,0,0-7.74-1.19,5,5,0,0,0-.9,0c-2.12.29-2.82,2-3.28,4-.13.55-.25,1.1-.36,1.57-2.5-2.91-6.29-4.49-12.21-3.89-8.41.86-15.83,6.51-21.65,14.21,5.24-18.36-.35-35.65-17.5-42.9-8.46-3.57-18.64-4.23-28.91-3.07a109.89,109.89,0,0,0-36,10.9c-42.27,21.54-58.54,65.75-26.74,67,.7,0-13.57-20.79,41.71-47.12-29.1,40.63-75.92,141-20.11,141.59a2,2,0,0,0,1.52-.5,1.24,1.24,0,0,0,.64-1.31c-1.77-13.26-1-41.84,6.12-66.34,32.69-4.74,55.83-20.07,68.85-37.59-3,9.41-3.76,18.73-1.75,25.1,3.64,11.53,16.13,9.34,23.65,3.27,3.35-2.71,7.15-7,11.07-13.69-.31,7.92,2.31,13.75,9.31,14.76a16.82,16.82,0,0,0,9.68-1.5c5.37-2.6,10.34-8.09,14.46-14.45,0,9.61,5.07,14.88,14.56,13.92,4.89-.5,12.64-4.1,15.35-9q-.95,3.46-2,6.47a126.29,126.29,0,0,1-7.61,16.89c-4.93,8.21-10.77,12.06-17.33,12.31-7.37.88-11.79-6.55-3.11-15.4l.21-.21.57-.55.22-.25a.48.48,0,0,0-.35-.8l-1,.12c-32,3.84-29.78,37.94,3.22,34.58a45.33,45.33,0,0,0,25.44-12.17c6.39-6.16,12.33-20.21,14.76-28.91,1.86-6.65,3.63-13.44,5.38-19.95,1.38-5,2.7-9.75,4-14.21.69-2.33,1.37-4.56,2.06-6.67,3-9.18,5.38-19.23,9.62-27,4.11-7.57-5.13-9-10.17-8.71-2.41.11-4.58.37-6.31,2-2.89,2.71-5,11.89-6.07,16.11Zm-152.37,37.9a56.4,56.4,0,0,1-15.47,3.34,244,244,0,0,1,26.88-47.54,3.16,3.16,0,0,0-1.47-4.85,75.21,75.21,0,0,0-8-2.58c7.23-2.43,20.12-4.13,27.45-.21,6.19,3.32,8.55,9.27,7.15,16-1.27,6.18-6.07,13-10.2,17.6a66.92,66.92,0,0,1-26.31,18.21ZM530.87,316c-2-.55-3.39-3.35-2.93-9.11,1-12.09,11.5-27,18.63-25.86,3.59.66,4.56,4.07,3.64,7.48a93.62,93.62,0,0,1-5.3,15.65c-3.29,7.57-9.63,13-14,11.85ZM648.94,261.2V256h-1.52v-1.6h4.89V256h-1.52v5.18Zm12.06,0h-1.73l-.4-2.93q0-.31-.08-.69c0-.25,0-.53-.06-.83a8.62,8.62,0,0,1-.26,1.08l-.06.2-.92,3.18h-1.23l-.92-3.18-.06-.2a7.31,7.31,0,0,1-.26-1.07c0,.26,0,.51-.07.76s-.05.5-.09.75l-.4,2.93h-1.72l1-6.79h1.83l1,3.5,0,.12a4.52,4.52,0,0,1,.18.8,3.49,3.49,0,0,1,.07-.4c0-.15.08-.32.14-.53l1-3.49H660Z" transform="translate(-176.88 -232.72)"/></svg>