<svg id="Layer_1" data-name="Layer 1" xmlns="http://www.w3.org/2000/svg" viewBox="0 0 511.78 512"><defs><style>.cls-1{fill:#f6f1f1;}.cls-2{fill:#eadfda;}.cls-3{fill:#f6e266;}.cls-4{fill:#eab14d;}.cls-5{fill:#df6857;}.cls-6{fill:#da387d;}</style></defs><path class="cls-1" d="M34.21,504.5A26.61,26.61,0,0,1,7.6,477.89V34.11A26.61,26.61,0,0,1,34.21,7.5h190a114.53,114.53,0,0,1,81,33.55l76.24,76.24a114.52,114.52,0,0,1,33.54,81V477.9a26.6,26.6,0,0,1-26.6,26.6Z" transform="translate(-0.11 0)"/><path class="cls-2" d="M415,198.28v16.86a64.32,64.32,0,0,0-64.31-64.31H298.23a26.6,26.6,0,0,1-26.61-26.6V71.81A64.32,64.32,0,0,0,207.31,7.5h16.87a114.53,114.53,0,0,1,81,33.55l76.23,76.23A114.52,114.52,0,0,1,415,198.28Z" transform="translate(-0.11 0)"/><path class="cls-3" d="M471.18,72.89l10.44-26.2a12.93,12.93,0,0,0-7.21-16.79l-20.33-8.1A12.91,12.91,0,0,0,437.3,29l-10.45,26.2" transform="translate(-0.11 0)"/><path class="cls-4" d="M470.75,28.45A12.92,12.92,0,0,0,454,35.66L443.51,61.87l-16.66-6.65L437.3,29a12.91,12.91,0,0,1,16.78-7.22Z" transform="translate(-0.11 0)"/><path class="cls-5" d="M439,205.2c-35.72,89.58-82.56,155.08-104.62,146.28s-11-88.55,24.73-178.13c18.11-45.43,39.09-84.66,58.23-111.15a19.39,19.39,0,0,1,22.9-6.62l20.92,8.34a19.4,19.4,0,0,1,12.06,20.56C468.92,116.87,457.14,159.77,439,205.2Z" transform="translate(-0.11 0)"/><path class="cls-6" d="M334.41,351.48c-22.06-8.79-11-88.55,24.73-178.13,18.11-45.43,39.09-84.66,58.23-111.15a19.39,19.39,0,0,1,22.9-6.62l7.58,3c-2.27-.9-6.47,3.9-10.21,11.68-13.79,28.63-31.42,69.19-49.53,114.61-35.72,89.59-59.77,164.17-53.7,166.59Z" transform="translate(-0.11 0)"/><path d="M106.67,232.34H74.08a32.08,32.08,0,0,0-32,32V297a32.08,32.08,0,0,0,32.05,32h32.59a32.07,32.07,0,0,0,32.05-32v-32.6A32.07,32.07,0,0,0,106.67,232.34Zm17,64.64a17.07,17.07,0,0,1-17,17H74.08a17.07,17.07,0,0,1-17-17V264.39a17.07,17.07,0,0,1,17-17h32.59a17.07,17.07,0,0,1,17,17V297Z" transform="translate(-0.11 0)"/><path d="M168.53,306.42H269.77a7.5,7.5,0,0,0,0-15H168.53a7.5,7.5,0,0,0,0,15Z" transform="translate(-0.11 0)"/><path d="M106.67,347.17H74.08a32.09,32.09,0,0,0-32,32.05v32.59a32.09,32.09,0,0,0,32.05,32.05h32.59a32.08,32.08,0,0,0,32.05-32.05V379.22A32.08,32.08,0,0,0,106.67,347.17Zm17,64.64a17.07,17.07,0,0,1-17,17.05H74.08a17.07,17.07,0,0,1-17-17.05V379.22a17.07,17.07,0,0,1,17-17.05h32.59a17.07,17.07,0,0,1,17,17.05v32.59Z" transform="translate(-0.11 0)"/><path d="M168.53,384.78H372.4a7.5,7.5,0,0,0,0-15H168.53a7.5,7.5,0,1,0,0,15Z" transform="translate(-0.11 0)"/><path d="M168.53,421.25H269.77a7.5,7.5,0,0,0,0-15H168.53a7.5,7.5,0,1,0,0,15Z" transform="translate(-0.11 0)"/><path d="M111.32,374.58a7.5,7.5,0,0,0-10.61,0L90.38,384.91,80,374.58a7.5,7.5,0,0,0-10.6,10.6l10.33,10.34L69.44,405.85A7.5,7.5,0,0,0,80,416.46l10.34-10.34,10.33,10.34a7.5,7.5,0,0,0,10.61-10.61L101,395.52l10.34-10.34A7.49,7.49,0,0,0,111.32,374.58Z" transform="translate(-0.11 0)"/><path d="M127.26,42.54a1.8,1.8,0,0,0-.08-.21,8.93,8.93,0,0,0-8.27-5.54h0a8.93,8.93,0,0,0-8.27,5.56c0,.06,0,.11-.07.17L86.63,105.36a7.5,7.5,0,1,0,14,5.34l4.13-10.82h28.1l4.07,10.8a7.5,7.5,0,0,0,14-5.29ZM110.48,84.88l8.4-22.06,8.33,22.06Z" transform="translate(-0.11 0)"/><path d="M213.15,115.53a7.49,7.49,0,0,0,6.13-11.81l-21-29.82,17.81-25.29A7.5,7.5,0,0,0,203.86,40l-14.72,20.9L174.44,40a7.5,7.5,0,1,0-12.27,8.63L180,73.9l-21,29.81a7.5,7.5,0,1,0,12.26,8.64l17.91-25.42L207,112.35A7.5,7.5,0,0,0,213.15,115.53Z" transform="translate(-0.11 0)"/><path d="M49.3,51.79h10V108a7.5,7.5,0,0,0,15,0V51.79H84.5a7.5,7.5,0,0,0,0-15H49.3a7.5,7.5,0,0,0,0,15Z" transform="translate(-0.11 0)"/><path d="M175.62,151.42a29.34,29.34,0,0,0-4.51,2.9,7.5,7.5,0,0,0-14.53,2.61v49.55a7.5,7.5,0,0,0,15,0V177s.11-2.25,5.41-7.83a22.19,22.19,0,0,1,5.34-4.29,7.5,7.5,0,0,0-6.71-13.42Z" transform="translate(-0.11 0)"/><path d="M112.19,149.43a32.28,32.28,0,1,0,32.27,32.28A32.32,32.32,0,0,0,112.19,149.43Zm0,49.55a17.28,17.28,0,1,1,17.27-17.27A17.3,17.3,0,0,1,112.19,199Z" transform="translate(-0.11 0)"/><path d="M253.06,150.18c-6.63,0-12.21,2.14-16.35,6-4.43-4.83-10.31-6.23-15.6-6.23a23.38,23.38,0,0,0-11.43,2.87,7.49,7.49,0,0,0-13.93,3.84v49.85a7.5,7.5,0,1,0,15,0V180.79s0-.06,0-.09c0-7.27,2.71-15.78,10.35-15.78,3.17,0,7.12,0,7.52,13.43,0,.45,0,28.13,0,28.13a7.5,7.5,0,1,0,15,0l0-29.13c0-3,0-12.17,9.4-12.17,4.12,0,5.25,1.18,5.62,1.57,1.08,1.13,2.82,4.45,2.39,14.05,0,.11,0,25.68,0,25.68a7.5,7.5,0,0,0,15,0V181.3c.51-11.8-1.57-19.72-6.54-24.91-3.93-4.12-9.47-6.21-16.46-6.21Z" transform="translate(-0.11 0)"/><path d="M48.92,165.57h.87v40.91a7.5,7.5,0,0,0,15,0V165.57h3.54a7.5,7.5,0,0,0,0-15H64.79v-9.42a4.57,4.57,0,0,1,.07-.92,7.34,7.34,0,0,1,2.77,0,7.5,7.5,0,0,0,3-14.69c-2.18-.45-9.74-1.55-15.44,3.1-2.48,2-5.42,5.82-5.42,12.5v9.43h-.87a7.5,7.5,0,0,0,0,15Z" transform="translate(-0.11 0)"/><path d="M483.93,61.15l4.66-11.68a20.42,20.42,0,0,0-11.4-26.53l-20.33-8.11a20.44,20.44,0,0,0-26.53,11.41L421,49.54a26.69,26.69,0,0,0-9.74,8.27,414.24,414.24,0,0,0-29.84,48.92l-71-71A121.21,121.21,0,0,0,224.18,0h-190A34.14,34.14,0,0,0,.11,34.11V477.89A34.14,34.14,0,0,0,34.21,512H388.35a34.14,34.14,0,0,0,34.1-34.11V260.63c8.23-16.44,16.17-34.17,23.54-52.66a666.41,666.41,0,0,0,22.54-66,7.5,7.5,0,0,0-14.44-4.06,651,651,0,0,1-22,64.55c-7,17.54-14.5,34.36-22.26,50l-61.92-24.68c5.12-16.68,11.23-34.05,18.23-51.6,17.33-43.45,37.69-82.35,57.34-109.53a11.86,11.86,0,0,1,14-4.05l20.92,8.34a11.87,11.87,0,0,1,7.4,12.61c-1.07,8-2.6,16.61-4.57,25.71a7.5,7.5,0,0,0,14.67,3.17c2-9.49,3.65-18.54,4.77-26.89a26.8,26.8,0,0,0-.46-9.6c11.63,5.4,17.23,15,16.63,28.77-.86,19.37-19,54.82-35.05,86.09-19.63,38.3-31.5,62.44-28.48,75.68a7.5,7.5,0,0,0,7.31,5.84,8,8,0,0,0,1.67-.19,7.49,7.49,0,0,0,5.64-9c-.35-1.55-.41-6.92,6.6-23.3,5.2-12.14,12.68-26.74,20.61-42.2,17.54-34.24,35.69-69.64,36.68-92.28.92-20.83-9.15-36.54-27.9-44.15ZM299.87,46.35l74.42,74.43q-5.66,11.44-11.09,23.66a72.32,72.32,0,0,0-12.56-1.11H298.23a19.13,19.13,0,0,1-19.11-19.1V71.82a71.6,71.6,0,0,0-22-51.68A106.72,106.72,0,0,1,299.87,46.35ZM402.92,265.81a400.78,400.78,0,0,1-27.43,45.06C354,341,341,346,337.18,344.52s-9.74-14.11-4.64-50.78a402.17,402.17,0,0,1,11.11-51.56Zm-78.09-10.87H168.53a7.5,7.5,0,0,0,0,15H321.47c-1.55,7.55-2.83,14.83-3.79,21.73-4.43,31.87-2,52.75,7.31,62.29l-1.4,3a7.5,7.5,0,0,0,3.65,10,7.36,7.36,0,0,0,3.15.7,7.49,7.49,0,0,0,6.81-4.34l1.62-3.49c13.42-.08,29.82-13.55,48.87-40.19,6.57-9.18,13.2-19.6,19.76-31V477.89A19.13,19.13,0,0,1,388.35,497H34.21a19.13,19.13,0,0,1-19.1-19.11V34.11A19.13,19.13,0,0,1,34.21,15h173.1a56.88,56.88,0,0,1,56.81,56.82v52.41a34.14,34.14,0,0,0,34.11,34.1h52.41a56.63,56.63,0,0,1,6.39.37q-2.46,5.87-4.85,11.87a637.07,637.07,0,0,0-27.35,84.37ZM443.05,48.61a26.51,26.51,0,0,0-4.92-1.43l6.13-15.38a5.43,5.43,0,0,1,7.05-3l20.32,8.1a5.43,5.43,0,0,1,3,7L468.52,59.3A26.51,26.51,0,0,0,464,57Z" transform="translate(-0.11 0)"/></svg>