<?xml version="1.0" encoding="utf-8"?>
<!-- Generator: Adobe Illustrator 24.3.0, SVG Export Plug-In . SVG Version: 6.00 Build 0)  -->
<svg version="1.1" id="Layer_1" xmlns="http://www.w3.org/2000/svg" xmlns:xlink="http://www.w3.org/1999/xlink" x="0px" y="0px"
	 viewBox="0 0 1675.6 972.1" style="enable-background:new 0 0 1675.6 972.1;" xml:space="preserve">
<style type="text/css">
	.st0{fill:#EE4523;}
	.st1{fill:#0E1030;}
	.st2{fill:#FFFFFF;}
	.st3{fill:#7C5123;}
	.st4{fill:#F8D4A0;}
	.st5{fill:#FCFDFF;}
	.st6{fill:#EFC49E;}
	.st7{fill:#683302;}
	.st8{fill:#000033;}
	.st9{fill-rule:evenodd;clip-rule:evenodd;fill:#000033;}
</style>
<path class="st0" d="M1670.2,59.1c-2.3-1.5-4.8-2.4-7.3-2.4c-1.5,0-2.9,0.2-4.4,0.9l-15.4,6.5c-11.7,4.7-23.2,9.7-34.9,14.4
	l-63.7,26.5l-25.3,10.6l-5-11.9c-8.1-19.6-16.5-39.5-24.6-59.1c-2.5-6-7.1-10.4-13.4-12.3c-22.1-6.9-44.2-11.6-65.9-14
	c-13.1-1.5-26.1-2.2-38.6-2.2c-2.5,0-5,0-7.7,0c-6.1,0.2-11.9,0.6-17.5,1.1c-0.2,0-0.4,0-0.6,0c-0.6-5.2-2.7-10.8-8.3-14.7
	c-3.8-2.6-7.7-2.6-9-2.6c-12.5,0-62,14.7-79.1,19.8c-10.2,0.9-20.7,8.2-21.7,20.9c0,0.9,0,1.5,0,2.4l0.2,2.6c0,0.2,0,0.6,0,0.9
	l-1.5,0.6c-8.8,3.9-17.9,7.8-26.7,12.3c-19.4,9.7-38.6,22.2-57.4,36.4V38.8c0-19-14.8-34.3-33.2-34.3H104.6
	c-18.4,0-33.2,15.3-33.2,34.3v317.8l-2.5,0.4c-39.2,6-68.9,42-68.9,83.7v308.7C0,791,29.6,827,68.9,833.1l530.7,81.3
	c3.8,0.6,7.7,0.9,11.5,0.9c3.8,0,7.7-0.2,11.5-0.9l530.7-81.3c39.2-6,68.9-42,68.9-83.7V604.5c18.6,17.2,39,31.7,61.6,43.1
	c24.8,12.5,75.5,29.3,93.3,29.3c4.4,0,8.6-2.4,10.9-6.5c2.3-3.9,2.5-8.8,0.4-12.9l-2.1-4.1l-1-1.9c19.4,4.3,38.8,6.5,57.6,6.5
	c48,0,95-13.8,139.6-41.2c3.3-2.2,5.6-5.6,6.1-9.7v-0.6c0.6-6.3-2.9-12.3-8.6-14.2l-17.7-6c39.4-27.4,65.9-62.5,80.6-106.9
	c4.4-13.2,14.6-59.1,11.1-71.4c-1.3-4.1-4.4-7.5-8.3-8.8c-1.3-0.4-2.5-0.6-3.8-0.6c-2.9,0-5.6,1.1-7.9,2.8l-6.5,5.2l-7.1,5.8
	c1.9-12.1,4-24.1,5.8-36.4c0,0,0.2-0.4,0.4-1.1c1.9-3.5,3.8-6.7,5.8-10.1l3.3-5.6c1-1.7,4.2-7.3,1.7-14c-1.9-4.7-5.6-6.9-8.3-7.8
	c0-1.1,0-2.2,0-3c0-9.7,0.2-19.8-0.2-30c-1.3-26.3-6.3-50.9-15-73.5c-0.4-1.1-1-2.4-1.5-3.7l-0.8-1.7c-1.9-4.5-6.3-7.5-11.1-7.8
	c-0.2,0-0.2,0-0.4,0c-4.6,0-9,2.6-11.3,6.9l-14.8,28.7l-21.5-54.8l-5.8-15.1c8.3-1.5,16.5-3.2,24.8-4.7l6.7-1.3l12.5-2.4
	c11.3-2.2,22.5-4.3,34-6.5c6.5-1.3,11.5-5.4,14.2-11.4c8.8-19.6,17.5-39.5,26.1-59.1l7.3-16.6l2.3-5.4c0.8-1.7,1.3-3.7,1.3-5.6
	C1675.6,65.8,1673.5,61.4,1670.2,59.1z"/>
<polygon class="st1" points="362.9,442.8 362.9,434 354.4,434 272.3,434 264,434 264,442.8 264,545.5 201.4,545.5 201.4,442.8 
	201.4,434 192.8,434 110.8,434 102.5,434 102.5,442.8 102.5,746 102.5,754.6 110.8,754.6 192.8,754.6 201.4,754.6 201.4,746 
	201.4,637.5 264,637.5 264,746 264,754.6 272.3,754.6 354.4,754.6 362.9,754.6 362.9,746 "/>
<path class="st1" d="M645.1,669.6V518.3c0-60.6-43.4-89.9-132.5-89.9c-89.3,0-132.5,29.3-132.5,89.9v151.3
	c0,60.8,43.4,90.3,132.5,90.3S645.1,730.4,645.1,669.6z M546.2,652.6c0,12.5-5,18.3-33.6,18.3c-28.6,0-33.6-5.8-33.6-18.3V534
	c0-12.5,5-18.3,33.6-18.3c28.6,0,33.6,5.8,33.6,18.3V652.6z"/>
<path class="st1" d="M660.7,508.4v31.9c0,44.8,12.5,67.9,42.2,77.2l60.9,20.1l1.5,0.4c12.3,4.1,20.2,6.7,23.2,8.8
	c0.6,0.6,1.3,0.9,1.3,7.1v12.5c0,3.4-4.2,5.8-24.6,5.8c-25.3,0-86.4,0-86.4,0h-8.6v8.8v70.1v8.6h8.3c0,0,60.3,0.2,87.9,0.2
	c80.8,0,121.9-26.9,121.9-80.2v-36c0-44.6-11.7-66-41.5-76.1l-61.4-21.3c-26.1-9.3-26.1-9.5-26.1-15.3v-9.7c0-3.9,1.7-6.5,25.9-6.5
	c27.8,0,81.8-1.3,82.4-1.3l8.3-0.2v-8.6v-67.9v-8.6h-8.3c0,0-54.7,0-84.7,0C727.1,428.4,660.7,442.2,660.7,508.4z"/>
<path class="st1" d="M895.9,508.4v31.9c0,44.8,12.5,67.9,42.2,77.2l60.9,20.1l1.5,0.4c12.3,4.1,20.2,6.7,23.2,8.8
	c0.6,0.6,1.3,0.9,1.3,7.1v12.5c0,3.4-4.2,5.8-24.6,5.8c-25.3,0-86.4,0-86.4,0h-8.6v8.8v70.1v8.6h8.3c0,0,60.3,0.2,87.9,0.2
	c80.8,0,121.9-26.9,121.9-80.2v-36c0-44.6-11.7-66-41.5-76.1l-61.4-21.3c-26.1-9.3-26.1-9.5-26.1-15.3v-9.7c0-3.9,1.7-6.5,25.9-6.5
	c27.8,0,81.8-1.3,82.4-1.3l8.3-0.2v-8.6v-67.9v-8.6h-8.3c0,0-54.7,0-84.7,0C962.3,428.4,895.9,442.2,895.9,508.4z"/>
<path class="st1" d="M1180.4,556.4l-5.2,11c-1.7,3.5-4.6,5.8-8.1,6.9v174.8c0,13.6-9.4,25.4-21.7,27.4l-530.7,81.3
	c-1.3,0.2-2.3,0.2-3.5,0.2c-1.3,0-2.3,0-3.5-0.2L76.8,776.6c-12.5-1.9-21.7-13.6-21.7-27.4V440.5c0-13.6,9.4-25.4,21.7-27.4
	l525.7-80.4c39.2,4.7,317.6,46.4,516.9,76.5c-4.6-6.7-8.6-14.7-11.3-23.5c-1.5-5-2.5-9.9-3.3-14.7c-0.4-1.9-0.6-3.9-1-5.6
	c-0.2-0.9-0.2-1.7-0.2-2.6v-7.3c0-0.6,0-1.3,0-1.7l0.2-2.2c0.2-1.7,0.4-3.7,0.6-5.4c2.9-19.2,10.9-34.1,23.6-44.8
	c-1.7-8.2-3.1-16.6-4.6-25c-3.8-23.3-6.1-47.9-6.9-72.9c-0.6-25,0.2-51.1,2.9-78c0.8-7.8,4.2-14.4,9.8-19.2l0.2-0.2V38.8
	c0-1.5-0.2-2.8-0.4-4.3c-0.6-2.8-1.7-5.4-3.1-7.5c-1.5-2.2-3.3-4.3-5.6-5.8c-3.3-2.4-7.3-3.7-11.5-3.7H104.6
	c-4.2,0-8.1,1.3-11.5,3.7c-2.1,1.5-4.2,3.4-5.6,5.8c-1.5,2.2-2.5,4.7-3.1,7.5c-0.2,1.3-0.4,2.8-0.4,4.3v329l-13.4,1.9
	c-7.7,1.1-14.8,3.7-21.3,7.3c-1.3,0.6-2.5,1.5-3.8,2.2c-2.7,1.7-5.4,3.7-7.9,5.8c-3.1,2.6-5.8,5.6-8.6,8.6c-4,4.7-7.1,9.9-9.8,15.7
	c-1.7,3.9-3.1,7.8-4.2,11.9c-1.7,6-2.5,12.5-2.5,19.2v308.7c0,35.6,24.6,65.5,58,70.7l470,72l60.7,9.3c3.1,0.4,6.5,0.6,9.8,0.6
	c3.3,0,6.5-0.2,9.8-0.6l530.7-81.3c33.2-5.2,58-35.1,58-70.7V591.8C1199,581,1189.4,569.2,1180.4,556.4z"/>
<polygon class="st2" points="196,336.1 246.5,328.8 246.5,122 300.3,122 300.3,72.7 142.1,72.7 142.1,122 196,122 "/>
<polygon class="st2" points="375,72.7 324.5,72.7 324.5,316.3 374.8,308.3 "/>
<polygon class="st2" points="619,210.4 629.4,210.9 677.2,285.7 735.9,293.9 673,180.7 731.3,72.7 677,72.7 631.9,156.1 619,156.1 
	619,72.7 568.5,72.7 568.5,282.9 619,282.9 "/>
<polygon class="st2" points="889.7,264.5 805.6,253.1 805.6,213.7 885.1,219 885.1,170.8 805.6,165.4 805.6,121.8 890.7,121.8 
	890.7,72.7 755.3,72.7 755.3,296.7 889.7,316.3 "/>
<polygon class="st2" points="966.7,327.9 1017.2,335 1017.2,122 1071,122 1071,72.7 912.8,72.7 912.8,122 966.7,122 "/>
<path class="st2" d="M479.2,291.3c1.7,0,6.3,0.4,62.6-8.4v-48.1c-57,7.5-61.1,7.5-62.6,7.5c-14,0-26.7-1.5-26.7-22v-77.6
	c0-20.5,12.7-23.1,26.7-23.1c1.7,0,3.1,0,62.6,0.2V72.7c-59.5,0-61.1,0-62.6,0c-45.7,0-76.4,14.9-76.4,59.5v101.1
	C402.6,277.7,433.5,291.3,479.2,291.3z"/>
<polygon class="st2" points="354.4,442.8 272.3,442.8 272.3,554.1 192.8,554.1 192.8,442.8 110.8,442.8 110.8,746 192.8,746 
	192.8,628.7 272.3,628.7 272.3,746 354.4,746 "/>
<path class="st2" d="M636.5,669.6V518.3c0-60.8-49.5-81.3-124.2-81.3s-124.2,20.5-124.2,81.3v151.3c0,61.2,49.5,81.7,124.2,81.7
	C587.1,751.1,636.5,730.9,636.5,669.6z M554.5,652.6c0,24.4-19.8,27.2-42.2,27.2c-22.3,0-42.2-2.6-42.2-27.2V534
	c0-24.4,19.8-27.2,42.2-27.2c22.3,0,42.2,2.6,42.2,27.2V652.6z"/>
<path class="st2" d="M669.3,508.4v31.9c0,47.4,15,62.1,36.1,68.8l60.9,20.1c29.6,9.7,31.7,10.1,31.7,24.8v12.5
	c0,13.4-14.6,14.7-33.2,14.7c-25.3,0-86.4,0-86.4,0v70.1c0,0,60.3,0.2,87.9,0.2c70.5,0,113.3-20.1,113.3-71.4v-36
	c0-46.6-13.8-60.4-35.7-67.9l-61.4-21.3c-28.4-10.1-31.7-11.6-31.7-23.5v-9.7c0-14.2,13.8-15.1,34.4-15.1c28,0,82.2-1.3,82.2-1.3
	v-67.9c0,0-54.7,0-84.7,0C715.6,437,669.3,456.2,669.3,508.4z"/>
<path class="st2" d="M904.5,508.4v31.9c0,47.4,15,62.1,36.1,68.8l60.9,20.1c29.6,9.7,31.7,10.1,31.7,24.8v12.5
	c0,13.4-14.6,14.7-33.2,14.7c-25.3,0-86.4,0-86.4,0v70.1c0,0,60.3,0.2,87.9,0.2c70.5,0,113.3-20.1,113.3-71.4v-36
	c0-46.6-13.8-60.4-35.7-67.9l-61.4-21.3c-28.4-10.1-31.7-11.6-31.7-23.5v-9.7c0-14.2,13.8-15.1,34.4-15.1c28,0,82.2-1.3,82.2-1.3
	v-67.9c0,0-54.7,0-84.7,0C950.8,437,904.5,456.2,904.5,508.4z"/>
<path class="st1" d="M1576.5,164.5c15.4-3,30.9-6,46.3-8.8c1.3-0.2,2.3-0.6,2.9-1.3c0.8-0.6,1.5-1.5,1.9-2.6
	c11.1-25.2,22.3-50.2,33.4-75.5c0.8-1.7,1.7-3.7,2.3-5.4c0-0.2,0-0.4,0-0.4c-16.7,6.9-33.4,13.8-50.1,20.9
	c-23,9.5-45.9,19.2-68.9,28.7c-9.2,3.9-18.6,7.8-27.8,11.6c-0.6,0.2-1.3,0.4-1.7,0.6c-0.2,0-0.2,0-0.4,0s-0.4,0-0.6,0
	c-0.2,0-0.6-0.2-0.8-0.4c-0.2-0.2-0.2-0.2-0.4-0.4c-0.4-0.4-0.6-1.1-1-2.2l0,0c-11.1-26.3-21.9-52.6-33-78.9c-1-2.6-2.7-4.1-5.2-4.7
	c-20.9-6.5-41.9-11-63.4-13.6l0,0c-6.9-0.9-13.6-1.3-20.5-1.7c-2.1-0.2-4.4-0.2-6.5-0.2c-5.8-0.2-11.7-0.4-17.3-0.2
	c-8.1,0.2-16.3,1.1-24.4,1.5c-0.8,0-1.7,0-2.3,0.2c-0.4,0-0.6,0-0.8,0c-0.6,0-1.3-0.2-1.7-0.6c0,0,0-0.2-0.2-0.2
	c-0.4-0.4-0.4-1.1-0.4-2.2l0,0c0-0.6,0-1.1,0-1.5v-0.2c0-0.2,0-0.2,0-0.2l0,0c0,0,0,0.2-0.2,0.2c0,0.2,0,0.2-0.2,0.2l0,0v-0.2v-0.2
	c0-0.2,0-0.6,0-1.5c0-1.3,0-2.4,0-3.7c0-1.7-0.4-3.4-1-4.7c-0.4-1.1-1-2.2-2.1-3l0,0c-0.2-0.2-0.8-0.2-1.7-0.2c-0.8,0-1.7,0-2.9,0.2
	c-0.2,0-0.4,0-0.6,0.2c-1,0.2-2.1,0.2-3.3,0.6c-0.4,0-1,0.2-1.7,0.4c-1,0.2-2.3,0.4-3.3,0.6c-0.6,0.2-1.5,0.4-2.1,0.4
	c-1.3,0.2-2.3,0.6-3.8,0.9c-0.8,0.2-1.7,0.4-2.5,0.6c-1.3,0.2-2.5,0.6-4,0.9c-0.8,0.2-1.9,0.4-2.7,0.6c-1.3,0.4-2.7,0.6-4,1.1
	c-1,0.2-1.9,0.4-2.9,0.9c-1.3,0.4-2.7,0.6-4,1.1c-0.8,0.2-1.9,0.4-2.7,0.9c-1.5,0.4-2.7,0.9-4.2,1.1c-0.8,0.2-1.9,0.4-2.7,0.9
	c-1.3,0.4-2.7,0.6-4,1.1c-0.8,0.2-1.9,0.4-2.7,0.9c-1.3,0.4-2.5,0.6-3.5,1.1c-0.8,0.2-1.7,0.4-2.5,0.6c-1,0.2-2.1,0.6-3.1,0.9
	c-0.8,0.2-1.7,0.4-2.5,0.6c-0.8,0.2-1.7,0.4-2.5,0.9c-0.6,0.2-1.3,0.4-1.9,0.4c-1.3,0.4-2.3,0.6-3.3,1.1l0,0
	c-0.8,0.2-1.3,0.4-1.9,0.6c-0.4,0.2-0.6,0.2-0.8,0.2c-0.2,0-0.4,0.2-0.4,0.2s-0.6,0-1.7,0.2c-2.1,0.2-5.4,1.3-7.5,3.7
	c-1,1.3-1.9,3-2.1,5.2c0.2,3,0.4,6.3,0.8,9.3c0.2,1.9-0.2,3-1.3,4.1c-0.4,0.2-0.8,0.6-1.5,0.9c-11.1,5-22.3,9.5-33,14.9
	c-6.1,3-12.1,6.3-17.9,9.7c-11.7,6.9-23,14.4-33.8,22.6c-5.4,4.1-10.9,8.4-16.1,12.7c-1.7,1.3-2.7,2.8-3.8,4.5
	c-0.8,1.7-1.5,3.7-1.7,5.8c-1.9,19-2.9,37.9-3.1,56.9v0.2c0,6.3,0,12.5,0.2,18.8c0.2,6,0.4,11.9,0.8,17.9
	c0.6,11.9,1.9,23.7,3.3,35.4c0.8,5.8,1.7,11.9,2.5,17.7c1.7,9.7,3.5,19.2,5.2,28.7c0.2,0.6,0.2,1.1,0.2,1.7v0.2c0,0.2,0,0.4-0.2,0.9
	c0,0.4-0.2,0.9-0.4,1.3c-0.4,0.9-0.8,1.5-1.9,2.2c-13.1,9.5-19.4,23.1-21.9,39c-0.4,2.4-0.6,4.7-0.8,7.1c0,2.4,0,5,0,7.3
	c0.6,2.6,1,5.4,1.5,8c0.6,3.7,1.5,7.5,2.5,11c1,3.2,2.1,6.3,3.5,9.3c2.7,6,6.1,11.4,10.4,16.2c2.1,2.4,4.6,4.7,7.3,6.7
	c2.7,2.2,5.8,3.9,9,5.6c1.5,0.9,2.3,1.7,2.3,3c0,0.4,0,1.1-0.2,1.5c-1.5,5.2-2.7,10.3-3.8,15.5c-3.1,15.5-4.4,31.3-3.5,47.2l0,0
	c1,24.8,6.7,48.3,16.9,70.7c0.4,0.9,0.8,1.7,1.5,3l0,0c2.5-5.2,5-10.3,7.5-15.5c2.5-5.2,5-10.3,7.5-15.7c3.3,5.8,6.9,11.2,10.6,16.8
	c25.9,37.9,58.4,67.7,99.3,88.4c1.5,0.9,3.1,1.5,4.8,2.4c0.6,0.2,1.3,0.6,2.1,0.9c1,0.4,2.3,1.1,3.3,1.5c0.6,0.2,1.5,0.6,2.3,0.9
	c1.3,0.4,2.3,1.1,3.5,1.5c0.4,0.2,1,0.4,1.5,0.6c1.5,0.6,3.1,1.3,4.6,1.9c0.8,0.2,1.5,0.6,2.3,0.9c1.3,0.4,2.7,1.1,4,1.5
	c0.6,0.2,1.3,0.4,1.7,0.6c1.7,0.6,3.1,1.1,4.8,1.7c0.2,0,0.4,0.2,0.6,0.2c1.9,0.6,4,1.3,5.8,1.9c0.6,0.2,1,0.4,1.7,0.4
	c1.7,0.4,3.1,1.1,4.8,1.5c0.8,0.2,1.7,0.4,2.5,0.9c1.3,0.4,2.5,0.9,3.8,1.1c0.8,0.2,1.5,0.4,2.3,0.6c1.3,0.4,2.5,0.6,3.8,1.1
	c1,0.2,1.9,0.4,2.7,0.9c1,0.2,2.1,0.6,2.9,0.9c0.8,0.2,1.5,0.4,2.3,0.6c1,0.2,2.1,0.6,3.1,0.9c0.6,0.2,1.3,0.2,2.1,0.4
	c1,0.2,2.1,0.4,2.9,0.6c0.6,0.2,1.3,0.2,1.9,0.4c0.8,0.2,1.7,0.4,2.5,0.4c0.6,0,1,0.2,1.7,0.2c0.6,0,1.5,0.2,2.1,0.2
	c0.6,0,1,0,1.5,0c0.6,0,1.3,0,1.7,0c-2.7-5.4-5.4-10.6-8.3-16c-2.7-5.4-5.6-10.8-8.6-16.4c6.3,1.9,12.3,3.7,18.6,5.2
	c1.7,0.4,3.1,0.9,4.8,1.1c5.8,1.3,11.5,2.6,17.1,3.4c0.4,0,0.8,0.2,1.3,0.2c6.1,1.1,12.1,1.7,18.2,2.2c1.5,0.2,3.1,0.2,4.6,0.4
	c5.4,0.4,10.6,0.6,16.1,0.6c0.8,0,1.5,0,2.3,0c5.2,0,10.4-0.2,15.7-0.6c1.5,0,2.7-0.2,4.2-0.4c3.8-0.4,7.7-0.6,11.5-1.3
	c1.7-0.2,3.5-0.4,5.2-0.9c3.5-0.6,7.1-1.3,10.6-1.9c1.7-0.4,3.3-0.6,5-1.1c4.4-1.1,8.8-2.2,13.1-3.4c0.6-0.2,1.3-0.4,1.9-0.4
	c5-1.5,10-3.2,15-5c1.5-0.6,2.9-1.1,4.4-1.7c3.5-1.3,7.1-2.8,10.6-4.3c1.7-0.9,3.5-1.5,5.2-2.4c3.5-1.5,6.9-3.2,10.4-5.2
	c1.5-0.9,3.1-1.5,4.6-2.4c4.8-2.6,9.8-5.4,14.6-8.4l0,0c0-0.2,0-0.6,0-0.9c-14.4-5-29-9.9-44-14.9c5.8-3.2,11.5-6.7,16.9-10.1
	c16.5-10.6,30.9-22.9,43.4-37.1c8.3-9.5,15.7-19.6,22.1-30.8c6.5-11.2,11.7-23.3,16.1-36.2c0.4-1.1,0.8-2.4,1-3.7
	c0.8-2.6,1.5-5.4,2.3-8.4c1.5-6,2.9-12.5,4.2-19.2c1.3-6.5,2.3-12.9,2.9-18.1c0.4-2.6,0.6-5.2,0.6-7.1c0.2-3.2,0.2-5.4-0.2-6.7
	c-6.5,5.4-12.9,10.6-19.4,16c-6.5,5.2-12.7,10.6-19.6,16.2c0.2-1.7,0.4-3,0.6-4.5c0.2-1.1,0.2-1.9,0.4-3c0.2-0.9,0.2-1.5,0.4-2.4
	c3.1-19.8,6.5-39.9,9.6-59.7c0.2-1.9,1-3.9,2.1-5.4c2.9-5.4,6.1-10.6,9.2-15.7c1-1.7,1.3-2.4,0-2.8c-0.4-0.2-0.8-0.2-1.5-0.4
	c-0.8-0.2-1.5-0.4-2.1-0.6c-0.6-0.2-1.5-0.4-2.3-0.4c-1-0.2-1.9-0.4-2.3-1.1c-0.4-0.6-0.4-1.5-0.4-2.6c0-13.2,0.4-26.3-0.2-39.5
	c-0.6-11.9-1.9-23.5-4.2-35.1c-2.3-11.4-5.6-22.9-9.8-33.8c-0.2-0.6-0.6-1.5-1-2.4c-0.4-0.9-0.8-1.7-1.3-2.6
	c-9.2,17.9-18.4,35.1-27.5,53c-1.5-3.7-2.9-7.1-4.2-10.6c-0.8-1.9-1.5-3.9-2.3-5.6c-5.8-15.1-11.7-30-17.7-45.1
	c-5.8-15.1-11.7-30-17.7-45.1c-0.2-0.6-0.4-1.3-0.6-1.7c-0.2-0.6-0.4-1.3,0-1.5c0.2-0.4,0.8-0.6,1.5-0.6
	C1546.9,170.1,1561.7,167.3,1576.5,164.5z M1459.2,138.2l-9,12.3c-0.4,0.9-0.8,1.7-1.5,2.4l-29.4,16.4c-9,4.1-18.2,8-27.1,12.1
	l-95,7.5l-3.3-3.7c-2.3-2.4-2.9-2.4-5.4-0.2c-1.7,1.5-3.3,3-4.8,4.7c-2.5-0.6-5.4-3.7-6.5-8l-18.6-80c-0.6-2.4-0.2-5,1.9-5.4
	l96-25.7l81.4,7.8c0.8,0.2,3.1,2.2,4.4,5.2l21.1,48.1C1462.1,133.7,1460.9,136,1459.2,138.2z"/>
<path class="st2" d="M1131.3,184.1v-0.2C1131.3,184.1,1131.3,184.1,1131.3,184.1z"/>
<path class="st3" d="M1598.2,362.6c-0.8-0.2-1.3-0.2-1.7-0.2c-11.7-1.5-23.2-3.2-34.9-4.5c-19.4-2.2-38.8-3.4-58.4-1.9
	c-3.8,0.2-4.2,0.6-4.2,4.5c0,11,0,22.2,0.2,33.2c0,2.4-0.6,3.7-3.1,3.9c-14.6,1.9-29.2,4.1-43.8,6c-15,2.2-29.8,3.7-45.1,3.4
	c-6.9,0-13.4-1.9-18.4-7.3c-3.8-4.1-5.2-9.1-6.3-14.4c-0.4-1.9-1.3-2.8-3.1-2.2c-4,1.3-8.1,2.4-11.9,4.1
	c-28.6,12.7-55.5,28.5-81.2,46.4c-10.2,7.1-20.7,14.2-29.4,23.5c-0.8,0.9-1.5,1.9-2.1,3c1,0.4,2.1,1.1,3.3,1.3
	c32.8,6.9,65.7,9.9,99.1,7.8c22.5-1.5,44.9-4.5,66.8-9.9c65.7-16.2,123.1-48.1,172.8-95.1C1597.4,363.9,1597.6,363.5,1598.2,362.6z"
	/>
<path class="st2" d="M1317.7,510.5c16.7,16.2,36.3,22.4,58.9,16.4c32.1-8.4,58.2-26.7,79.7-52.4c1.7-1.9,3.1-3.9,4.6-5.8
	c-24.8,7.8-49.9,13.6-75.5,16.6c-25.7,3-51.3,3-77.2,0.9c2.9,3,6.1,6,9.4,8.4c3.3,2.4,7.1,4.3,10.9,6c3.8,1.5,7.7,2.6,12.1,3.9
	c-8.1,1.3-16.1,2.4-24.2,3.7C1316.7,509.4,1317.1,510.1,1317.7,510.5z"/>
<path class="st4" d="M1193.5,395c1.9-2.2,3.1-4.3,2.5-7.3c-3.8-20.5-7.5-41.2-11.3-61.7c-0.2-1.5-1.3-3-2.3-4.1
	c-10.4-9.3-27.5-8.4-37.4,1.7c-9.2,9.5-12.3,21.3-12.1,32.6c0.2,16.6,4.6,29.1,12.5,38.4C1158.9,410.7,1179.8,410.7,1193.5,395z
	 M1159.5,369.5c-0.4-1.7,0.4-3.7,1.9-5.2c2.5-3,5.8-4.7,9.6-5.4c2.9-0.6,3.1-0.9,2.1-3.9c-3.8-10.3-10.2-12.1-17.9-4.5
	c-2.5,2.6-4.8,5.4-7.3,8.4c0-1.7-0.2-3.5,0-5c0.6-4.3,2.3-8.2,5-11.4c4.6-5.4,10.2-6.7,16.5-3.7c7.9,4.1,12.3,11,14,19.6
	c1.5,6.9,1,13.6-2.1,20.1c-1.5,3.2-4,5.6-7.1,6.9c2.5-4.7,3.5-9.7,2.3-14.9c-1-4.3-3.5-6.5-7.5-5.2
	C1165.6,366.3,1162.7,368,1159.5,369.5z"/>
<path class="st2" d="M1215.9,155.2c4.4,52.8,23,89.9,25.5,94.6c3.8-1.7,7.5-3.5,11.3-5.2c1.7-0.6,2.3-1.7,2.7-3.4
	c1.9-6.7,3.5-13.4,6.3-19.6c4-8.8,9-16.8,14.8-24.1c-4.4-2.8-7.7-7.8-9-13.6l-18.6-80c-1.9-8.4,2.1-16.2,9.2-18.1l96.2-25.7
	c0.6-0.2,1.5-0.2,2.1-0.2c0.4,0,0.6,0,1,0l81.8,8c4.6,0.4,9.8,5.2,12.5,11.2l21.9,50c6.9,2.6,14,5.2,20.2,9.1
	c2.1,1.3,4.2,2.4,6.3,3.7c0.2-0.2,0.2-0.2,0.4-0.4c-1.3-3.2-2.5-6.3-3.5-9.5c-8.3-22.6-16.7-45.1-24.8-67.7c-1-2.6-2.5-4.5-5.2-5.2
	c-2.3-0.6-4.6-1.5-7.1-2.4c-32.1-10.3-64.9-15.5-98.5-13.8c-10.2,0.4-20.5,1.5-30.5,2.8c-18.8,2.6-37.1,7.5-55.3,13.4
	c-19.4,6-38.2,13.8-56.1,22.9C1216.7,93.4,1212.5,116.6,1215.9,155.2z"/>
<path class="st2" d="M1324.6,211.3c12.9-5.8,25.9-11.4,38.8-17.2l-56.3,4.5c4,3.9,7.9,7.8,11.9,11.6
	C1320.6,211.9,1322.3,212.1,1324.6,211.3z"/>
<path class="st3" d="M1598.4,385.7c-1,0.9-1.7,1.3-2.1,1.7c-31.7,28.7-66.8,51.7-105.2,69.4c-1.9,0.9-3.5,2.4-4.8,3.9
	c-18.2,24.6-39.7,45.7-65.1,61.9c-17.9,11.4-36.7,20.5-58,22.2c-15.7,1.3-30.5-1.3-43.8-10.3c-15.4-10.6-26.3-24.8-33.2-42.5
	c-1.3-3.4-3.3-5.2-6.9-5.6c-16.5-1.5-31.7-7.1-46.1-15.7c-1.9-1.1-2.3-2.2-0.8-4.1c5.8-7.1,11.3-14.7,17.3-21.3
	c9.2-10.3,19.4-19.4,30.7-27.6c2.7-1.9,2.7-2.4-0.2-4.5c-2.1-1.5-4.2-2.8-6.1-4.3c-11.5-8.2-23-16.4-34.4-24.6
	c-1.5-1.1-2.5-1.9-2.3-4.1c1.3-12.7-1-24.6-7.1-35.8c-1.9-3.4-2.3-6.7-0.8-10.3c6.9-19.8,9.6-40.5,7.7-61.7c-0.2-3-0.6-3.2-3.1-1.9
	c-17.5,8-35.1,15.7-52.4,23.7c-3.5,1.7-7.1,3.7-11.1,5.8c1,0.4,1.5,0.9,2.1,1.1c7.3,2.8,14.4,5.8,21.7,8.6c3.3,1.3,4.6,3.2,4.8,6.7
	c0.6,13.8,1.3,27.6,1.9,41.4c0.8,19.2,1.9,38.4,2.7,57.6c0,2.2,0,4.1,0,6.3c-0.2,0-0.6,0-0.8,0c-0.8-3-1.5-6.3-2.3-9.3
	c-0.6-3-1-3.2-3.8-1.7c-6.3,3.7-12.3,7.3-18.6,11c-2.5,1.5-3.8,3.7-4.6,6.3c-7.3,27.2-9.4,55-7.3,83c0.2,1.7,0.6,3.4,1,6
	c4.4-7.8,8.3-14.9,12.3-22c3.8,6.5,7.1,12.5,10.6,18.5c13.4,21.8,30.1,40.7,48.6,57.8c28.8,26.5,60.1,48.7,96.8,61.7
	c0.6,0.2,1.5,0.2,2.3,0.2c0-0.9,0-1.5-0.2-2.4c-3.1-9.3-6.1-18.5-9.2-27.8c-0.4-1.3-0.6-2.6-1-4.3c32.8,12.3,65.9,19.8,100.2,21.1
	c34.4,1.3,68-3.2,101.2-13.8c-15-5.2-29.8-10.6-45.3-16c22.1-8.4,42.8-19.2,61.6-33.2c18.8-14,35.1-30.6,48.8-50
	c12.3-17.5,31.5-55.6,31.7-63c-13.6,14-28.6,25.7-46.5,33.8C1587.6,447.4,1594,417,1598.4,385.7z M1504.9,476
	c0.6-0.9,1.3-1.9,1.9-2.8c0,5.4-1.5,10.3-3.3,15.1c-6.1,15.5-15.7,28.5-27.8,39.7c-14,12.9-28.8,24.4-46.3,31.7
	c-6.3,2.8-12.9,4.5-19.8,5.2c-4.2,0.4-5.2-0.9-3.8-5.2c1.5-4.5,4.6-7.5,8.8-9.7c8.8-4.5,17.5-9.1,26.3-13.8
	C1466.9,521.7,1488.2,501.3,1504.9,476z"/>
<path class="st4" d="M1525.2,206.1c-10.4-6.7-20.9-12.9-31.3-19.6c-2.5-1.5-4.8-1.7-7.5-0.9c-62.2,19.8-124.2,39.7-186.4,59.3
	c-2.7,0.9-4.8,2.4-6.5,4.7c-9.4,13.2-17.5,26.7-24.8,41.2c-0.4,0.9-0.8,1.5-1.5,2.6c-3.8-5-6.5-9.9-7.5-15.7c-1-5.6-2.1-11.4-2.9-17
	c-3.1,0-3.8,0.6-3.5,3.5c0,1.7,0.4,3.4,0.4,5.2c1,20.9-2.1,41.2-9.2,60.6c-0.8,2.2-0.8,4.1,0.2,6.5c4.6,11.2,7.1,22.6,7.3,34.7
	c0,2.4,1,3.9,2.9,5c12.3,9.1,24.8,18.3,37.1,27.6c2.3,1.7,4.4,1.9,6.9,0.2c24.2-15.7,49.9-28.5,76.8-38.4c2.1-0.9,2.9-1.9,2.9-4.3
	c0-6,0-12.1,0.8-18.1c1.5-10.8,9.4-16.2,19.8-14c13.8,3,26.3,9.1,38.6,16.4c3.8,2.2,7.3,4.7,11.1,7.1c-0.2,0.2-0.2,0.4-0.4,0.6
	c-16.7-5-33.6-7.3-50.9-7.8c-3.5,0-4,0-4.2,3.9c-0.6,13.8,2.1,26.7,7.9,39c0.8,1.7,2.1,2.8,4,2.8c2.3,0.2,4.8,0.4,7.1,0.4
	c14.4,0.9,28.8,0.6,43.2-1.3c9-1.1,17.7-3,26.5-4.5c1.7-0.2,2.5-1.3,2.3-3c0-2.8,0-5.6,0.2-8.4c0-21.1-2.5-42-6.3-62.7
	c-6.5-35.6-19.8-67.9-43.2-95.3c-1-1.3-2.1-2.6-3.1-3.9c0.6-0.2,1,0,1.3,0.2c5.4,4.5,11.1,8.6,16.1,13.4
	c14.6,14.2,24.6,31.5,32.6,50.2c8.1,19,12.9,39,15.7,59.5c0.4,3.9,0.6,3.9,4.2,3.9c12.7-0.2,25.5-0.2,38.4-0.4c2.3,0,3.8-1.1,4.8-3
	c6.3-10.8,12.5-21.6,18.8-32.1c1.3-1.9,1.3-3.9,0.4-6c-11.5-29.1-23.2-58.2-34.6-87.3C1528.3,209.1,1526.8,207.2,1525.2,206.1z
	 M1330.2,286.3c2.9-8.6-1.5-16-12.1-19.6c4.4-3.5,9.2-3.5,14-2.2c12.7,3.2,20.9,16,19.4,30.2c-0.8,7.1-3.1,13.4-7.9,18.5
	c-7.9,8.6-20.7,8.8-29,0.4c-5.8-5.8-8.8-12.7-8.8-21.6c5.2,4.3,10.9,5.8,16.9,2.8C1326.5,293.2,1329,290.4,1330.2,286.3z
	 M1484.7,253.3c-1.5-4.3-1.7-8.2-0.6-11.2c8.3,5.2,14.8,4.5,18.4-1.9c3.3-6,0.8-12.9-6.5-16.8c0.8-0.4,1.5-1.1,2.1-1.1
	c11.1-1.9,21.5,0.9,27.1,15.1c4.4,11.2,0,24.8-9.8,30C1503.9,273.4,1489.3,266.9,1484.7,253.3z M1369.9,307.2
	c0.8-0.4,1.9-0.6,3.1-1.1c-0.4,3.9-0.6,7.1-1,10.3c0,0.6-0.8,1.5-1.5,1.7c-24.6,11.4-47.2,25.9-67.8,43.8c-0.2,0.2-0.4,0.2-1,0.2
	c1-2.4,2.1-4.7,3.3-6.9c4.8-8.2,11.5-14.7,18.6-20.7C1337.3,322.7,1352.8,313.5,1369.9,307.2z M1546.4,286.5c0.2,0,0.2,0.2,0.8,0.6
	c-7.5,0.6-14.6,1.3-21.7,1.9c-8.6,0.6-17.1,1.5-25.9,2.4c-2.5,0.2-4.2-0.2-5-3c-0.6-2.2-1.7-4.1-2.7-6.3c-0.6-1.3-0.4-2.2,1.3-2.4
	C1511.4,278.1,1529.3,279.8,1546.4,286.5z"/>
<path class="st2" d="M1305,176.1c-2.9-13.2-4.4-19.8-7.5-32.6c6.7-0.9,10.2-1.5,16.9-2.6c3.1,12.9,4.6,19.4,7.7,32.6
	c4.4-0.2,10.4-1.3,14.2-2.6c-7.7-31.3-11.7-47-19.4-77.2c-3.8,0.2-9.6,1.1-13.6,2.2c2.7,10.8,4,16.4,6.7,27.4
	c-6.7,1.1-10,1.5-16.7,2.6c-2.5-11-4-16.4-6.5-27.2c-4.2,0.2-10.4,1.5-14.6,2.6c6.9,29.1,10.2,44.6,17.1,76.3
	C1294.3,178.1,1300.8,177.2,1305,176.1z"/>
<path class="st2" d="M1340.9,148.3c4.2,16.4,14.2,20.3,26.9,17.5c12.3-2.8,18.6-9.9,14-25.2c-4.4-14.4-6.5-21.6-10.6-36.2
	c-4.2-14-12.9-17.9-24.8-16.2c-12.1,1.5-19,7.5-15.2,22.2C1334.8,125.5,1336.9,133,1340.9,148.3z M1350.3,103.1
	c4-0.6,7.7-0.2,9.6,6.5c3.3,11.9,5,17.7,8.3,29.5c2.1,7.1-1.3,8.6-5.4,9.5c-4.2,0.9-8.1,0.6-10-6.5c-3.3-12.1-5-18.1-8.1-30.2
	C1343,105,1346.3,103.7,1350.3,103.1z"/>
<path class="st2" d="M1379.1,108.4c3.3,10.8,6.7,13.8,10.6,14.9c4.2,1.3,6.3,1.9,10.4,3.2c4.8,1.5,5.4,1.5,6.7,5.4
	c0.4,1.3,0.6,1.9,1,3c1.3,3.9-1,5-4,5.6c-3.8,0.9-8.6,1.3-14.6,1.3c0.8,4.5,3.1,11.6,4.8,16c5.4,0,10.9-0.9,15-1.9
	c10.2-2.6,14.6-8.6,10.6-20.3c-1-3-1.7-4.7-2.7-7.8c-3.3-9.9-6.5-12.5-10.4-14c-4.2-1.3-6.3-2.2-10.2-3.4c-4.8-1.7-5.6-2.2-6.5-5.2
	c-0.2-0.9-0.4-1.5-0.8-2.4c-1.3-4.1,1-4.7,4.2-5c4-0.4,7.5-0.4,13.1,0.6c-0.8-3.9-2.9-9.7-4.4-13.4c-5.6-1.3-9.4-1.5-13.6-1.3
	c-9.6,0.9-15.2,5.8-11.7,17.7C1377.8,104.1,1378.2,105.6,1379.1,108.4z"/>
<path class="st2" d="M1414.3,104.1c3.3,9.9,6.5,12.7,10.4,13.8c3.8,1.3,5.8,1.9,9.6,3c4.6,1.3,5,1.5,6.3,5c0.4,1.1,0.6,1.7,1,2.8
	c1.3,3.4-0.6,4.3-3.3,5c-3.3,0.6-7.7,1.1-13.1,1.1c1,4.1,3.3,10.3,5,14.2c4.8,0,9.8-0.9,13.4-1.7c9.2-2.4,12.9-7.3,8.8-17.7
	c-1-2.8-1.7-4.1-2.7-6.9c-3.5-8.8-6.3-11.2-10-12.7c-3.8-1.3-5.6-2.2-9.4-3.4c-4.4-1.7-5.2-2.2-6.3-5c-0.4-0.9-0.4-1.3-0.8-2.2
	c-1.3-3.7,0.6-4.1,3.5-4.3c3.5-0.2,6.9,0,11.9,1.1c-1-3.4-2.9-8.8-4.6-12.1c-5.2-1.5-8.6-1.9-12.3-1.7c-8.8,0.2-13.6,4.5-9.8,15.5
	C1412.9,100.3,1413.5,101.5,1414.3,104.1z"/>
<path class="st3" d="M1473.8,141.9c-2.9-1.1-3.5-0.6-5,2.2c-1.3,2.2-2.3,4.5-3.5,6.7c-1.9,3.2-1.7,3.9,1.3,5.6
	c10.2,6.3,20.5,12.5,30.9,19c7.9,4.7,15.9,9.7,24.2,14.9c-0.2-0.9-0.2-1.3-0.4-1.5c-0.4-1.3-1-2.6-1.5-3.9
	C1510.1,163.9,1494.7,149.8,1473.8,141.9z"/>
<path class="st3" d="M1267.4,268.6c0.8-0.4,1-0.4,1-0.4c1.3-2.6,2.5-5,4-7.5c8.6-16.8,19-32.3,30.5-47.2c2.1-2.6,2.1-3-0.2-5.2
	c-2.9-2.8-5.8-5.6-9-8.4c-3.5-3.2-3.5-3.2-6.5,0.6c-12.9,17-19.4,36.4-19.8,58C1267.2,261.7,1267.4,265.2,1267.4,268.6z"/>
<path class="st5" d="M1319.2,266.3c8.1,1.5,13.1,6.9,13.8,15.1c0.4,6.9-4.2,13.8-11.1,15.7c-6.1,1.9-11.3-0.2-15.9-4.3
	c-1.9-3.2-3.5-6.5-3.8-10.6c-0.2-8.2,7.3-16.4,15.2-15.7C1318.1,266.3,1318.8,266.3,1319.2,266.3z"/>
<path class="st5" d="M1497.6,222.7c4.8,1.5,7.9,5.4,8.1,11c0.2,5.2-1.9,9.3-6.3,11.9c-4.6,2.6-9,1.9-13.1-1.1
	c-0.8-0.6-1.5-1.5-2.3-2.2c-3.8-7.1-3.3-12.3,2.1-17.2C1489.5,221.8,1493.2,221.2,1497.6,222.7z"/>
<g transform="matrix(2.086968, 0, 0, 2.155938, -1060.487183, -1319.921631)">
	<path class="st6" d="M1214.8,781c-6.2-22.2-13.2-44.2-21.1-65.9C1208.6,734.5,1215.7,756.5,1214.8,781z"/>
	<path class="st6" d="M1135.4,781.7c1.3-1.6,3-2.9,4.6-4.1c5.5-4.3,11.3-7.9,17.5-11c2-1,4-1.8,6-2.7c1.6-0.7,3,0.1,3.3,1.8
		c0.3,1.9-0.6,3.5-2.4,4c-5.5,1.6-11,3.5-16.3,5.8c-4.1,1.8-8.1,3.6-11.9,5.9C1136,781.5,1135.7,781.6,1135.4,781.7z"/>
	<path class="st6" d="M1249.5,749.4c-5,0.7-9.7,1.8-14.2,3.1c-1.1,0.3-2.2,0.6-3.3,1c-2.2,0.8-4.7-2.1-4.8-3.8
		c0-0.4,0.2-0.6,0.6-0.7c1.9-0.4,3.9-0.6,5.8-0.7c4.9-0.3,9.8,0.1,14.7,0.8C1248.6,749.1,1248.9,749.3,1249.5,749.4z"/>
</g>
<path class="st7" d="M1310.4,601.5c-53.6-26.5-94.3-66.8-122.3-120.9c-0.2-0.2,0.2-0.6,0.4-0.4c36.9,44.4,77.4,84.9,122.1,120.9
	C1311,601.3,1310.8,601.7,1310.4,601.5z"/>
<path class="st7" d="M1486.1,603.4c-19.6,4.7-39.7,5.6-59.7,5c-19.6-0.6-39-4.3-58-9.9c-12.1-3.7-24-8.2-35.5-13.8
	c25.5,4.1,50.7,8,76.4,11C1435,598.9,1460.5,601.5,1486.1,603.4z"/>
<g id="XMLID_00000023280775331412916300000017920141573930809263_" transform="matrix(2.086968, 0, 0, 2.155938, -1060.487183, -1319.921631)">
	<g>
		<path class="st7" d="M1246.8,858.5c9.3-7.2,18.5-14.7,27.6-22.3c-13.9,20.8-32.6,35.1-56.2,43.4
			C1227.9,872.7,1237.5,865.8,1246.8,858.5z"/>
	</g>
</g>
<path class="st7" d="M1564.4,380.5c-84.3,65.5-178.9,89.3-283.2,73.5c16.3-0.9,32.6-1.3,48.6-2.8c16.3-1.5,32.6-3.4,48.8-6.3
	c16.1-2.8,32.1-6,48-10.1c15.9-4.1,31.5-8.8,47.2-14.4c15.7-5.6,30.9-11.6,46.1-18.3C1535,395.4,1549.6,387.9,1564.4,380.5z"/>
<g transform="matrix(2.086968, 0, 0, 2.155938, -1060.487183, -1319.921631)">
	<g>
		<path class="st8" d="M884.3,1035.2c0.3,0.4,0.5,1,0.5,1.6v2.8c0,0.7-0.2,1.3-0.5,1.7c-0.3,0.4-0.8,0.6-1.4,0.6
			c-0.2,0-0.4,0-0.7-0.1c-0.2-0.1-0.4-0.2-0.6-0.4c0,0,0,0-0.1,0c0,0,0,0,0,0.1v2.8v0.1h-0.1h-1.3H880v-0.1v-9.4v-0.1h0.1h1.3h0.1
			v0.1v0.2l0,0c0,0,0,0,0.1,0c0.3-0.3,0.7-0.4,1.2-0.4C883.5,1034.6,884,1034.8,884.3,1035.2z M883,1036.3c-0.2-0.2-0.4-0.3-0.6-0.3
			c-0.3,0-0.5,0.1-0.6,0.3c-0.2,0.2-0.2,0.4-0.2,0.7v2.6c0,0.3,0.1,0.5,0.2,0.7c0.2,0.2,0.4,0.3,0.6,0.3c0.3,0,0.5-0.1,0.6-0.3
			c0.2-0.2,0.2-0.4,0.2-0.7v-2.6C883.2,1036.7,883.1,1036.5,883,1036.3z"/>
		<path class="st8" d="M886.5,1041.3c-0.4-0.4-0.7-1-0.7-1.7v-2.8c0-0.7,0.2-1.2,0.7-1.6c0.4-0.4,1-0.6,1.8-0.6s1.4,0.2,1.8,0.6
			c0.4,0.4,0.7,1,0.7,1.6v2.8c0,0.7-0.2,1.2-0.7,1.7c-0.4,0.4-1,0.6-1.8,0.6C887.6,1042,887,1041.7,886.5,1041.3z M889,1040.3
			c0.2-0.2,0.2-0.4,0.2-0.7v-2.6c0-0.3-0.1-0.5-0.2-0.7c-0.2-0.2-0.4-0.3-0.6-0.3c-0.3,0-0.5,0.1-0.6,0.3c-0.2,0.2-0.2,0.4-0.2,0.7
			v2.6c0,0.3,0.1,0.5,0.2,0.7c0.2,0.2,0.4,0.3,0.6,0.3C888.6,1040.5,888.8,1040.5,889,1040.3z"/>
		<path class="st8" d="M892.9,1041.7l-1.5-6.8v-0.1c0-0.1,0.1-0.1,0.2-0.1h1.2c0.1,0,0.2,0.1,0.2,0.2l0.7,4.3l0,0l0,0l0.8-4.3
			c0-0.1,0.1-0.2,0.2-0.2h1.1c0.1,0,0.2,0.1,0.2,0.2l0.8,4.3l0,0l0,0l0.7-4.3c0-0.1,0.1-0.2,0.2-0.2h1.2c0.1,0,0.2,0.1,0.1,0.2
			l-1.5,6.7c0,0.1-0.1,0.2-0.2,0.2h-1.2c-0.1,0-0.2-0.1-0.2-0.2l-0.7-4.1l0,0l0,0l-0.7,4.1c0,0.1-0.1,0.2-0.2,0.2h-1.2
			C893,1041.8,892.9,1041.8,892.9,1041.7z"/>
		<path class="st8" d="M904.6,1038.8L904.6,1038.8h-3.2c0,0-0.1,0-0.1,0.1v0.6c0,0.3,0.1,0.5,0.2,0.7c0.2,0.2,0.4,0.3,0.6,0.3
			c0.2,0,0.4-0.1,0.5-0.2c0.2-0.1,0.3-0.3,0.3-0.5c0-0.1,0.1-0.1,0.2-0.1l1.2,0.1h0.1v0.1c-0.1,0.6-0.3,1.1-0.7,1.5
			c-0.4,0.3-1,0.5-1.7,0.5c-0.8,0-1.4-0.2-1.8-0.6c-0.4-0.4-0.7-1-0.7-1.6v-2.8c0-0.7,0.2-1.2,0.7-1.6c0.4-0.4,1-0.6,1.8-0.6
			s1.4,0.2,1.8,0.6c0.4,0.4,0.7,1,0.7,1.6L904.6,1038.8C904.6,1038.8,904.6,1038.8,904.6,1038.8z M901.5,1036.3
			c-0.2,0.2-0.2,0.4-0.2,0.7v0.6c0,0,0,0.1,0.1,0.1h1.6c0,0,0.1,0,0.1-0.1v-0.6c0-0.3-0.1-0.5-0.2-0.7c-0.2-0.2-0.4-0.3-0.6-0.3
			C901.9,1036,901.7,1036.1,901.5,1036.3z"/>
		<path class="st8" d="M909.2,1034.8c0.1,0,0.1,0.1,0.1,0.2l-0.2,1.3c0,0.1-0.1,0.1-0.2,0.1c-0.1,0-0.3-0.1-0.4-0.1
			c-0.1,0-0.2,0-0.3,0c-0.3,0-0.5,0.2-0.6,0.4c-0.2,0.3-0.2,0.6-0.2,0.9v3.9v0.1h-0.1h-1.4h-0.1v-0.1v-6.7v-0.1h0.1h1.3h0.1v0.1v0.6
			v0.1l0,0c0.3-0.6,0.7-0.9,1.2-0.9C908.9,1034.7,909.1,1034.7,909.2,1034.8z"/>
		<path class="st8" d="M914.7,1038.8L914.7,1038.8h-3.2c0,0-0.1,0-0.1,0.1v0.6c0,0.3,0.1,0.5,0.2,0.7c0.2,0.2,0.4,0.3,0.6,0.3
			c0.2,0,0.4-0.1,0.5-0.2c0.2-0.1,0.3-0.3,0.3-0.5c0-0.1,0.1-0.1,0.2-0.1l1.2,0.1h0.1v0.1c-0.1,0.6-0.3,1.1-0.7,1.5
			c-0.4,0.3-1,0.5-1.7,0.5c-0.8,0-1.4-0.2-1.8-0.6c-0.4-0.4-0.7-1-0.7-1.6v-2.8c0-0.7,0.2-1.2,0.7-1.6c0.4-0.4,1-0.6,1.8-0.6
			s1.4,0.2,1.8,0.6c0.4,0.4,0.7,1,0.7,1.6L914.7,1038.8C914.8,1038.8,914.8,1038.8,914.7,1038.8z M911.7,1036.3
			c-0.2,0.2-0.2,0.4-0.2,0.7v0.6c0,0,0,0.1,0.1,0.1h1.6c0,0,0.1,0,0.1-0.1v-0.6c0-0.3-0.1-0.5-0.2-0.7c-0.2-0.2-0.4-0.3-0.6-0.3
			C912.1,1036,911.9,1036.1,911.7,1036.3z"/>
		<path class="st8" d="M919.1,1032.2L919.1,1032.2h1.4h0.1v0.1v9.4v0.1h-0.1h-1.3h-0.1v-0.1v-0.2c0,0,0,0,0-0.1c0,0,0,0-0.1,0
			c-0.3,0.3-0.8,0.5-1.3,0.5c-0.6,0-1.1-0.2-1.4-0.6c-0.3-0.4-0.5-1-0.5-1.6v-2.8c0-0.7,0.2-1.3,0.5-1.7c0.3-0.4,0.8-0.6,1.4-0.6
			c0.2,0,0.4,0,0.7,0.1c0.2,0.1,0.4,0.2,0.6,0.4c0,0,0,0,0.1,0c0,0,0,0,0-0.1V1032.2C919.1,1032.2,919.1,1032.2,919.1,1032.2z
			 M918.8,1040.3c0.1-0.1,0.2-0.3,0.3-0.6v-3c0-0.2-0.1-0.4-0.3-0.6c-0.1-0.1-0.3-0.2-0.6-0.2s-0.5,0.1-0.6,0.3
			c-0.2,0.2-0.2,0.4-0.2,0.7v2.6c0,0.3,0.1,0.5,0.2,0.7c0.2,0.2,0.4,0.3,0.6,0.3C918.5,1040.6,918.7,1040.5,918.8,1040.3z"/>
		<path class="st8" d="M929.1,1035.2c0.3,0.4,0.5,0.9,0.5,1.7v2.8c0,0.7-0.2,1.2-0.5,1.6s-0.8,0.6-1.4,0.6c-0.5,0-0.9-0.2-1.3-0.5
			c0,0,0,0-0.1,0c0,0,0,0,0,0.1v0.2v0.1h-0.1h-1.3h-0.1v-0.1v-9.4v-0.1h0.1h1.3h0.1v0.1v2.8l0,0c0,0,0,0,0.1,0
			c0.2-0.2,0.4-0.3,0.6-0.3c0.2-0.1,0.4-0.1,0.6-0.1C928.3,1034.6,928.8,1034.8,929.1,1035.2z M927.8,1036.3
			c-0.2-0.2-0.4-0.3-0.6-0.3c-0.2,0-0.4,0.1-0.6,0.2c-0.1,0.1-0.2,0.3-0.3,0.6v3c0,0.2,0.1,0.4,0.3,0.6c0.1,0.1,0.3,0.2,0.6,0.2
			s0.5-0.1,0.6-0.3c0.2-0.2,0.2-0.4,0.2-0.7v-2.6C928.1,1036.7,928,1036.5,927.8,1036.3z"/>
		<path class="st8" d="M930.6,1044.6L930.6,1044.6v-1.1v-0.1h0.1c0.3,0,0.5,0,0.7-0.1s0.3-0.2,0.4-0.4c0.1-0.2,0.2-0.5,0.2-0.9v-0.1
			l-1.7-6.9v-0.1c0-0.1,0.1-0.1,0.2-0.1h1.4c0.1,0,0.2,0.1,0.2,0.2l0.8,4.6l0,0l0,0l0.8-4.6c0-0.1,0.1-0.2,0.2-0.2h1.4
			c0.1,0,0.2,0.1,0.2,0.2l-1.9,7.3c-0.2,0.7-0.4,1.1-0.6,1.5s-0.5,0.6-0.8,0.7c-0.4,0.1-0.9,0.2-1.5,0.2L930.6,1044.6L930.6,1044.6z
			"/>
	</g>
	<path class="st9" d="M974.8,1027.9c0.1-3.6-1.5-6.7-4.9-8.1c-2.2-0.9-4.8-1.1-7.4-0.8c-3.3,0.4-6.7,1.5-9.2,2.8
		c-10.8,5.5-15,16.8-6.8,17.1c0.2,0-3.5-5.3,10.7-12c-7.4,10.4-19.4,36-5.1,36.2c0.1,0,0.3,0,0.4-0.1c0.1-0.1,0.2-0.2,0.2-0.3
		c-0.5-3.4-0.2-10.7,1.6-17c6-0.9,10.7-3.2,14.1-6C971.4,1037,974.7,1032.8,974.8,1027.9L974.8,1027.9z M960.2,1038.5
		c-1.4,0.5-2.8,0.8-4,0.9c1.6-3.8,3.9-8,6.9-12.2c0.3-0.4,0.1-1.1-0.4-1.2c-0.7-0.2-1.4-0.5-2.1-0.7c1.8-0.6,5.1-1.1,7-0.1
		c1.6,0.8,2.2,2.4,1.8,4.1c-0.3,1.6-1.6,3.3-2.6,4.5C965.1,1035.9,962.7,1037.6,960.2,1038.5L960.2,1038.5z M979,1030
		c1.4,0,2.7-1.3,2.8-2.8s-0.9-2.7-2.3-2.6c-1.4,0-2.7,1.3-2.8,2.8C976.5,1028.9,977.6,1030,979,1030L979,1030z M986.8,1041.5
		c0.1,0.7,1.1,0.8,1.7,0.6c0.5-0.2,1.1-0.7,1.8-1.3c1-0.9,2-2,2.8-3c0.3-0.4,0.6-0.9,0.9-1.3c0.1-0.1,0.2,0,0.2,0.1
		c-0.1,0.8-0.7,2.3-1.1,3.1c-0.7,1.7-1.7,3.4-2.9,4.8c-1,1.2-2.2,2.2-3.6,2.7c-1.2,0.4-3,0.5-4.1-0.2c-0.4-0.3-0.7-0.6-0.9-1.1
		c-0.4-0.9-0.4-2.1-0.1-3.4c-1.2,1.9-2.7,3.8-4.3,4.9c-1,0.7-2.4,1.1-3.6,0.8c-0.9-0.2-1.4-0.7-1.8-1.4c-0.7-1.2-0.4-2.9-0.1-4.2
		c1-3.7,2-5.7,4-10.7c0.2-0.4,0.5-0.7,1-0.7c0.9,0.1,1.7,0.2,2.5,0.5c0.9,0.4,1.1,1,0.7,2c-1.2,2.2-5.5,9.5-2,9.4
		c0.9,0,2.1-1.2,3.1-2.5c2.4-3,4.2-7.6,5.8-11.2c-1.9,0.4-2.9-0.2-4.2-1.5l0,0c0.3-1,0.3-2-0.4-2.9l0,0c0.5-0.5,0.9-0.6,1.5-0.2
		c0.1,0.1,0.3,0.2,0.5,0.3c0.8,0.5,1.5,0.5,2.4,0.3c0.5-0.1,1-0.3,1.6-0.4c0-1.1-0.3-2.2-1.1-2.7l0,0l0,0l0,0l0,0
		c0.2-0.2,0.3-0.3,0.5-0.5c0.6-0.5,1.3-0.6,1.9-0.6c0.8,0.1,1.6,0.4,2.1,1c0.4,0.5,0.6,1.3,0.7,2c0.7-0.1,1.7-0.2,2.3-0.2
		c1.7-0.1,3.9,0.1,4.9,1.7c0.1,0.1,0.1,0.2,0.2,0.3c-0.6,0.6-1.2,1.2-1.8,1.9c-2-0.4-4.9,0.2-6.3,0.5c-0.7,2-1.6,4.2-2.2,5.5
		C988.2,1036.7,986.5,1040.1,986.8,1041.5L986.8,1041.5z M1049.2,1029.2c-0.3,1-0.5,2.2-0.8,3.4c-0.3,1.2-0.6,2-1.2,3.1
		c-0.6,0.9-1.5,1.8-2.3,1.9c-2.8,0.3-0.5-5.3,0.7-8c0.2-0.4,0.4-0.8,0.5-1.2c0.1-0.3,0-0.6-0.1-0.9c-0.2-0.5-0.7-0.8-1.2-1
		c-0.4-0.1-1.3-0.3-1.9-0.2c-0.4,0.1-0.5,0.3-0.6,0.6c-0.3,0.7-0.6,1.6-0.8,2.3c-0.6,1.8-1.1,3.5-1.5,4.9c-0.2,0.7-0.3,1.3-0.4,1.9
		c-0.2,0.4-0.5,0.7-0.8,1c-0.6,0.8-1.3,1.3-1.9,1.4c-3.2,0.3,0.1-6.7,1-8.8c0.4-1-0.1-1.8-1-2.2c-0.3-0.1-1.3-0.3-1.9-0.3
		c-0.1,0-0.1,0-0.2,0c-0.5,0.1-0.7,0.5-0.8,1c0,0.1-0.1,0.3-0.1,0.4c-0.6-0.7-1.5-1.1-2.9-0.9c-2,0.2-3.8,1.6-5.2,3.4
		c1.3-4.4-0.1-8.6-4.2-10.3c-2-0.9-4.5-1-7-0.7c-3.1,0.4-6.3,1.4-8.7,2.6c-10.2,5.2-14.1,15.9-6.4,16.2c0.2,0-3.3-5,10.1-11.4
		c-7,9.8-18.3,34-4.9,34.1c0.1,0,0.3,0,0.4-0.1c0.1-0.1,0.2-0.2,0.2-0.3c-0.4-3.2-0.2-10.1,1.5-16c7.9-1.1,13.5-4.8,16.6-9.1
		c-0.7,2.3-0.9,4.5-0.4,6.1c0.9,2.8,3.9,2.3,5.7,0.8c0.8-0.7,1.7-1.7,2.7-3.3c-0.1,1.9,0.6,3.3,2.2,3.6c0.8,0.1,1.6,0,2.3-0.4
		c1.3-0.6,2.5-2,3.5-3.5c0,2.3,1.2,3.6,3.5,3.4c1.2-0.1,3-1,3.7-2.2c-0.2,0.6-0.3,1.1-0.5,1.6c-0.4,1-1.3,3.1-1.8,4.1
		c-1.2,2-2.6,2.9-4.2,3c-1.8,0.2-2.8-1.6-0.8-3.7c0,0,0,0,0.1-0.1l0.1-0.1c0,0,0,0,0.1-0.1s0-0.2-0.1-0.2h-0.2
		c-7.7,0.9-7.2,9.1,0.8,8.3c2.5-0.3,4.6-1.5,6.1-2.9c1.5-1.5,3-4.9,3.6-7c0.4-1.6,0.9-3.2,1.3-4.8c0.3-1.2,0.7-2.4,1-3.4
		c0.2-0.6,0.3-1.1,0.5-1.6c0.7-2.2,1.3-4.6,2.3-6.5c1-1.8-1.2-2.2-2.5-2.1c-0.6,0-1.1,0.1-1.5,0.5
		C1049.9,1026,1049.4,1028.2,1049.2,1029.2L1049.2,1029.2z M1012.4,1038.4c-1.4,0.5-2.6,0.7-3.7,0.8c1.5-3.6,3.7-7.6,6.5-11.5
		c0.3-0.4,0.1-1-0.4-1.2c-0.7-0.2-1.3-0.5-1.9-0.6c1.7-0.6,4.9-1,6.6-0.1c1.5,0.8,2.1,2.2,1.7,3.9c-0.3,1.5-1.5,3.1-2.5,4.2
		C1017,1035.9,1014.8,1037.5,1012.4,1038.4L1012.4,1038.4z M1027.5,1038.9c-0.5-0.1-0.8-0.8-0.7-2.2c0.2-2.9,2.8-6.5,4.5-6.2
		c0.9,0.2,1.1,1,0.9,1.8c-0.3,1.2-0.5,2.1-1.3,3.8C1030.1,1037.9,1028.6,1039.2,1027.5,1038.9L1027.5,1038.9z M1056,1025.7v-1.3
		h-0.4v-0.4h1.2v0.4h-0.4v1.3H1056L1056,1025.7z M1058.9,1025.7h-0.4l-0.1-0.7c0-0.1,0-0.1,0-0.2s0-0.1,0-0.2c0,0.1,0,0.2-0.1,0.3
		l0,0l-0.2,0.8h-0.3l-0.2-0.8l0,0c0-0.1-0.1-0.2-0.1-0.3c0,0.1,0,0.1,0,0.2s0,0.1,0,0.2l-0.1,0.7h-0.4l0.3-1.6h0.4l0.2,0.8l0,0
		c0,0.1,0,0.1,0,0.2v-0.1v-0.1l0.2-0.8h0.4L1058.9,1025.7z"/>
</g>
<g transform="matrix(2.086968, 0, 0, 2.155938, -1060.487183, -1319.921631)">
	<polygon class="st9" points="1044.2,964.9 1044.2,958.4 1042.3,958.4 1042.3,956.3 1048.5,956.3 1048.5,958.4 1046.6,958.4 
		1046.6,964.9 	"/>
	<path class="st9" d="M1059.5,964.9h-2.2l-0.5-3.7c0-0.3-0.1-0.6-0.1-0.9s-0.1-0.7-0.1-1.1c-0.1,0.4-0.2,0.8-0.3,1.4
		c0,0.1-0.1,0.2-0.1,0.3l-1.2,4h-1.6l-1.2-4c0-0.1,0-0.1-0.1-0.3c-0.2-0.5-0.3-1-0.3-1.4c0,0.3-0.1,0.6-0.1,1c0,0.3-0.1,0.6-0.1,1
		l-0.5,3.7h-2.2l1.3-8.6h2.3l1.3,4.4c0,0,0,0.1,0,0.2c0.1,0.4,0.2,0.7,0.2,1c0-0.2,0-0.3,0.1-0.5c0-0.2,0.1-0.4,0.2-0.7l1.3-4.4h2.3
		L1059.5,964.9z"/>
</g>
</svg>
