<?xml version="1.0" encoding="utf-8"?>
<!-- Generator: Adobe Illustrator 26.0.2, SVG Export Plug-In . SVG Version: 6.00 Build 0)  -->
<svg version="1.1" id="Layer_1" xmlns="http://www.w3.org/2000/svg" xmlns:xlink="http://www.w3.org/1999/xlink" x="0px" y="0px"
	 viewBox="0 0 1728 2160" style="enable-background:new 0 0 1728 2160;" xml:space="preserve">
<style type="text/css">
	.st0{fill:#EE4523;}
	.st1{fill:#0E1030;}
	.st2{fill:#FFFFFF;}
	.st3{fill:#7C5123;}
	.st4{fill:#F8D4A0;}
	.st5{fill:#FCFDFF;}
	.st6{fill:#EFC49E;}
	.st7{fill:#683302;}
	.st8{fill:#000033;}
	.st9{fill-rule:evenodd;clip-rule:evenodd;fill:#000033;}
</style>
<path class="st0" d="M1316.5,915.5c-1.1-0.7-2.3-1.1-3.5-1.1c-0.7,0-1.4,0.1-2.1,0.4l-7.4,3c-5.6,2.2-11.1,4.5-16.7,6.7l-30.5,12.3
	l-12.1,4.9l-2.4-5.5c-3.9-9.1-7.9-18.3-11.8-27.4c-1.2-2.8-3.4-4.8-6.4-5.7c-10.6-3.2-21.2-5.4-31.6-6.5c-6.3-0.7-12.5-1-18.5-1
	c-1.2,0-2.4,0-3.7,0c-2.9,0.1-5.7,0.3-8.4,0.5c-0.1,0-0.2,0-0.3,0c-0.3-2.4-1.3-5-4-6.8c-1.8-1.2-3.7-1.2-4.3-1.2
	c-6,0-29.7,6.8-37.9,9.2c-4.9,0.4-9.9,3.8-10.4,9.7c0,0.4,0,0.7,0,1.1l0.1,1.2c0,0.1,0,0.3,0,0.4l-0.7,0.3
	c-4.2,1.8-8.6,3.6-12.8,5.7c-9.3,4.5-18.5,10.3-27.5,16.9v-26.5c0-8.8-7.1-15.9-15.9-15.9H566.3c-8.8,0-15.9,7.1-15.9,15.9v147.4
	l-1.2,0.2c-18.8,2.8-33,19.5-33,38.8v143.2c0,19.3,14.2,36,33,38.8l254.3,37.7c1.8,0.3,3.7,0.4,5.5,0.4c1.8,0,3.7-0.1,5.5-0.4
	l254.3-37.7c18.8-2.8,33-19.5,33-38.8v-67.2c8.9,8,18.7,14.7,29.5,20c11.9,5.8,36.2,13.6,44.7,13.6c2.1,0,4.1-1.1,5.2-3
	c1.1-1.8,1.2-4.1,0.2-6l-1-1.9l-0.5-0.9c9.3,2,18.6,3,27.6,3c23,0,45.5-6.4,66.9-19.1c1.6-1,2.7-2.6,2.9-4.5l0-0.3
	c0.3-2.9-1.4-5.7-4.1-6.6l-8.5-2.8c18.9-12.7,31.6-29,38.6-49.6c2.1-6.1,7-27.4,5.3-33.1c-0.6-1.9-2.1-3.5-4-4.1
	c-0.6-0.2-1.2-0.3-1.8-0.3c-1.4,0-2.7,0.5-3.8,1.3l-3.1,2.4l-3.4,2.7c0.9-5.6,1.9-11.2,2.8-16.9c0,0,0.1-0.2,0.2-0.5
	c0.9-1.6,1.8-3.1,2.8-4.7l1.6-2.6c0.5-0.8,2-3.4,0.8-6.5c-0.9-2.2-2.7-3.2-4-3.6c0-0.5,0-1,0-1.4c0-4.5,0.1-9.2-0.1-13.9
	c-0.6-12.2-3-23.6-7.2-34.1c-0.2-0.5-0.5-1.1-0.7-1.7l-0.4-0.8c-0.9-2.1-3-3.5-5.3-3.6c-0.1,0-0.1,0-0.2,0c-2.2,0-4.3,1.2-5.4,3.2
	l-7.1,13.3l-10.3-25.4l-2.8-7c4-0.7,7.9-1.5,11.9-2.2l3.2-0.6l6-1.1c5.4-1,10.8-2,16.3-3c3.1-0.6,5.5-2.5,6.8-5.3
	c4.2-9.1,8.4-18.3,12.5-27.4l3.5-7.7l1.1-2.5c0.4-0.8,0.6-1.7,0.6-2.6C1319.1,918.6,1318.1,916.6,1316.5,915.5z"/>
<polygon class="st1" points="690.1,1093.5 690.1,1089.4 686,1089.4 646.7,1089.4 642.7,1089.4 642.7,1093.5 642.7,1141.1 
	612.7,1141.1 612.7,1093.5 612.7,1089.4 608.6,1089.4 569.3,1089.4 565.3,1089.4 565.3,1093.5 565.3,1234.1 565.3,1238.1 
	569.3,1238.1 608.6,1238.1 612.7,1238.1 612.7,1234.1 612.7,1183.8 642.7,1183.8 642.7,1234.1 642.7,1238.1 646.7,1238.1 
	686,1238.1 690.1,1238.1 690.1,1234.1 "/>
<path class="st1" d="M825.3,1198.7v-70.2c0-28.1-20.8-41.7-63.5-41.7c-42.8,0-63.5,13.6-63.5,41.7v70.2c0,28.2,20.8,41.9,63.5,41.9
	C804.5,1240.6,825.3,1226.9,825.3,1198.7z M777.9,1190.8c0,5.8-2.4,8.5-16.1,8.5c-13.7,0-16.1-2.7-16.1-8.5v-55
	c0-5.8,2.4-8.5,16.1-8.5c13.7,0,16.1,2.7,16.1,8.5V1190.8z"/>
<path class="st1" d="M832.8,1123.9v14.8c0,20.8,6,31.5,20.2,35.8l29.2,9.3l0.7,0.2c5.9,1.9,9.7,3.1,11.1,4.1
	c0.3,0.3,0.6,0.4,0.6,3.3v5.8c0,1.6-2,2.7-11.8,2.7c-12.1,0-41.4,0-41.4,0l-4.1,0v4.1v32.5v4l4,0c0,0,28.9,0.1,42.1,0.1
	c38.7,0,58.4-12.5,58.4-37.2v-16.7c0-20.7-5.6-30.6-19.9-35.3l-29.4-9.9c-12.5-4.3-12.5-4.4-12.5-7.1v-4.5c0-1.8,0.8-3,12.4-3
	c13.3,0,39.2-0.6,39.5-0.6l4-0.1v-4v-31.5v-4l-4,0c0,0-26.2,0-40.6,0C864.6,1086.8,832.8,1093.2,832.8,1123.9z"/>
<path class="st1" d="M945.5,1123.9v14.8c0,20.8,6,31.5,20.2,35.8l29.2,9.3l0.7,0.2c5.9,1.9,9.7,3.1,11.1,4.1
	c0.3,0.3,0.6,0.4,0.6,3.3v5.8c0,1.6-2,2.7-11.8,2.7c-12.1,0-41.4,0-41.4,0l-4.1,0v4.1v32.5v4l4,0c0,0,28.9,0.1,42.1,0.1
	c38.7,0,58.4-12.5,58.4-37.2v-16.7c0-20.7-5.6-30.6-19.9-35.3l-29.4-9.9c-12.5-4.3-12.5-4.4-12.5-7.1v-4.5c0-1.8,0.8-3,12.4-3
	c13.3,0,39.2-0.6,39.5-0.6l4-0.1v-4v-31.5v-4l-4,0c0,0-26.2,0-40.6,0C977.3,1086.8,945.5,1093.2,945.5,1123.9z"/>
<path class="st1" d="M1081.8,1146.2l-2.5,5.1c-0.8,1.6-2.2,2.7-3.9,3.2v81.1c0,6.3-4.5,11.8-10.4,12.7l-254.3,37.7
	c-0.6,0.1-1.1,0.1-1.7,0.1c-0.6,0-1.1,0-1.7-0.1l-254.3-37.7c-6-0.9-10.4-6.3-10.4-12.7v-143.2c0-6.3,4.5-11.8,10.4-12.7l251.9-37.3
	c18.8,2.2,152.2,21.5,247.7,35.5c-2.2-3.1-4.1-6.8-5.4-10.9c-0.7-2.3-1.2-4.6-1.6-6.8c-0.2-0.9-0.3-1.8-0.5-2.6
	c-0.1-0.4-0.1-0.8-0.1-1.2l0-3.4c0-0.3,0-0.6,0-0.8l0.1-1c0.1-0.8,0.2-1.7,0.3-2.5c1.4-8.9,5.2-15.8,11.3-20.8
	c-0.8-3.8-1.5-7.7-2.2-11.6c-1.8-10.8-2.9-22.2-3.3-33.8c-0.3-11.6,0.1-23.7,1.4-36.2c0.4-3.6,2-6.7,4.7-8.9c0,0,0.1-0.1,0.1-0.1
	v-31.2c0-0.7-0.1-1.3-0.2-2c-0.3-1.3-0.8-2.5-1.5-3.5c-0.7-1-1.6-2-2.7-2.7c-1.6-1.1-3.5-1.7-5.5-1.7H566.3c-2,0-3.9,0.6-5.5,1.7
	c-1,0.7-2,1.6-2.7,2.7c-0.7,1-1.2,2.2-1.5,3.5c-0.1,0.6-0.2,1.3-0.2,2v152.6v0l-6.4,0.9c-3.7,0.5-7.1,1.7-10.2,3.4
	c-0.6,0.3-1.2,0.7-1.8,1c-1.3,0.8-2.6,1.7-3.8,2.7c-1.5,1.2-2.8,2.6-4.1,4c-1.9,2.2-3.4,4.6-4.7,7.3c-0.8,1.8-1.5,3.6-2,5.5
	c-0.8,2.8-1.2,5.8-1.2,8.9v143.2v0c0,16.5,11.8,30.4,27.8,32.8l225.2,33.4l29.1,4.3c1.5,0.2,3.1,0.3,4.7,0.3s3.1-0.1,4.7-0.3
	l254.3-37.7c15.9-2.4,27.8-16.3,27.8-32.8v0v-73C1090.7,1157.6,1086.1,1152.1,1081.8,1146.2z"/>
<polygon class="st2" points="610.1,1044 634.3,1040.6 634.3,944.7 660.1,944.7 660.1,921.8 584.3,921.8 584.3,944.7 610.1,944.7 "/>
<polygon class="st2" points="695.9,921.8 671.7,921.8 671.7,1034.8 695.8,1031.1 "/>
<polygon class="st2" points="812.8,985.7 817.8,985.9 840.7,1020.6 868.8,1024.4 838.7,971.9 866.6,921.8 840.6,921.8 819,960.5 
	812.8,960.5 812.8,921.8 788.6,921.8 788.6,1019.3 812.8,1019.3 "/>
<polygon class="st2" points="942.5,1010.8 902.2,1005.5 902.2,987.2 940.3,989.7 940.3,967.3 902.2,964.8 902.2,944.6 943,944.6 
	943,921.8 878.1,921.8 878.1,1025.7 942.5,1034.8 "/>
<polygon class="st2" points="979.4,1040.2 1003.6,1043.5 1003.6,944.7 1029.4,944.7 1029.4,921.8 953.6,921.8 953.6,944.7 
	979.4,944.7 "/>
<path class="st2" d="M745.8,1023.2c0.8,0,3,0.2,30-3.9V997c-27.3,3.5-29.3,3.5-30,3.5c-6.7,0-12.8-0.7-12.8-10.2l0-36
	c0-9.5,6.1-10.7,12.8-10.7c0.8,0,1.5,0,30,0.1v-21.9c-28.5,0-29.3,0-30,0c-21.9,0-36.6,6.9-36.6,27.6v46.9
	C709.1,1016.9,723.9,1023.2,745.8,1023.2z"/>
<polygon class="st2" points="686,1093.5 646.7,1093.5 646.7,1145.1 608.6,1145.1 608.6,1093.5 569.3,1093.5 569.3,1234.1 
	608.6,1234.1 608.6,1179.7 646.7,1179.7 646.7,1234.1 686,1234.1 "/>
<path class="st2" d="M821.2,1198.7v-70.2c0-28.2-23.7-37.7-59.5-37.7c-35.8,0-59.5,9.5-59.5,37.7v70.2c0,28.4,23.7,37.9,59.5,37.9
	C797.5,1236.5,821.2,1227.1,821.2,1198.7z M781.9,1190.8c0,11.3-9.5,12.6-20.2,12.6c-10.7,0-20.2-1.2-20.2-12.6v-55
	c0-11.3,9.5-12.6,20.2-12.6c10.7,0,20.2,1.2,20.2,12.6V1190.8z"/>
<path class="st2" d="M836.9,1123.9v14.8c0,22,7.2,28.8,17.3,31.9l29.2,9.3c14.2,4.5,15.2,4.7,15.2,11.5v5.8c0,6.2-7,6.8-15.9,6.8
	c-12.1,0-41.4,0-41.4,0v32.5c0,0,28.9,0.1,42.1,0.1c33.8,0,54.3-9.3,54.3-33.1v-16.7c0-21.6-6.6-28-17.1-31.5l-29.4-9.9
	c-13.6-4.7-15.2-5.4-15.2-10.9v-4.5c0-6.6,6.6-7,16.5-7c13.4,0,39.4-0.6,39.4-0.6v-31.5c0,0-26.2,0-40.6,0
	C859.1,1090.8,836.9,1099.7,836.9,1123.9z"/>
<path class="st2" d="M949.6,1123.9v14.8c0,22,7.2,28.8,17.3,31.9l29.2,9.3c14.2,4.5,15.2,4.7,15.2,11.5v5.8c0,6.2-7,6.8-15.9,6.8
	c-12.1,0-41.4,0-41.4,0v32.5c0,0,28.9,0.1,42.1,0.1c33.8,0,54.3-9.3,54.3-33.1v-16.7c0-21.6-6.6-28-17.1-31.5l-29.4-9.9
	c-13.6-4.7-15.2-5.4-15.2-10.9v-4.5c0-6.6,6.6-7,16.5-7c13.4,0,39.4-0.6,39.4-0.6v-31.5c0,0-26.2,0-40.6,0
	C971.8,1090.8,949.6,1099.7,949.6,1123.9z"/>
<path class="st1" d="M1271.6,964.4c7.4-1.4,14.8-2.8,22.2-4.1c0.6-0.1,1.1-0.3,1.4-0.6c0.4-0.3,0.7-0.7,0.9-1.2
	c5.3-11.7,10.7-23.3,16-35c0.4-0.8,0.8-1.7,1.1-2.5c0-0.1,0-0.2,0-0.2c-8,3.2-16,6.4-24,9.7c-11,4.4-22,8.9-33,13.3
	c-4.4,1.8-8.9,3.6-13.3,5.4c-0.3,0.1-0.6,0.2-0.8,0.3c-0.1,0-0.1,0-0.2,0c-0.1,0-0.2,0-0.3,0c-0.1,0-0.3-0.1-0.4-0.2
	c-0.1-0.1-0.1-0.1-0.2-0.2c-0.2-0.2-0.3-0.5-0.5-1c0,0,0,0,0,0c-5.3-12.2-10.5-24.4-15.8-36.6c-0.5-1.2-1.3-1.9-2.5-2.2
	c-10-3-20.1-5.1-30.4-6.3c0,0,0,0,0,0c-3.3-0.4-6.5-0.6-9.8-0.8c-1-0.1-2.1-0.1-3.1-0.1c-2.8-0.1-5.6-0.2-8.3-0.1h0
	c-3.9,0.1-7.8,0.5-11.7,0.7c-0.4,0-0.8,0-1.1,0.1c-0.2,0-0.3,0-0.4,0c-0.3,0-0.6-0.1-0.8-0.3c0,0,0-0.1-0.1-0.1
	c-0.2-0.2-0.2-0.5-0.2-1c0,0,0,0,0,0c0-0.3,0-0.5,0-0.7c0,0,0-0.1,0-0.1c0-0.1,0-0.1,0-0.1c0,0,0,0,0,0c0,0,0,0.1-0.1,0.1
	c0,0.1,0,0.1-0.1,0.1c0,0,0,0,0,0c0,0,0-0.1,0-0.1c0,0,0-0.1,0-0.1c0-0.1,0-0.3,0-0.7c0-0.6,0-1.1,0-1.7c0-0.8-0.2-1.6-0.5-2.2
	c-0.2-0.5-0.5-1-1-1.4c0,0,0,0,0,0c-0.1-0.1-0.4-0.1-0.8-0.1c-0.4,0-0.8,0-1.4,0.1c-0.1,0-0.2,0-0.3,0.1c-0.5,0.1-1,0.1-1.6,0.3
	c-0.2,0-0.5,0.1-0.8,0.2c-0.5,0.1-1.1,0.2-1.6,0.3c-0.3,0.1-0.7,0.2-1,0.2c-0.6,0.1-1.1,0.3-1.8,0.4c-0.4,0.1-0.8,0.2-1.2,0.3
	c-0.6,0.1-1.2,0.3-1.9,0.4c-0.4,0.1-0.9,0.2-1.3,0.3c-0.6,0.2-1.3,0.3-1.9,0.5c-0.5,0.1-0.9,0.2-1.4,0.4c-0.6,0.2-1.3,0.3-1.9,0.5
	c-0.4,0.1-0.9,0.2-1.3,0.4c-0.7,0.2-1.3,0.4-2,0.5c-0.4,0.1-0.9,0.2-1.3,0.4c-0.6,0.2-1.3,0.3-1.9,0.5c-0.4,0.1-0.9,0.2-1.3,0.4
	c-0.6,0.2-1.2,0.3-1.7,0.5c-0.4,0.1-0.8,0.2-1.2,0.3c-0.5,0.1-1,0.3-1.5,0.4c-0.4,0.1-0.8,0.2-1.2,0.3c-0.4,0.1-0.8,0.2-1.2,0.4
	c-0.3,0.1-0.6,0.2-0.9,0.2c-0.6,0.2-1.1,0.3-1.6,0.5c0,0,0,0,0,0c-0.4,0.1-0.6,0.2-0.9,0.3c-0.2,0.1-0.3,0.1-0.4,0.1
	c-0.1,0-0.2,0.1-0.2,0.1s-0.3,0-0.8,0.1c-1,0.1-2.6,0.6-3.6,1.7c-0.5,0.6-0.9,1.4-1,2.4c0.1,1.4,0.2,2.9,0.4,4.3
	c0.1,0.9-0.1,1.4-0.6,1.9c-0.2,0.1-0.4,0.3-0.7,0.4c-5.3,2.3-10.7,4.4-15.8,6.9c-2.9,1.4-5.8,2.9-8.6,4.5c-5.6,3.2-11,6.7-16.2,10.5
	c-2.6,1.9-5.2,3.9-7.7,5.9c-0.8,0.6-1.3,1.3-1.8,2.1c-0.4,0.8-0.7,1.7-0.8,2.7c-0.9,8.8-1.4,17.6-1.5,26.4c0,0,0,0.1,0,0.1
	c0,2.9,0,5.8,0.1,8.7c0.1,2.8,0.2,5.5,0.4,8.3c0.3,5.5,0.9,11,1.6,16.4c0.4,2.7,0.8,5.5,1.2,8.2c0.8,4.5,1.7,8.9,2.5,13.3
	c0.1,0.3,0.1,0.5,0.1,0.8c0,0,0,0.1,0,0.1c0,0.1,0,0.2-0.1,0.4c0,0.2-0.1,0.4-0.2,0.6c-0.2,0.4-0.4,0.7-0.9,1
	c-6.3,4.4-9.3,10.7-10.5,18.1c-0.2,1.1-0.3,2.2-0.4,3.3c0,1.1,0,2.3,0,3.4c0.3,1.2,0.5,2.5,0.7,3.7c0.3,1.7,0.7,3.5,1.2,5.1
	c0.5,1.5,1,2.9,1.7,4.3c1.3,2.8,2.9,5.3,5,7.5c1,1.1,2.2,2.2,3.5,3.1c1.3,1,2.8,1.8,4.3,2.6c0.7,0.4,1.1,0.8,1.1,1.4
	c0,0.2,0,0.5-0.1,0.7c-0.7,2.4-1.3,4.8-1.8,7.2c-1.5,7.2-2.1,14.5-1.7,21.9c0,0,0,0,0,0c0.5,11.5,3.2,22.4,8.1,32.8
	c0.2,0.4,0.4,0.8,0.7,1.4c0,0,0,0,0,0c1.2-2.4,2.4-4.8,3.6-7.2c1.2-2.4,2.4-4.8,3.6-7.3c1.6,2.7,3.3,5.2,5.1,7.8
	c12.4,17.6,28,31.4,47.6,41c0.7,0.4,1.5,0.7,2.3,1.1c0.3,0.1,0.6,0.3,1,0.4c0.5,0.2,1.1,0.5,1.6,0.7c0.3,0.1,0.7,0.3,1.1,0.4
	c0.6,0.2,1.1,0.5,1.7,0.7c0.2,0.1,0.5,0.2,0.7,0.3c0.7,0.3,1.5,0.6,2.2,0.9c0.4,0.1,0.7,0.3,1.1,0.4c0.6,0.2,1.3,0.5,1.9,0.7
	c0.3,0.1,0.6,0.2,0.8,0.3c0.8,0.3,1.5,0.5,2.3,0.8c0.1,0,0.2,0.1,0.3,0.1c0.9,0.3,1.9,0.6,2.8,0.9c0.3,0.1,0.5,0.2,0.8,0.2
	c0.8,0.2,1.5,0.5,2.3,0.7c0.4,0.1,0.8,0.2,1.2,0.4c0.6,0.2,1.2,0.4,1.8,0.5c0.4,0.1,0.7,0.2,1.1,0.3c0.6,0.2,1.2,0.3,1.8,0.5
	c0.5,0.1,0.9,0.2,1.3,0.4c0.5,0.1,1,0.3,1.4,0.4c0.4,0.1,0.7,0.2,1.1,0.3c0.5,0.1,1,0.3,1.5,0.4c0.3,0.1,0.6,0.1,1,0.2
	c0.5,0.1,1,0.2,1.4,0.3c0.3,0.1,0.6,0.1,0.9,0.2c0.4,0.1,0.8,0.2,1.2,0.2c0.3,0,0.5,0.1,0.8,0.1c0.3,0,0.7,0.1,1,0.1
	c0.3,0,0.5,0,0.7,0c0.3,0,0.6,0,0.8,0c-1.3-2.5-2.6-4.9-4-7.4c-1.3-2.5-2.7-5-4.1-7.6c3,0.9,5.9,1.7,8.9,2.4
	c0.8,0.2,1.5,0.4,2.3,0.5c2.8,0.6,5.5,1.2,8.2,1.6c0.2,0,0.4,0.1,0.6,0.1c2.9,0.5,5.8,0.8,8.7,1c0.7,0.1,1.5,0.1,2.2,0.2
	c2.6,0.2,5.1,0.3,7.7,0.3c0.4,0,0.7,0,1.1,0c2.5,0,5-0.1,7.5-0.3c0.7,0,1.3-0.1,2-0.2c1.8-0.2,3.7-0.3,5.5-0.6
	c0.8-0.1,1.7-0.2,2.5-0.4c1.7-0.3,3.4-0.6,5.1-0.9c0.8-0.2,1.6-0.3,2.4-0.5c2.1-0.5,4.2-1,6.3-1.6c0.3-0.1,0.6-0.2,0.9-0.2
	c2.4-0.7,4.8-1.5,7.2-2.3c0.7-0.3,1.4-0.5,2.1-0.8c1.7-0.6,3.4-1.3,5.1-2c0.8-0.4,1.7-0.7,2.5-1.1c1.7-0.7,3.3-1.5,5-2.4
	c0.7-0.4,1.5-0.7,2.2-1.1c2.3-1.2,4.7-2.5,7-3.9c0,0,0,0,0,0c0-0.1,0-0.3,0-0.4v0c-6.9-2.3-13.9-4.6-21.1-6.9
	c2.8-1.5,5.5-3.1,8.1-4.7c7.9-4.9,14.8-10.6,20.8-17.2c4-4.4,7.5-9.1,10.6-14.3c3.1-5.2,5.6-10.8,7.7-16.8c0.2-0.5,0.4-1.1,0.5-1.7
	c0.4-1.2,0.7-2.5,1.1-3.9c0.7-2.8,1.4-5.8,2-8.9c0.6-3,1.1-6,1.4-8.4c0.2-1.2,0.3-2.4,0.3-3.3c0.1-1.5,0.1-2.5-0.1-3.1v0
	c-3.1,2.5-6.2,4.9-9.3,7.4c-3.1,2.4-6.1,4.9-9.4,7.5l0,0c0.1-0.8,0.2-1.4,0.3-2.1c0.1-0.5,0.1-0.9,0.2-1.4c0.1-0.4,0.1-0.7,0.2-1.1
	c1.5-9.2,3.1-18.5,4.6-27.7c0.1-0.9,0.5-1.8,1-2.5c1.4-2.5,2.9-4.9,4.4-7.3c0.5-0.8,0.6-1.1,0-1.3c-0.2-0.1-0.4-0.1-0.7-0.2
	c-0.4-0.1-0.7-0.2-1-0.3c-0.3-0.1-0.7-0.2-1.1-0.2c-0.5-0.1-0.9-0.2-1.1-0.5c-0.2-0.3-0.2-0.7-0.2-1.2c0-6.1,0.2-12.2-0.1-18.3
	c-0.3-5.5-0.9-10.9-2-16.3c-1.1-5.3-2.7-10.6-4.7-15.7c-0.1-0.3-0.3-0.7-0.5-1.1c-0.2-0.4-0.4-0.8-0.6-1.2
	c-4.4,8.3-8.8,16.3-13.2,24.6c-0.7-1.7-1.4-3.3-2-4.9c-0.4-0.9-0.7-1.8-1.1-2.6c-2.8-7-5.6-13.9-8.5-20.9c-2.8-7-5.6-13.9-8.5-20.9
	c-0.1-0.3-0.2-0.6-0.3-0.8c-0.1-0.3-0.2-0.6,0-0.7c0.1-0.2,0.4-0.3,0.7-0.3C1257.4,967,1264.5,965.7,1271.6,964.4z M1215.4,952.2
	l-4.3,5.7c-0.2,0.4-0.4,0.8-0.7,1.1l-14.1,7.6c-4.3,1.9-8.7,3.7-13,5.6l-45.5,3.5l-1.6-1.7c-1.1-1.1-1.4-1.1-2.6-0.1
	c-0.8,0.7-1.6,1.4-2.3,2.2c-1.2-0.3-2.6-1.7-3.1-3.7l-8.9-37.1c-0.3-1.1-0.1-2.3,0.9-2.5l46-11.9l39,3.6c0.4,0.1,1.5,1,2.1,2.4
	l10.1,22.3C1216.8,950.1,1216.2,951.2,1215.4,952.2z"/>
<path class="st2" d="M1058.3,973.5c0,0,0-0.1,0-0.1C1058.3,973.5,1058.3,973.5,1058.3,973.5z"/>
<path class="st3" d="M1282,1056.3c-0.4-0.1-0.6-0.1-0.8-0.1c-5.6-0.7-11.1-1.5-16.7-2.1c-9.3-1-18.6-1.6-28-0.9
	c-1.8,0.1-2,0.3-2,2.1c0,5.1,0,10.3,0.1,15.4c0,1.1-0.3,1.7-1.5,1.8c-7,0.9-14,1.9-21,2.8c-7.2,1-14.3,1.7-21.6,1.6
	c-3.3,0-6.4-0.9-8.8-3.4c-1.8-1.9-2.5-4.2-3-6.7c-0.2-0.9-0.6-1.3-1.5-1c-1.9,0.6-3.9,1.1-5.7,1.9c-13.7,5.9-26.6,13.2-38.9,21.5
	c-4.9,3.3-9.9,6.6-14.1,10.9c-0.4,0.4-0.7,0.9-1,1.4c0.5,0.2,1,0.5,1.6,0.6c15.7,3.2,31.5,4.6,47.5,3.6c10.8-0.7,21.5-2.1,32-4.6
	c31.5-7.5,59-22.3,82.8-44.1C1281.6,1056.9,1281.7,1056.7,1282,1056.3z"/>
<path class="st2" d="M1147.6,1124.9c8,7.5,17.4,10.4,28.2,7.6c15.4-3.9,27.9-12.4,38.2-24.3c0.8-0.9,1.5-1.8,2.2-2.7
	c-11.9,3.6-23.9,6.3-36.2,7.7c-12.3,1.4-24.6,1.4-37,0.4c1.4,1.4,2.9,2.8,4.5,3.9c1.6,1.1,3.4,2,5.2,2.8c1.8,0.7,3.7,1.2,5.8,1.8
	c-3.9,0.6-7.7,1.1-11.6,1.7C1147.1,1124.4,1147.3,1124.7,1147.6,1124.9z"/>
<path class="st4" d="M1088.1,1071.3c0.9-1,1.5-2,1.2-3.4c-1.8-9.5-3.6-19.1-5.4-28.6c-0.1-0.7-0.6-1.4-1.1-1.9
	c-5-4.3-13.2-3.9-17.9,0.8c-4.4,4.4-5.9,9.9-5.8,15.1c0.1,7.7,2.2,13.5,6,17.8C1071.5,1078.6,1081.5,1078.6,1088.1,1071.3z
	 M1071.8,1059.5c-0.2-0.8,0.2-1.7,0.9-2.4c1.2-1.4,2.8-2.2,4.6-2.5c1.4-0.3,1.5-0.4,1-1.8c-1.8-4.8-4.9-5.6-8.6-2.1
	c-1.2,1.2-2.3,2.5-3.5,3.9c0-0.8-0.1-1.6,0-2.3c0.3-2,1.1-3.8,2.4-5.3c2.2-2.5,4.9-3.1,7.9-1.7c3.8,1.9,5.9,5.1,6.7,9.1
	c0.7,3.2,0.5,6.3-1,9.3c-0.7,1.5-1.9,2.6-3.4,3.2c1.2-2.2,1.7-4.5,1.1-6.9c-0.5-2-1.7-3-3.6-2.4
	C1074.7,1058,1073.3,1058.8,1071.8,1059.5z"/>
<path class="st2" d="M1098.8,960.1c2.1,24.5,11,41.7,12.2,43.9c1.8-0.8,3.6-1.6,5.4-2.4c0.8-0.3,1.1-0.8,1.3-1.6
	c0.9-3.1,1.7-6.2,3-9.1c1.9-4.1,4.3-7.8,7.1-11.2c-2.1-1.3-3.7-3.6-4.3-6.3l-8.9-37.1c-0.9-3.9,1-7.5,4.4-8.4l46.1-11.9
	c0.3-0.1,0.7-0.1,1-0.1c0.2,0,0.3,0,0.5,0l39.2,3.7c2.2,0.2,4.7,2.4,6,5.2l10.5,23.2c3.3,1.2,6.7,2.4,9.7,4.2c1,0.6,2,1.1,3,1.7
	c0.1-0.1,0.1-0.1,0.2-0.2c-0.6-1.5-1.2-2.9-1.7-4.4c-4-10.5-8-20.9-11.9-31.4c-0.5-1.2-1.2-2.1-2.5-2.4c-1.1-0.3-2.2-0.7-3.4-1.1
	c-15.4-4.8-31.1-7.2-47.2-6.4c-4.9,0.2-9.8,0.7-14.6,1.3c-9,1.2-17.8,3.5-26.5,6.2c-9.3,2.8-18.3,6.4-26.9,10.6
	C1099.2,931.4,1097.2,942.2,1098.8,960.1z"/>
<path class="st2" d="M1150.9,986.1c6.2-2.7,12.4-5.3,18.6-8l-27,2.1c1.9,1.8,3.8,3.6,5.7,5.4C1149,986.4,1149.8,986.5,1150.9,986.1z
	"/>
<path class="st3" d="M1282.1,1067c-0.5,0.4-0.8,0.6-1,0.8c-15.2,13.3-32,24-50.4,32.2c-0.9,0.4-1.7,1.1-2.3,1.8
	c-8.7,11.4-19,21.2-31.2,28.7c-8.6,5.3-17.6,9.5-27.8,10.3c-7.5,0.6-14.6-0.6-21-4.8c-7.4-4.9-12.6-11.5-15.9-19.7
	c-0.6-1.6-1.6-2.4-3.3-2.6c-7.9-0.7-15.2-3.3-22.1-7.3c-0.9-0.5-1.1-1-0.4-1.9c2.8-3.3,5.4-6.8,8.3-9.9c4.4-4.8,9.3-9,14.7-12.8
	c1.3-0.9,1.3-1.1-0.1-2.1c-1-0.7-2-1.3-2.9-2c-5.5-3.8-11-7.6-16.5-11.4c-0.7-0.5-1.2-0.9-1.1-1.9c0.6-5.9-0.5-11.4-3.4-16.6
	c-0.9-1.6-1.1-3.1-0.4-4.8c3.3-9.2,4.6-18.8,3.7-28.6c-0.1-1.4-0.3-1.5-1.5-0.9c-8.4,3.7-16.8,7.3-25.1,11c-1.7,0.8-3.4,1.7-5.3,2.7
	c0.5,0.2,0.7,0.4,1,0.5c3.5,1.3,6.9,2.7,10.4,4c1.6,0.6,2.2,1.5,2.3,3.1c0.3,6.4,0.6,12.8,0.9,19.2c0.4,8.9,0.9,17.8,1.3,26.7
	c0,1,0,1.9,0,2.9c-0.1,0-0.3,0-0.4,0c-0.4-1.4-0.7-2.9-1.1-4.3c-0.3-1.4-0.5-1.5-1.8-0.8c-3,1.7-5.9,3.4-8.9,5.1
	c-1.2,0.7-1.8,1.7-2.2,2.9c-3.5,12.6-4.5,25.5-3.5,38.5c0.1,0.8,0.3,1.6,0.5,2.8c2.1-3.6,4-6.9,5.9-10.2c1.8,3,3.4,5.8,5.1,8.6
	c6.4,10.1,14.4,18.9,23.3,26.8c13.8,12.3,28.8,22.6,46.4,28.6c0.3,0.1,0.7,0.1,1.1,0.1c0-0.4,0-0.7-0.1-1.1
	c-1.5-4.3-2.9-8.6-4.4-12.9c-0.2-0.6-0.3-1.2-0.5-2c15.7,5.7,31.6,9.2,48,9.8c16.5,0.6,32.6-1.5,48.5-6.4
	c-7.2-2.4-14.3-4.9-21.7-7.4c10.6-3.9,20.5-8.9,29.5-15.4c9-6.5,16.8-14.2,23.4-23.2c5.9-8.1,15.1-25.8,15.2-29.2
	c-6.5,6.5-13.7,11.9-22.3,15.7C1276.9,1095.6,1280,1081.5,1282.1,1067z M1237.3,1108.9c0.3-0.4,0.6-0.9,0.9-1.3c0,2.5-0.7,4.8-1.6,7
	c-2.9,7.2-7.5,13.2-13.3,18.4c-6.7,6-13.8,11.3-22.2,14.7c-3,1.3-6.2,2.1-9.5,2.4c-2,0.2-2.5-0.4-1.8-2.4c0.7-2.1,2.2-3.5,4.2-4.5
	c4.2-2.1,8.4-4.2,12.6-6.4C1219.1,1130.1,1229.3,1120.6,1237.3,1108.9z"/>
<path class="st4" d="M1247,983.7c-5-3.1-10-6-15-9.1c-1.2-0.7-2.3-0.8-3.6-0.4c-29.8,9.2-59.5,18.4-89.3,27.5
	c-1.3,0.4-2.3,1.1-3.1,2.2c-4.5,6.1-8.4,12.4-11.9,19.1c-0.2,0.4-0.4,0.7-0.7,1.2c-1.8-2.3-3.1-4.6-3.6-7.3c-0.5-2.6-1-5.3-1.4-7.9
	c-1.5,0-1.8,0.3-1.7,1.6c0,0.8,0.2,1.6,0.2,2.4c0.5,9.7-1,19.1-4.4,28.1c-0.4,1-0.4,1.9,0.1,3c2.2,5.2,3.4,10.5,3.5,16.1
	c0,1.1,0.5,1.8,1.4,2.3c5.9,4.2,11.9,8.5,17.8,12.8c1.1,0.8,2.1,0.9,3.3,0.1c11.6-7.3,23.9-13.2,36.8-17.8c1-0.4,1.4-0.9,1.4-2
	c0-2.8,0-5.6,0.4-8.4c0.7-5,4.5-7.5,9.5-6.5c6.6,1.4,12.6,4.2,18.5,7.6c1.8,1,3.5,2.2,5.3,3.3c-0.1,0.1-0.1,0.2-0.2,0.3
	c-8-2.3-16.1-3.4-24.4-3.6c-1.7,0-1.9,0-2,1.8c-0.3,6.4,1,12.4,3.8,18.1c0.4,0.8,1,1.3,1.9,1.3c1.1,0.1,2.3,0.2,3.4,0.2
	c6.9,0.4,13.8,0.3,20.7-0.6c4.3-0.5,8.5-1.4,12.7-2.1c0.8-0.1,1.2-0.6,1.1-1.4c0-1.3,0-2.6,0.1-3.9c0-9.8-1.2-19.5-3-29.1
	c-3.1-16.5-9.5-31.5-20.7-44.2c-0.5-0.6-1-1.2-1.5-1.8c0.3-0.1,0.5,0,0.6,0.1c2.6,2.1,5.3,4,7.7,6.2c7,6.6,11.8,14.6,15.6,23.3
	c3.9,8.8,6.2,18.1,7.5,27.6c0.2,1.8,0.3,1.8,2,1.8c6.1-0.1,12.2-0.1,18.4-0.2c1.1,0,1.8-0.5,2.3-1.4c3-5,6-10,9-14.9
	c0.6-0.9,0.6-1.8,0.2-2.8c-5.5-13.5-11.1-27-16.6-40.5C1248.5,985.1,1247.8,984.2,1247,983.7z M1153.6,1020.9c1.4-4-0.7-7.4-5.8-9.1
	c2.1-1.6,4.4-1.6,6.7-1c6.1,1.5,10,7.4,9.3,14c-0.4,3.3-1.5,6.2-3.8,8.6c-3.8,4-9.9,4.1-13.9,0.2c-2.8-2.7-4.2-5.9-4.2-10
	c2.5,2,5.2,2.7,8.1,1.3C1151.8,1024.1,1153,1022.8,1153.6,1020.9z M1227.6,1005.6c-0.7-2-0.8-3.8-0.3-5.2c4,2.4,7.1,2.1,8.8-0.9
	c1.6-2.8,0.4-6-3.1-7.8c0.4-0.2,0.7-0.5,1-0.5c5.3-0.9,10.3,0.4,13,7c2.1,5.2,0,11.5-4.7,13.9
	C1236.8,1014.9,1229.8,1011.9,1227.6,1005.6z M1172.6,1030.6c0.4-0.2,0.9-0.3,1.5-0.5c-0.2,1.8-0.3,3.3-0.5,4.8
	c0,0.3-0.4,0.7-0.7,0.8c-11.8,5.3-22.6,12-32.5,20.3c-0.1,0.1-0.2,0.1-0.5,0.1c0.5-1.1,1-2.2,1.6-3.2c2.3-3.8,5.5-6.8,8.9-9.6
	C1157,1037.8,1164.4,1033.5,1172.6,1030.6z M1257.2,1021c0.1,0,0.1,0.1,0.4,0.3c-3.6,0.3-7,0.6-10.4,0.9c-4.1,0.3-8.2,0.7-12.4,1.1
	c-1.2,0.1-2-0.1-2.4-1.4c-0.3-1-0.8-1.9-1.3-2.9c-0.3-0.6-0.2-1,0.6-1.1C1240.4,1017.1,1249,1017.9,1257.2,1021z"/>
<path class="st2" d="M1141.5,969.8c-1.4-6.1-2.1-9.2-3.6-15.1c3.2-0.4,4.9-0.7,8.1-1.2c1.5,6,2.2,9,3.7,15.1c2.1-0.1,5-0.6,6.8-1.2
	c-3.7-14.5-5.6-21.8-9.3-35.8c-1.8,0.1-4.6,0.5-6.5,1c1.3,5,1.9,7.6,3.2,12.7c-3.2,0.5-4.8,0.7-8,1.2c-1.2-5.1-1.9-7.6-3.1-12.6
	c-2,0.1-5,0.7-7,1.2c3.3,13.5,4.9,20.7,8.2,35.4C1136.4,970.7,1139.5,970.3,1141.5,969.8z"/>
<path class="st2" d="M1158.7,956.9c2,7.6,6.8,9.4,12.9,8.1c5.9-1.3,8.9-4.6,6.7-11.7c-2.1-6.7-3.1-10-5.1-16.8
	c-2-6.5-6.2-8.3-11.9-7.5c-5.8,0.7-9.1,3.5-7.3,10.3C1155.8,946.3,1156.8,949.8,1158.7,956.9z M1163.2,935.9c1.9-0.3,3.7-0.1,4.6,3
	c1.6,5.5,2.4,8.2,4,13.7c1,3.3-0.6,4-2.6,4.4c-2,0.4-3.9,0.3-4.8-3c-1.6-5.6-2.4-8.4-3.9-14C1159.7,936.8,1161.3,936.2,1163.2,935.9
	z"/>
<path class="st2" d="M1177,938.4c1.6,5,3.2,6.4,5.1,6.9c2,0.6,3,0.9,5,1.5c2.3,0.7,2.6,0.7,3.2,2.5c0.2,0.6,0.3,0.9,0.5,1.4
	c0.6,1.8-0.5,2.3-1.9,2.6c-1.8,0.4-4.1,0.6-7,0.6c0.4,2.1,1.5,5.4,2.3,7.4c2.6,0,5.2-0.4,7.2-0.9c4.9-1.2,7-4,5.1-9.4
	c-0.5-1.4-0.8-2.2-1.3-3.6c-1.6-4.6-3.1-5.8-5-6.5c-2-0.6-3-1-4.9-1.6c-2.3-0.8-2.7-1-3.1-2.4c-0.1-0.4-0.2-0.7-0.4-1.1
	c-0.6-1.9,0.5-2.2,2-2.3c1.9-0.2,3.6-0.2,6.3,0.3c-0.4-1.8-1.4-4.5-2.1-6.2c-2.7-0.6-4.5-0.7-6.5-0.6c-4.6,0.4-7.3,2.7-5.6,8.2
	C1176.4,936.4,1176.6,937.1,1177,938.4z"/>
<path class="st2" d="M1193.9,936.4c1.6,4.6,3.1,5.9,5,6.4c1.8,0.6,2.8,0.9,4.6,1.4c2.2,0.6,2.4,0.7,3,2.3c0.2,0.5,0.3,0.8,0.5,1.3
	c0.6,1.6-0.3,2-1.6,2.3c-1.6,0.3-3.7,0.5-6.3,0.5c0.5,1.9,1.6,4.8,2.4,6.6c2.3,0,4.7-0.4,6.4-0.8c4.4-1.1,6.2-3.4,4.2-8.2
	c-0.5-1.3-0.8-1.9-1.3-3.2c-1.7-4.1-3-5.2-4.8-5.9c-1.8-0.6-2.7-1-4.5-1.6c-2.1-0.8-2.5-1-3-2.3c-0.2-0.4-0.2-0.6-0.4-1
	c-0.6-1.7,0.3-1.9,1.7-2c1.7-0.1,3.3,0,5.7,0.5c-0.5-1.6-1.4-4.1-2.2-5.6c-2.5-0.7-4.1-0.9-5.9-0.8c-4.2,0.1-6.5,2.1-4.7,7.2
	C1193.2,934.6,1193.5,935.2,1193.9,936.4z"/>
<path class="st3" d="M1222.4,953.9c-1.4-0.5-1.7-0.3-2.4,1c-0.6,1-1.1,2.1-1.7,3.1c-0.9,1.5-0.8,1.8,0.6,2.6
	c4.9,2.9,9.8,5.8,14.8,8.8c3.8,2.2,7.6,4.5,11.6,6.9c-0.1-0.4-0.1-0.6-0.2-0.7c-0.2-0.6-0.5-1.2-0.7-1.8
	C1239.8,964.1,1232.4,957.6,1222.4,953.9z"/>
<path class="st3" d="M1123.5,1012.7c0.4-0.2,0.5-0.2,0.5-0.2c0.6-1.2,1.2-2.3,1.9-3.5c4.1-7.8,9.1-15,14.6-21.9c1-1.2,1-1.4-0.1-2.4
	c-1.4-1.3-2.8-2.6-4.3-3.9c-1.7-1.5-1.7-1.5-3.1,0.3c-6.2,7.9-9.3,16.9-9.5,26.9C1123.4,1009.5,1123.5,1011.1,1123.5,1012.7z"/>
<path class="st5" d="M1148.3,1011.6c3.9,0.7,6.3,3.2,6.6,7c0.2,3.2-2,6.4-5.3,7.3c-2.9,0.9-5.4-0.1-7.6-2c-0.9-1.5-1.7-3-1.8-4.9
	c-0.1-3.8,3.5-7.6,7.3-7.3C1147.8,1011.6,1148.1,1011.6,1148.3,1011.6z"/>
<path class="st5" d="M1233.8,991.4c2.3,0.7,3.8,2.5,3.9,5.1c0.1,2.4-0.9,4.3-3,5.5c-2.2,1.2-4.3,0.9-6.3-0.5c-0.4-0.3-0.7-0.7-1.1-1
	c-1.8-3.3-1.6-5.7,1-8C1229.9,991,1231.7,990.7,1233.8,991.4z"/>
<g>
	<path class="st6" d="M1222.9,1056.9c-6.2-22.2-13.2-44.2-21.1-65.9C1216.7,1010.4,1223.8,1032.4,1222.9,1056.9z"/>
	<path class="st6" d="M1143.5,1057.6c1.3-1.6,3-2.9,4.6-4.1c5.5-4.3,11.3-7.9,17.5-11c2-1,4-1.8,6-2.7c1.6-0.7,3,0.1,3.3,1.8
		c0.3,1.9-0.6,3.5-2.4,4c-5.5,1.6-11,3.5-16.3,5.8c-4.1,1.8-8.1,3.6-11.9,5.9C1144.1,1057.4,1143.8,1057.5,1143.5,1057.6z"/>
	<path class="st6" d="M1257.6,1025.3c-5,0.7-9.7,1.8-14.2,3.1c-1.1,0.3-2.2,0.6-3.3,1c-2.2,0.8-4.7-2.1-4.8-3.8
		c0-0.4,0.2-0.6,0.6-0.7c1.9-0.4,3.9-0.6,5.8-0.7c4.9-0.3,9.8,0.1,14.7,0.8C1256.7,1025,1257,1025.2,1257.6,1025.3z"/>
</g>
<path class="st7" d="M1144.1,1167.1c-25.7-12.3-45.2-31-58.6-56.1c-0.1-0.1,0.1-0.3,0.2-0.2c17.7,20.6,37.1,39.4,58.5,56.1
	C1144.4,1167,1144.3,1167.2,1144.1,1167.1z"/>
<path class="st7" d="M1228.3,1168c-9.4,2.2-19,2.6-28.6,2.3c-9.4-0.3-18.7-2-27.8-4.6c-5.8-1.7-11.5-3.8-17-6.4
	c12.2,1.9,24.3,3.7,36.6,5.1C1203.8,1165.9,1216,1167.1,1228.3,1168z"/>
<g id="XMLID_00000023280775331412916300000017920141573930809263_">
	<g>
		<path class="st7" d="M1254.9,1134.4c9.3-7.2,18.5-14.7,27.6-22.3c-13.9,20.8-32.6,35.1-56.2,43.4
			C1236,1148.6,1245.6,1141.7,1254.9,1134.4z"/>
	</g>
	<g>
	</g>
</g>
<path class="st7" d="M1265.8,1064.6c-40.4,30.4-85.7,41.4-135.7,34.1c7.8-0.4,15.6-0.6,23.3-1.3c7.8-0.7,15.6-1.6,23.4-2.9
	c7.7-1.3,15.4-2.8,23-4.7c7.6-1.9,15.1-4.1,22.6-6.7c7.5-2.6,14.8-5.4,22.1-8.5C1251.7,1071.5,1258.7,1068,1265.8,1064.6z"/>
<g>
	<g>
		<path class="st8" d="M892.4,1311.1c0.3,0.4,0.5,1,0.5,1.6v2.8c0,0.7-0.2,1.3-0.5,1.7c-0.3,0.4-0.8,0.6-1.4,0.6
			c-0.2,0-0.4,0-0.7-0.1c-0.2-0.1-0.4-0.2-0.6-0.4c0,0,0,0-0.1,0c0,0,0,0,0,0.1v2.8c0,0,0,0.1,0,0.1c0,0-0.1,0-0.1,0h-1.3
			c0,0-0.1,0-0.1,0c0,0,0-0.1,0-0.1v-9.4c0,0,0-0.1,0-0.1c0,0,0.1,0,0.1,0h1.3c0,0,0.1,0,0.1,0c0,0,0,0.1,0,0.1v0.2c0,0,0,0,0,0
			c0,0,0,0,0.1,0c0.3-0.3,0.7-0.4,1.2-0.4C891.6,1310.5,892.1,1310.7,892.4,1311.1z M891.1,1312.2c-0.2-0.2-0.4-0.3-0.6-0.3
			c-0.3,0-0.5,0.1-0.6,0.3c-0.2,0.2-0.2,0.4-0.2,0.7v2.6c0,0.3,0.1,0.5,0.2,0.7c0.2,0.2,0.4,0.3,0.6,0.3c0.3,0,0.5-0.1,0.6-0.3
			c0.2-0.2,0.2-0.4,0.2-0.7v-2.6C891.3,1312.6,891.2,1312.4,891.1,1312.2z"/>
		<path class="st8" d="M894.6,1317.2c-0.4-0.4-0.7-1-0.7-1.7v-2.8c0-0.7,0.2-1.2,0.7-1.6c0.4-0.4,1-0.6,1.8-0.6
			c0.8,0,1.4,0.2,1.8,0.6c0.4,0.4,0.7,1,0.7,1.6v2.8c0,0.7-0.2,1.2-0.7,1.7c-0.4,0.4-1,0.6-1.8,0.6
			C895.7,1317.9,895.1,1317.6,894.6,1317.2z M897.1,1316.2c0.2-0.2,0.2-0.4,0.2-0.7v-2.6c0-0.3-0.1-0.5-0.2-0.7
			c-0.2-0.2-0.4-0.3-0.6-0.3c-0.3,0-0.5,0.1-0.6,0.3c-0.2,0.2-0.2,0.4-0.2,0.7v2.6c0,0.3,0.1,0.5,0.2,0.7c0.2,0.2,0.4,0.3,0.6,0.3
			C896.7,1316.4,896.9,1316.4,897.1,1316.2z"/>
		<path class="st8" d="M901,1317.6l-1.5-6.8v-0.1c0-0.1,0.1-0.1,0.2-0.1h1.2c0.1,0,0.2,0.1,0.2,0.2l0.7,4.3c0,0,0,0,0,0s0,0,0,0
			l0.8-4.3c0-0.1,0.1-0.2,0.2-0.2h1.1c0.1,0,0.2,0.1,0.2,0.2l0.8,4.3c0,0,0,0,0,0s0,0,0,0l0.7-4.3c0-0.1,0.1-0.2,0.2-0.2l1.2,0
			c0.1,0,0.2,0.1,0.1,0.2l-1.5,6.7c0,0.1-0.1,0.2-0.2,0.2h-1.2c-0.1,0-0.2-0.1-0.2-0.2l-0.7-4.1c0,0,0,0,0,0s0,0,0,0l-0.7,4.1
			c0,0.1-0.1,0.2-0.2,0.2h-1.2C901.1,1317.7,901,1317.7,901,1317.6z"/>
		<path class="st8" d="M912.7,1314.7c0,0-0.1,0-0.1,0h-3.1c0,0-0.1,0-0.1,0.1v0.6c0,0.3,0.1,0.5,0.2,0.7c0.2,0.2,0.4,0.3,0.6,0.3
			c0.2,0,0.4-0.1,0.5-0.2c0.2-0.1,0.3-0.3,0.3-0.5c0-0.1,0.1-0.1,0.2-0.1l1.2,0.1c0,0,0.1,0,0.1,0c0,0,0,0.1,0,0.1
			c-0.1,0.6-0.3,1.1-0.7,1.5c-0.4,0.3-1,0.5-1.7,0.5c-0.8,0-1.4-0.2-1.8-0.6c-0.4-0.4-0.7-1-0.7-1.6v-2.8c0-0.7,0.2-1.2,0.7-1.6
			c0.4-0.4,1-0.6,1.8-0.6c0.8,0,1.4,0.2,1.8,0.6c0.4,0.4,0.7,1,0.7,1.6v1.8C912.7,1314.7,912.7,1314.7,912.7,1314.7z M909.6,1312.2
			c-0.2,0.2-0.2,0.4-0.2,0.7v0.6c0,0,0,0.1,0.1,0.1h1.6c0,0,0.1,0,0.1-0.1v-0.6c0-0.3-0.1-0.5-0.2-0.7c-0.2-0.2-0.4-0.3-0.6-0.3
			C910,1311.9,909.8,1312,909.6,1312.2z"/>
		<path class="st8" d="M917.3,1310.7c0.1,0,0.1,0.1,0.1,0.2l-0.2,1.3c0,0.1-0.1,0.1-0.2,0.1c-0.1,0-0.3-0.1-0.4-0.1
			c-0.1,0-0.2,0-0.3,0c-0.3,0-0.5,0.2-0.6,0.4c-0.2,0.3-0.2,0.6-0.2,0.9v3.9c0,0,0,0.1,0,0.1c0,0-0.1,0-0.1,0H914c0,0-0.1,0-0.1,0
			c0,0,0-0.1,0-0.1v-6.7c0,0,0-0.1,0-0.1c0,0,0.1,0,0.1,0h1.3c0,0,0.1,0,0.1,0c0,0,0,0.1,0,0.1v0.6c0,0,0,0.1,0,0.1c0,0,0,0,0,0
			c0.3-0.6,0.7-0.9,1.2-0.9C917,1310.6,917.2,1310.6,917.3,1310.7z"/>
		<path class="st8" d="M922.8,1314.7c0,0-0.1,0-0.1,0h-3.1c0,0-0.1,0-0.1,0.1v0.6c0,0.3,0.1,0.5,0.2,0.7c0.2,0.2,0.4,0.3,0.6,0.3
			c0.2,0,0.4-0.1,0.5-0.2c0.2-0.1,0.3-0.3,0.3-0.5c0-0.1,0.1-0.1,0.2-0.1l1.2,0.1c0,0,0.1,0,0.1,0c0,0,0,0.1,0,0.1
			c-0.1,0.6-0.3,1.1-0.7,1.5c-0.4,0.3-1,0.5-1.7,0.5c-0.8,0-1.4-0.2-1.8-0.6c-0.4-0.4-0.7-1-0.7-1.6v-2.8c0-0.7,0.2-1.2,0.7-1.6
			c0.4-0.4,1-0.6,1.8-0.6c0.8,0,1.4,0.2,1.8,0.6c0.4,0.4,0.7,1,0.7,1.6v1.8C922.9,1314.7,922.9,1314.7,922.8,1314.7z M919.8,1312.2
			c-0.2,0.2-0.2,0.4-0.2,0.7v0.6c0,0,0,0.1,0.1,0.1h1.6c0,0,0.1,0,0.1-0.1v-0.6c0-0.3-0.1-0.5-0.2-0.7c-0.2-0.2-0.4-0.3-0.6-0.3
			C920.2,1311.9,920,1312,919.8,1312.2z"/>
		<path class="st8" d="M927.2,1308.1c0,0,0.1,0,0.1,0h1.3c0,0,0.1,0,0.1,0c0,0,0,0.1,0,0.1v9.4c0,0,0,0.1,0,0.1c0,0-0.1,0-0.1,0
			h-1.3c0,0-0.1,0-0.1,0c0,0,0-0.1,0-0.1v-0.2c0,0,0,0,0-0.1c0,0,0,0-0.1,0c-0.3,0.3-0.8,0.5-1.3,0.5c-0.6,0-1.1-0.2-1.4-0.6
			c-0.3-0.4-0.5-1-0.5-1.6v-2.8c0-0.7,0.2-1.3,0.5-1.7c0.3-0.4,0.8-0.6,1.4-0.6c0.2,0,0.4,0,0.7,0.1c0.2,0.1,0.4,0.2,0.6,0.4
			c0,0,0,0,0.1,0c0,0,0,0,0-0.1v-2.8C927.2,1308.1,927.2,1308.1,927.2,1308.1z M926.9,1316.2c0.1-0.1,0.2-0.3,0.3-0.6v-3
			c0-0.2-0.1-0.4-0.3-0.6c-0.1-0.1-0.3-0.2-0.6-0.2c-0.3,0-0.5,0.1-0.6,0.3c-0.2,0.2-0.2,0.4-0.2,0.7v2.6c0,0.3,0.1,0.5,0.2,0.7
			c0.2,0.2,0.4,0.3,0.6,0.3C926.6,1316.5,926.8,1316.4,926.9,1316.2z"/>
		<path class="st8" d="M937.2,1311.1c0.3,0.4,0.5,0.9,0.5,1.7v2.8c0,0.7-0.2,1.2-0.5,1.6c-0.3,0.4-0.8,0.6-1.4,0.6
			c-0.5,0-0.9-0.2-1.3-0.5c0,0,0,0-0.1,0c0,0,0,0,0,0.1v0.2c0,0,0,0.1,0,0.1s-0.1,0-0.1,0H933c0,0-0.1,0-0.1,0c0,0,0-0.1,0-0.1v-9.4
			c0,0,0-0.1,0-0.1c0,0,0.1,0,0.1,0h1.3c0,0,0.1,0,0.1,0c0,0,0,0.1,0,0.1v2.8c0,0,0,0,0,0c0,0,0,0,0.1,0c0.2-0.2,0.4-0.3,0.6-0.3
			c0.2-0.1,0.4-0.1,0.6-0.1C936.4,1310.5,936.9,1310.7,937.2,1311.1z M935.9,1312.2c-0.2-0.2-0.4-0.3-0.6-0.3
			c-0.2,0-0.4,0.1-0.6,0.2c-0.1,0.1-0.2,0.3-0.3,0.6v3c0,0.2,0.1,0.4,0.3,0.6c0.1,0.1,0.3,0.2,0.6,0.2c0.3,0,0.5-0.1,0.6-0.3
			c0.2-0.2,0.2-0.4,0.2-0.7v-2.6C936.2,1312.6,936.1,1312.4,935.9,1312.2z"/>
		<path class="st8" d="M938.7,1320.5c0,0,0-0.1,0-0.1v-1c0,0,0-0.1,0-0.1c0,0,0.1,0,0.1,0c0.3,0,0.5,0,0.7-0.1
			c0.2-0.1,0.3-0.2,0.4-0.4c0.1-0.2,0.2-0.5,0.2-0.9l0-0.1l-1.7-6.9v-0.1c0-0.1,0.1-0.1,0.2-0.1h1.4c0.1,0,0.2,0.1,0.2,0.2l0.8,4.6
			c0,0,0,0,0,0s0,0,0,0l0.8-4.6c0-0.1,0.1-0.2,0.2-0.2l1.4,0c0.1,0,0.2,0.1,0.2,0.2l-1.9,7.3c-0.2,0.7-0.4,1.1-0.6,1.5
			s-0.5,0.6-0.8,0.7c-0.4,0.1-0.9,0.2-1.5,0.2L938.7,1320.5C938.7,1320.5,938.7,1320.5,938.7,1320.5z"/>
	</g>
	<path class="st9" d="M982.9,1303.8c0.1-3.6-1.5-6.7-4.9-8.1c-2.2-0.9-4.8-1.1-7.4-0.8c-3.3,0.4-6.7,1.5-9.2,2.8
		c-10.8,5.5-15,16.8-6.8,17.1c0.2,0-3.5-5.3,10.7-12c-7.4,10.4-19.4,36-5.1,36.2c0.1,0,0.3,0,0.4-0.1c0.1-0.1,0.2-0.2,0.2-0.3
		c-0.5-3.4-0.2-10.7,1.6-17c6-0.9,10.7-3.2,14.1-6C979.5,1312.9,982.8,1308.7,982.9,1303.8L982.9,1303.8z M968.3,1314.4
		c-1.4,0.5-2.8,0.8-4,0.9c1.6-3.8,3.9-8,6.9-12.2c0.3-0.4,0.1-1.1-0.4-1.2c-0.7-0.2-1.4-0.5-2.1-0.7c1.8-0.6,5.1-1.1,7-0.1
		c1.6,0.8,2.2,2.4,1.8,4.1c-0.3,1.6-1.6,3.3-2.6,4.5C973.2,1311.8,970.8,1313.5,968.3,1314.4L968.3,1314.4z M987.1,1305.9
		c1.4,0,2.7-1.3,2.8-2.8c0.1-1.5-0.9-2.7-2.3-2.6c-1.4,0-2.7,1.3-2.8,2.8C984.6,1304.8,985.7,1305.9,987.1,1305.9L987.1,1305.9z
		 M994.9,1317.4c0.1,0.7,1.1,0.8,1.7,0.6c0.5-0.2,1.1-0.7,1.8-1.3c1-0.9,2-2,2.8-3c0.3-0.4,0.6-0.9,0.9-1.3c0.1-0.1,0.2,0,0.2,0.1
		c-0.1,0.8-0.7,2.3-1.1,3.1c-0.7,1.7-1.7,3.4-2.9,4.8c-1,1.2-2.2,2.2-3.6,2.7c-1.2,0.4-3,0.5-4.1-0.2c-0.4-0.3-0.7-0.6-0.9-1.1
		c-0.4-0.9-0.4-2.1-0.1-3.4c-1.2,1.9-2.7,3.8-4.3,4.9c-1,0.7-2.4,1.1-3.6,0.8c-0.9-0.2-1.4-0.7-1.8-1.4c-0.7-1.2-0.4-2.9-0.1-4.2
		c1-3.7,2-5.7,4-10.7c0.2-0.4,0.5-0.7,1-0.7c0.9,0.1,1.7,0.2,2.5,0.5c0.9,0.4,1.1,1,0.7,2c-1.2,2.2-5.5,9.5-2,9.4
		c0.9,0,2.1-1.2,3.1-2.5c2.4-3,4.2-7.6,5.8-11.2c-1.9,0.4-2.9-0.2-4.2-1.5c0,0,0,0,0,0c0.3-1,0.3-2-0.4-2.9c0,0,0,0,0,0
		c0.5-0.5,0.9-0.6,1.5-0.2c0.1,0.1,0.3,0.2,0.5,0.3c0.8,0.5,1.5,0.5,2.4,0.3c0.5-0.1,1-0.3,1.6-0.4c0-1.1-0.3-2.2-1.1-2.7
		c0,0,0,0,0,0c0,0,0,0,0,0c0,0,0,0,0,0c0,0,0,0,0,0c0.2-0.2,0.3-0.3,0.5-0.5c0.6-0.5,1.3-0.6,1.9-0.6c0.8,0.1,1.6,0.4,2.1,1
		c0.4,0.5,0.6,1.3,0.7,2c0.7-0.1,1.7-0.2,2.3-0.2c1.7-0.1,3.9,0.1,4.9,1.7c0.1,0.1,0.1,0.2,0.2,0.3c-0.6,0.6-1.2,1.2-1.8,1.9
		c-2-0.4-4.9,0.2-6.3,0.5c-0.7,2-1.6,4.2-2.2,5.5C996.3,1312.6,994.6,1316,994.9,1317.4L994.9,1317.4z M1057.3,1305.1
		c-0.3,1-0.5,2.2-0.8,3.4c-0.3,1.2-0.6,2-1.2,3.1c-0.6,0.9-1.5,1.8-2.3,1.9c-2.8,0.3-0.5-5.3,0.7-8c0.2-0.4,0.4-0.8,0.5-1.2
		c0.1-0.3,0-0.6-0.1-0.9c-0.2-0.5-0.7-0.8-1.2-1c-0.4-0.1-1.3-0.3-1.9-0.2c-0.4,0.1-0.5,0.3-0.6,0.6c-0.3,0.7-0.6,1.6-0.8,2.3
		c-0.6,1.8-1.1,3.5-1.5,4.9c-0.2,0.7-0.3,1.3-0.4,1.9c-0.2,0.4-0.5,0.7-0.8,1c-0.6,0.8-1.3,1.3-1.9,1.4c-3.2,0.3,0.1-6.7,1-8.8
		c0.4-1-0.1-1.8-1-2.2c-0.3-0.1-1.3-0.3-1.9-0.3c-0.1,0-0.1,0-0.2,0c-0.5,0.1-0.7,0.5-0.8,1c0,0.1-0.1,0.3-0.1,0.4
		c-0.6-0.7-1.5-1.1-2.9-0.9c-2,0.2-3.8,1.6-5.2,3.4c1.3-4.4-0.1-8.6-4.2-10.3c-2-0.9-4.5-1-7-0.7c-3.1,0.4-6.3,1.4-8.7,2.6
		c-10.2,5.2-14.1,15.9-6.4,16.2c0.2,0-3.3-5,10.1-11.4c-7,9.8-18.3,34-4.9,34.1c0.1,0,0.3,0,0.4-0.1c0.1-0.1,0.2-0.2,0.2-0.3
		c-0.4-3.2-0.2-10.1,1.5-16c7.9-1.1,13.5-4.8,16.6-9.1c-0.7,2.3-0.9,4.5-0.4,6.1c0.9,2.8,3.9,2.3,5.7,0.8c0.8-0.7,1.7-1.7,2.7-3.3
		c-0.1,1.9,0.6,3.3,2.2,3.6c0.8,0.1,1.6,0,2.3-0.4c1.3-0.6,2.5-2,3.5-3.5c0,2.3,1.2,3.6,3.5,3.4c1.2-0.1,3-1,3.7-2.2
		c-0.2,0.6-0.3,1.1-0.5,1.6c-0.4,1-1.3,3.1-1.8,4.1c-1.2,2-2.6,2.9-4.2,3c-1.8,0.2-2.8-1.6-0.8-3.7c0,0,0,0,0.1-0.1
		c0,0,0.1-0.1,0.1-0.1c0,0,0,0,0.1-0.1c0.1-0.1,0-0.2-0.1-0.2l-0.2,0c-7.7,0.9-7.2,9.1,0.8,8.3c2.5-0.3,4.6-1.5,6.1-2.9
		c1.5-1.5,3-4.9,3.6-7c0.4-1.6,0.9-3.2,1.3-4.8c0.3-1.2,0.7-2.4,1-3.4c0.2-0.6,0.3-1.1,0.5-1.6c0.7-2.2,1.3-4.6,2.3-6.5
		c1-1.8-1.2-2.2-2.5-2.1c-0.6,0-1.1,0.1-1.5,0.5C1058,1301.9,1057.5,1304.1,1057.3,1305.1L1057.3,1305.1z M1020.5,1314.3
		c-1.4,0.5-2.6,0.7-3.7,0.8c1.5-3.6,3.7-7.6,6.5-11.5c0.3-0.4,0.1-1-0.4-1.2c-0.7-0.2-1.3-0.5-1.9-0.6c1.7-0.6,4.9-1,6.6-0.1
		c1.5,0.8,2.1,2.2,1.7,3.9c-0.3,1.5-1.5,3.1-2.5,4.2C1025.1,1311.8,1022.9,1313.4,1020.5,1314.3L1020.5,1314.3z M1035.6,1314.8
		c-0.5-0.1-0.8-0.8-0.7-2.2c0.2-2.9,2.8-6.5,4.5-6.2c0.9,0.2,1.1,1,0.9,1.8c-0.3,1.2-0.5,2.1-1.3,3.8
		C1038.2,1313.8,1036.7,1315.1,1035.6,1314.8L1035.6,1314.8z M1064.1,1301.6v-1.3h-0.4v-0.4h1.2v0.4h-0.4v1.3H1064.1L1064.1,1301.6z
		 M1067,1301.6h-0.4l-0.1-0.7c0-0.1,0-0.1,0-0.2c0-0.1,0-0.1,0-0.2c0,0.1,0,0.2-0.1,0.3c0,0,0,0,0,0l-0.2,0.8h-0.3l-0.2-0.8
		c0,0,0,0,0,0c0-0.1-0.1-0.2-0.1-0.3c0,0.1,0,0.1,0,0.2c0,0.1,0,0.1,0,0.2l-0.1,0.7h-0.4l0.3-1.6h0.4l0.2,0.8c0,0,0,0,0,0
		c0,0.1,0,0.1,0,0.2c0,0,0-0.1,0-0.1c0,0,0-0.1,0-0.1l0.2-0.8h0.4L1067,1301.6z"/>
</g>
<g>
	<polygon class="st9" points="1052.3,1240.8 1052.3,1234.3 1050.4,1234.3 1050.4,1232.2 1056.6,1232.2 1056.6,1234.3 1054.7,1234.3 
		1054.7,1240.8 1052.3,1240.8 	"/>
	<path class="st9" d="M1067.6,1240.8h-2.2l-0.5-3.7c0-0.3-0.1-0.6-0.1-0.9c0-0.3-0.1-0.7-0.1-1.1c-0.1,0.4-0.2,0.8-0.3,1.4
		c0,0.1-0.1,0.2-0.1,0.3l-1.2,4h-1.6l-1.2-4c0-0.1,0-0.1-0.1-0.3c-0.2-0.5-0.3-1-0.3-1.4c0,0.3-0.1,0.6-0.1,1c0,0.3-0.1,0.6-0.1,1
		l-0.5,3.7h-2.2l1.3-8.6h2.3l1.3,4.4c0,0,0,0.1,0,0.2c0.1,0.4,0.2,0.7,0.2,1c0-0.2,0-0.3,0.1-0.5c0-0.2,0.1-0.4,0.2-0.7l1.3-4.4h2.3
		L1067.6,1240.8z"/>
</g>
</svg>
